<?xml version="1.0" standalone="no"?>
<!DOCTYPE svg PUBLIC "-//W3C//DTD SVG 1.1//EN" "http://www.w3.org/Graphics/SVG/1.1/DTD/svg11.dtd" >
<svg xmlns="http://www.w3.org/2000/svg">
<metadata></metadata>
<defs>
<font id="pf_highway_sans_promedium" horiz-adv-x="1818" >
<font-face units-per-em="1000" ascent="750" descent="-250" />
<missing-glyph horiz-adv-x="261" />
<glyph unicode="fj" horiz-adv-x="528" d="M471 -7q0 -50 -11.5 -87.5t-37.5 -62t-68 -37t-103 -13.5l-8 101q34 6 55 14t31.5 21t14 32.5t3.5 46.5v388h-134v-396h-127v396h-62v92h62v70q0 39 14 67.5t38 47t56.5 28t70.5 9.5q42 0 83.5 -9t67.5 -20l-19 -97q-26 5 -52.5 9t-49.5 4q-38 0 -60 -15t-22 -52v-42h134 l124 24v-519z" />
<glyph unicode="ffj" horiz-adv-x="788" d="M86 554q0 39 14 68t38.5 47.5t57 28t69.5 9.5q34 0 68.5 -5.5t61.5 -15.5q49 43 133 43q43 0 84.5 -8.5t67.5 -20.5l-20 -97q-25 5 -51.5 9t-51.5 4q-38 0 -59.5 -15t-21.5 -52v-61h131l124 23v-518q0 -50 -11.5 -87t-37.5 -62t-68 -37.5t-103 -13.5l-8 101q34 6 55 14 t31.5 21t14 32t3.5 46v389h-131v-396h-127v396h-137v-396h-126v396h-62v92h62v66zM349 588q-10 3 -26 4t-26 1q-45 0 -65 -16.5t-20 -66.5v-22h137v100z" />
<glyph unicode="ff" horiz-adv-x="607" d="M266 707q32 0 64 -5t58 -13q39 36 111 36q6 0 17 -0.5t23 -1.5t23.5 -2.5t20.5 -3.5q-1 -26 -2 -51t-3 -51q-12 1 -19.5 1h-16.5q-26 0 -45.5 -9.5t-19.5 -41.5v-77h98v-92h-98v-396h-126v396h-137v-396h-127v396h-61v92h61v66q0 39 14 68t38.5 47.5t57 28t69.5 9.5z M351 488v102q-11 2 -24 3t-21 1q-51 0 -71.5 -17t-20.5 -68v-21h137z" />
<glyph unicode="fi" horiz-adv-x="529" d="M348 0v396h-136v-396h-126v396h-62v92h62v70q0 39 13.5 67.5t37.5 47t57 28t71 9.5q41 0 83 -9t68 -20l-20 -97q-25 5 -51.5 9t-50.5 4q-38 0 -60 -15t-22 -52v-42h134l127 24v-512h-125z" />
<glyph unicode="fl" horiz-adv-x="537" d="M302 488v-92h-87v-396h-126v396h-60v92h60v60q0 39 13.5 67.5t37.5 47.5t57 28t71 9q29 0 57 -5t51 -11l108 33v-717h-125v579q-34 8 -62 8q-38 0 -60 -14t-22 -51v-34h87z" />
<glyph unicode="ffi" horiz-adv-x="797" d="M268 707q36 0 71.5 -7t61.5 -16q25 21 62 30.5t79 9.5q40 0 78.5 -9t62.5 -20l-20 -97q-26 5 -52.5 9t-49.5 4q-38 0 -60 -15t-22 -52v-56h138l122 23v-511h-124v396h-136v-396h-126v396h-138v-396h-126v396h-62v92h62v45q0 90 47.5 132t131.5 42zM353 488l1 99 q-14 2 -27 4t-26 2q-36 0 -59.5 -12.5t-25.5 -47.5v-45h137z" />
<glyph unicode="ffl" horiz-adv-x="798" d="M563 488v-92h-85v-396h-127v396h-134v-396h-126v396h-62v92h62v45q0 90 47 132t131 42q34 0 68 -6.5t59 -16.5q49 44 134 44q30 0 60.5 -5t54.5 -12l102 31v-742h-126v607q-15 3 -31 5.5t-30 2.5q-38 0 -60 -15t-22 -52v-60h85zM350 588q-12 2 -25.5 3t-24.5 1 q-44 0 -63.5 -16.5t-19.5 -65.5v-22h134z" />
<glyph unicode="ft" horiz-adv-x="641" d="M492 488h104v-92h-104v-224q0 -41 12 -56t46 -15q13 0 27.5 1.5t32.5 3.5q1 -5 2 -19t2.5 -29.5t2.5 -29.5t2 -20q-29 -8 -60.5 -13t-59.5 -5q-68 0 -99 35.5t-31 111.5v259h-152v-396h-127v396h-62v92h62v73q0 70 39.5 104.5t108.5 34.5q17 0 41 -1.5t43 -5.5l-4 -103 q-9 1 -18 1.5t-18 0.5q-26 0 -45.5 -9t-19.5 -39v-56h153v112q7 2 24 8.5t36.5 13.5t37 13.5t24.5 9.5v-157z" />
<glyph unicode=" "  horiz-adv-x="261" />
<glyph unicode="&#x09;" horiz-adv-x="261" />
<glyph unicode="&#xa0;" horiz-adv-x="261" />
<glyph unicode="!" horiz-adv-x="296" d="M111 201l-21 239v211h130v-210l-21 -240h-88zM154 -10q-32 0 -53 21t-21 53q0 20 7 34t18 23t24.5 13.5t25.5 4.5q32 0 52 -22t20 -52q0 -32 -21 -53.5t-52 -21.5z" />
<glyph unicode="&#x22;" horiz-adv-x="435" d="M92 407l-22 244h126l-22 -244h-82zM262 407l-22 244h127l-22 -244h-83z" />
<glyph unicode="#" horiz-adv-x="640" d="M505 402l-27 -149h109l-17 -98h-109l-28 -155h-109l27 155h-119l-27 -155h-110l28 155h-108l17 98h109l26 149h-109l18 98h109l26 151h109l-26 -151h119l26 151h110l-26 -151h108l-18 -98h-108zM246 249h126l27 158h-125z" />
<glyph unicode="$" horiz-adv-x="640" d="M262 -88v97q-54 8 -101 30.5t-82 56.5l76 90q36 -33 80 -50.5t85 -17.5q54 0 81 19.5t27 53.5q0 16 -6.5 27.5t-21.5 21.5t-38.5 18.5t-57.5 18.5q-50 14 -88 29.5t-64.5 36.5t-40 51t-13.5 73q0 36 12.5 65.5t34.5 52t52 37.5t65 22v97h105v-94q100 -12 172 -75l-72 -91 q-36 31 -75.5 44.5t-78.5 13.5q-46 0 -67 -19t-21 -46q0 -17 9.5 -29t25 -21t35.5 -15.5t41 -12.5q34 -10 73 -23t72 -35t54.5 -56t21.5 -86q0 -82 -51 -129t-139 -58v-97h-105z" />
<glyph unicode="%" horiz-adv-x="922" d="M705 -6q-48 0 -84.5 17t-61 45.5t-37 66.5t-12.5 80t12.5 80t37 67t61 46t84.5 17q44 0 80.5 -15.5t62.5 -43.5t40 -66t14 -84q0 -47 -14 -85.5t-40 -66t-62.5 -43t-80.5 -15.5zM705 325q-43 0 -66 -32.5t-23 -88.5q0 -55 23 -88t66 -33q45 0 68 33t23 87 q0 57 -23.5 89.5t-67.5 32.5zM215 238q-48 0 -84.5 17t-61 45.5t-37 67t-12.5 80.5t12.5 80t37 66.5t61 45.5t84.5 17q44 0 80.5 -15.5t62.5 -43t40 -66t14 -84.5t-14 -84.5t-40 -66.5t-62.5 -43.5t-80.5 -15.5zM215 570q-43 0 -66 -33t-23 -89q0 -54 23 -87.5t66 -33.5 q45 0 68 33.5t23 87.5q0 57 -23.5 89.5t-67.5 32.5zM197 -21l426 696h100l-426 -696h-100z" />
<glyph unicode="&#x26;" horiz-adv-x="763" d="M544 394q43 0 91 -6.5t83 -16.5q-5 -22 -9 -42.5t-8 -42.5q-14 3 -25 5t-21 3.5t-20.5 2t-23.5 1.5q0 -8 0.5 -18t0.5 -19q0 -72 -23.5 -123.5t-62 -85t-88.5 -49.5t-104 -16q-65 0 -114 18.5t-81.5 49.5t-49 71.5t-16.5 83.5q0 62 32.5 118.5t92.5 98.5q-31 28 -48 59.5 t-17 65.5q0 22 8.5 48t27 48t48.5 36.5t73 14.5q33 0 61.5 -10t49.5 -29t32.5 -45.5t11.5 -60.5q0 -26 -9 -49t-22.5 -42.5t-29.5 -35.5t-30 -27q14 -14 24 -27t15 -27q56 48 151 48zM336 87q43 0 73.5 15.5t49.5 41t27.5 58t8.5 66.5v15t-2 14q-32 -4 -60.5 -27.5 t-57.5 -80.5l-76 35q8 16 12.5 28t4.5 23q0 14 -10.5 32t-37.5 45q-33 -24 -55 -63.5t-22 -78.5q0 -18 6 -39.5t22 -40t44 -31t73 -12.5zM288 608q-6 0 -13.5 -2t-13.5 -8t-10.5 -17t-4.5 -28q0 -27 11 -46t28 -36q26 17 38 39t12 44q0 20 -11 37t-36 17z" />
<glyph unicode="'" horiz-adv-x="264" d="M92 407l-22 244h126l-22 -244h-82z" />
<glyph unicode="(" horiz-adv-x="350" d="M166 288q0 -49 10 -97.5t27.5 -94.5t42.5 -89t55 -80l-79 -63q-37 37 -70 84.5t-58 101.5t-40 113.5t-15 119.5q0 62 15 123t40 116.5t58.5 104.5t70.5 87l82 -63q-31 -39 -56.5 -83.5t-44 -92t-28.5 -95t-10 -92.5z" />
<glyph unicode=")" horiz-adv-x="349" d="M180 288q0 45 -10 92.5t-28.5 95t-44 92t-56.5 83.5l82 63q37 -38 70.5 -87t58.5 -104.5t40 -116.5t15 -123q0 -60 -15 -119.5t-40 -113.5t-58 -101.5t-70 -84.5l-79 63q30 37 55 80t42.5 89t27.5 94.5t10 97.5z" />
<glyph unicode="*" horiz-adv-x="476" d="M299 467q18 -22 37 -43.5t38 -43.5l-77 -56l-58 98q-15 -24 -30 -49l-30 -50l-75 57l76 87l-111 27l28 88l106 -45l-12 114h97q-2 -29 -5 -57t-6 -57l105 45q8 -22 14.5 -44t13.5 -44l-111 -27v0z" />
<glyph unicode="+" horiz-adv-x="640" d="M375 93h-114v165h-167v106h167v168h114v-168h168v-106h-168v-165z" />
<glyph unicode="," horiz-adv-x="256" d="M54 -90q26 18 41.5 38.5t20.5 46.5q-29 0 -49.5 17t-20.5 51q0 32 21 54.5t53 22.5q38 0 60.5 -27.5t22.5 -72.5q0 -60 -33 -103t-81 -72q-9 11 -18 22.5t-17 22.5z" />
<glyph unicode="-" horiz-adv-x="381" d="M55 362h271v-114h-271v114z" />
<glyph unicode="." horiz-adv-x="257" d="M128 -11q-32 0 -53.5 22t-21.5 54q0 36 24 56t52 20q32 0 52.5 -22t20.5 -54t-21.5 -54t-52.5 -22z" />
<glyph unicode="/" horiz-adv-x="503" d="M-4 -77l387 800h119l-388 -800h-118z" />
<glyph unicode="0" horiz-adv-x="640" d="M321 -10q-71 0 -124.5 27t-89.5 72.5t-54.5 106.5t-18.5 129q0 67 18.5 128t54.5 107t89.5 73.5t124.5 27.5q65 0 118 -24.5t91 -69t59 -106t21 -135.5q0 -75 -21 -136.5t-59 -106t-91 -69t-118 -24.5zM321 546q-75 0 -114 -59.5t-39 -160.5q0 -49 10 -89.5t29 -70 t47.5 -45.5t66.5 -16t67 16t48.5 45t29.5 69.5t10 89.5q0 102 -40 161.5t-115 59.5z" />
<glyph unicode="1" horiz-adv-x="640" d="M279 487h-88v86q50 4 73 23t34 55h112v-651h-131v487z" />
<glyph unicode="2" horiz-adv-x="640" d="M61 0q3 73 26.5 129t60 99t82.5 76t94 62q28 17 47.5 30t31.5 25t17 24.5t5 27.5q0 35 -27 55t-79 20q-42 0 -85 -16.5t-85 -49.5l-69 90q50 44 113.5 66.5t131.5 22.5q52 0 94.5 -12t73 -35t47.5 -56.5t17 -75.5q0 -33 -9 -60.5t-29 -51.5t-51.5 -46.5t-76.5 -46.5 q-44 -24 -73.5 -44.5t-49 -39.5t-30.5 -38.5t-18 -43.5h341v-111h-500z" />
<glyph unicode="3" horiz-adv-x="640" d="M556 195q0 -49 -20.5 -87t-56 -64.5t-83.5 -40t-102 -13.5q-75 0 -139 26t-109 74l83 82q37 -37 78 -53t86 -16q27 0 50.5 6.5t41 18.5t27.5 29.5t10 39.5q0 46 -29.5 68.5t-78.5 22.5h-66v98h64q18 0 35.5 6.5t31 18t21.5 27t8 32.5q0 13 -5.5 27t-18.5 25.5t-34.5 18.5 t-52.5 7q-39 0 -78.5 -15t-75.5 -44q-17 22 -34.5 43.5t-34.5 44.5q45 40 105.5 62t126.5 22q53 0 96.5 -12.5t74 -35.5t47.5 -55.5t17 -72.5q0 -48 -24.5 -85.5t-73.5 -59.5v-2q27 -7 48 -22t35.5 -34.5t22 -42t7.5 -44.5z" />
<glyph unicode="4" horiz-adv-x="640" d="M519 0h-123v136h-355v100l347 415h131v-408h85v-107h-85v-136zM188 243h208v247z" />
<glyph unicode="5" horiz-adv-x="640" d="M579 222q0 -59 -20 -102.5t-56.5 -72t-87 -43t-111.5 -14.5q-68 0 -127.5 16.5t-116.5 51.5l55 98q46 -26 95.5 -40t93.5 -14q66 0 105.5 29t39.5 86q0 53 -35 78.5t-87 25.5q-35 0 -67.5 -11.5t-59.5 -30.5l-117 43l24 329h430v-110h-318l-11 -138q0 -1 2 -1 q63 30 133 30q56 0 100 -15t74 -42.5t46 -66t16 -86.5z" />
<glyph unicode="6" horiz-adv-x="640" d="M584 212q0 -54 -20 -95.5t-56 -69.5t-86 -42.5t-110 -14.5q-55 0 -102.5 15t-82 47t-54 81.5t-19.5 118.5q0 42 9 88t29.5 91t54 85.5t82 71.5t113 50.5t148.5 22.5v-111q-56 -3 -100 -13t-79 -31t-61.5 -53.5t-46.5 -78.5h2q33 23 69 32t78 9q47 0 89 -12.5t74 -37.5 t50.5 -63t18.5 -90zM455 207q0 50 -35 77t-97 27q-65 0 -102.5 -29t-37.5 -76q0 -22 8.5 -41.5t25.5 -34.5t42 -23.5t58 -8.5q66 0 102 30t36 79z" />
<glyph unicode="7" horiz-adv-x="640" d="M211 0q2 154 53.5 294.5t151.5 246.5h-344v110h490v-107q-103 -106 -161.5 -240t-59.5 -304h-130z" />
<glyph unicode="8" horiz-adv-x="640" d="M593 192q0 -97 -73 -149.5t-201 -52.5q-130 0 -201 52.5t-71 149.5q0 51 29 94t84 63v1q-25 11 -41.5 26.5t-26 32.5t-13 34.5t-3.5 32.5q0 46 18.5 80.5t51.5 58t77.5 35t97.5 11.5q50 0 94.5 -11.5t77.5 -34.5t52.5 -57.5t19.5 -80.5q0 -14 -4 -31.5t-14 -34.5 t-26.5 -33t-41.5 -27v-1q55 -20 84.5 -62t29.5 -96zM435 472q0 34 -27 60t-89 26q-60 0 -87 -25t-27 -59q0 -36 31 -59t85 -23q55 0 84.5 23t29.5 57zM464 193q0 48 -36 75t-109 27q-67 0 -104.5 -26.5t-37.5 -72.5q0 -48 36.5 -75t106.5 -27q71 0 107.5 27.5t36.5 71.5z " />
<glyph unicode="9" horiz-adv-x="640" d="M582 398q0 -64 -21 -134t-71.5 -130t-134.5 -100t-210 -44v111q56 2 100.5 12.5t79 31t61 52.5t46.5 78l-2 2q-35 -25 -73 -33.5t-75 -8.5q-47 0 -89 12.5t-73.5 37.5t-49.5 63t-18 90q0 54 20 95.5t56 70t86 43t110 14.5q55 0 102.5 -15.5t82 -47.5t54 -81.5 t19.5 -118.5zM452 444q0 22 -8.5 41.5t-25.5 34.5t-42 23.5t-59 8.5q-66 0 -102 -30t-36 -79q0 -51 36 -77.5t97 -26.5q66 0 103 29t37 76z" />
<glyph unicode=":" horiz-adv-x="259" d="M130 -11q-32 0 -53.5 22t-21.5 54q0 36 24 56t52 20q32 0 52.5 -22t20.5 -54t-21.5 -54t-52.5 -22zM130 276q-32 0 -53.5 22t-21.5 54q0 37 24 56.5t52 19.5q32 0 52.5 -22t20.5 -54t-21.5 -54t-52.5 -22z" />
<glyph unicode=";" horiz-adv-x="262" d="M133 276q-32 0 -53.5 22t-21.5 54q0 37 23.5 56.5t51.5 19.5q32 0 53 -22t21 -54t-21.5 -54t-52.5 -22zM62 -90q26 18 42 38.5t20 46.5q-29 -2 -49 17t-20 51q0 33 21 55t53 22q37 0 59.5 -27t22.5 -72q0 -61 -32.5 -104.5t-81.5 -72.5z" />
<glyph unicode="&#x3c;" horiz-adv-x="640" d="M110 276v89l410 205v-123l-268 -125l268 -134v-124z" />
<glyph unicode="=" horiz-adv-x="640" d="M534 266v-108h-434v108h434zM534 476v-107h-434v107h434z" />
<glyph unicode="&#x3e;" horiz-adv-x="640" d="M112 64v124l268 134l-268 125v123l410 -205v-89z" />
<glyph unicode="?" horiz-adv-x="518" d="M476 479q0 -45 -19 -77t-41 -55q-17 -17 -33.5 -33t-29 -33t-21 -37.5t-9.5 -47.5h-123q1 55 16 88.5t44 64.5q12 14 27 29t28 31t22 33t9 35q0 11 -5 23.5t-15.5 23t-27 17t-38.5 6.5q-26 0 -44 -10t-29.5 -26t-18 -34.5t-7.5 -36.5h-126q1 53 20.5 94t51 69t72.5 42.5 t86 14.5q48 0 87 -14t66.5 -38t42.5 -57t15 -72zM187 63q0 20 7 34t18 23t24.5 13.5t26.5 4.5q32 0 51.5 -22t19.5 -52q0 -32 -21 -53t-52 -21q-32 0 -53 20.5t-21 52.5z" />
<glyph unicode="@" horiz-adv-x="875" d="M604 508q-5 -63 -10.5 -125.5t-10.5 -125.5v-6q0 -21 10.5 -30t22.5 -9q18 0 36 11.5t32.5 32.5t23.5 51.5t9 69.5q0 58 -21 103.5t-57 77t-84 48t-102 16.5q-64 0 -118.5 -22.5t-94.5 -62t-62.5 -93t-22.5 -114.5q0 -66 22 -120.5t61.5 -93t95 -59.5t122.5 -21 q31 0 57.5 2.5t52 8t50.5 14.5t54 21l28 -76q-58 -22 -114.5 -35t-123.5 -13q-84 0 -156.5 25.5t-125.5 73.5t-83 117t-30 156q0 79 29.5 146.5t81.5 117t123 78t154 28.5q80 0 145.5 -23.5t112 -65.5t72 -100.5t25.5 -129.5q0 -62 -18 -109t-47 -79.5t-66.5 -49 t-76.5 -16.5q-35 0 -63 14.5t-38 39.5h-3q-22 -26 -49 -37.5t-56 -11.5q-26 0 -50.5 9.5t-44 29t-31.5 50.5t-12 73q0 58 14 99.5t37.5 68.5t53 40t60.5 13q50 0 88 -36h1l3 29h94zM434 429q-36 0 -56 -35.5t-20 -91.5q0 -43 16.5 -63.5t45.5 -20.5q16 0 34 10t30 24l13 142 q-11 14 -27 24.5t-36 10.5z" />
<glyph unicode="A" horiz-adv-x="668" d="M470 138h-268l-48 -138h-138l247 651h150l248 -651h-142zM335 519q-3 -10 -9 -28t-12.5 -36.5t-12 -35.5t-8.5 -25l-54 -150h194l-59 168q-3 8 -7.5 22t-10 29.5t-10.5 30.5t-8 25h-3z" />
<glyph unicode="B" horiz-adv-x="623" d="M465 352q22 -7 42.5 -21t36 -33.5t25 -44.5t9.5 -54q0 -94 -59.5 -146.5t-168.5 -52.5h-288v651h291q45 0 81.5 -10.5t62.5 -31.5t40.5 -51.5t14.5 -70.5q0 -47 -26 -82t-61 -50v-3zM194 537v-137h143q38 0 60 19t22 51t-20.5 49.5t-59.5 17.5h-145zM194 290v-175h145 q102 0 102 88q0 45 -29.5 66t-72.5 21h-145z" />
<glyph unicode="C" horiz-adv-x="585" d="M44 328q0 76 20.5 138t58 105.5t91 67t120.5 23.5q78 0 132.5 -28t92.5 -76l-95 -85q-31 37 -63 52.5t-68 15.5q-37 0 -65 -16t-47.5 -44.5t-29.5 -67.5t-10 -86q0 -46 9.5 -85.5t29 -69t48.5 -46.5t67 -17q36 0 70 17.5t66 55.5l94 -81q-38 -48 -93.5 -80t-139.5 -32 q-66 0 -119 23.5t-90.5 67.5t-58 106.5t-20.5 141.5z" />
<glyph unicode="D" horiz-adv-x="644" d="M65 0v651h200q68 0 128 -17.5t105 -56.5t71 -101t26 -150t-26.5 -150t-72 -101t-106.5 -57t-130 -18h-195zM198 536v-421h57q102 0 153 54t51 156q0 101 -51 156t-154 55h-56z" />
<glyph unicode="E" horiz-adv-x="549" d="M61 651h459v-114h-327v-138h229v-115h-229v-169h338v-115h-470v651z" />
<glyph unicode="F" horiz-adv-x="531" d="M65 651h460v-115h-328v-148h232v-115h-232v-273h-132v651z" />
<glyph unicode="G" horiz-adv-x="630" d="M330 660q75 0 129 -26t95 -78q-25 -21 -49.5 -42t-49.5 -43q-29 38 -61 53t-67 15q-37 0 -65 -16t-46.5 -44.5t-28 -68t-9.5 -85.5q0 -103 39.5 -160t114.5 -57q36 0 60.5 11t39.5 29.5t21.5 42.5t7.5 50h-100v104h233v-82q0 -63 -17.5 -113.5t-51.5 -86t-83.5 -54.5 t-112.5 -19q-69 0 -123 24t-90.5 67.5t-55.5 105.5t-19 139t20.5 138.5t58 105t91 67t119.5 23.5z" />
<glyph unicode="H" horiz-adv-x="656" d="M462 278h-269v-278h-133v651h133v-257h269v257h133v-651h-133v278z" />
<glyph unicode="I" horiz-adv-x="280" d="M73 651h134v-651h-134v651z" />
<glyph unicode="J" horiz-adv-x="590" d="M520 260q0 -132 -61.5 -201.5t-188.5 -69.5q-53 0 -94 12.5t-71 36t-51 57.5t-34 77l125 42q20 -54 48.5 -80t76.5 -26q62 0 89.5 38t27.5 116v389h133v-391v0z" />
<glyph unicode="K" horiz-adv-x="618" d="M462 0l-162 309l-108 -132v-177h-132v651h132v-295h3l64 84l168 211h152l-190 -233l224 -418h-151z" />
<glyph unicode="L" horiz-adv-x="518" d="M60 651h132v-536h318v-115h-450v651z" />
<glyph unicode="M" horiz-adv-x="754" d="M560 0v379h-3l-73 -155l-109 -224l-101 210l-79 169h-3v-379h-130v651h132l95 -200l85 -184h5l81 176l99 208h131v-651h-130z" />
<glyph unicode="N" horiz-adv-x="653" d="M478 0l-187 280l-98 153h-3v-433h-131v651h124l168 -251l111 -174h3v425h131v-651h-118z" />
<glyph unicode="O" horiz-adv-x="664" d="M331 -11q-71 0 -124.5 25.5t-89.5 70t-54.5 106t-18.5 133.5t18.5 134t55 107t90 70.5t124.5 25.5q67 0 120.5 -24t91 -68.5t57 -106.5t19.5 -137q0 -76 -19.5 -138t-57 -106t-91 -68t-121.5 -24zM331 542q-38 0 -66 -16t-47 -45t-28 -68.5t-9 -86.5t9.5 -86.5t28.5 -69 t47 -46t66 -16.5t66.5 17.5t47 47t28 69t9.5 83.5q0 47 -9.5 87t-28.5 69t-47.5 45t-66.5 16z" />
<glyph unicode="P" horiz-adv-x="578" d="M567 444q0 -54 -17 -94t-48 -66.5t-73.5 -39.5t-93.5 -13h-144v-231h-131v651h282q49 0 90.5 -12.5t71.5 -38.5t46.5 -65t16.5 -91zM191 537v-192h144q45 2 70.5 25t25.5 71q0 50 -29.5 73t-75.5 23h-135z" />
<glyph unicode="Q" horiz-adv-x="667" d="M622 326q0 -82 -24 -147.5t-69 -112.5l45 -65q-23 -14 -45.5 -29.5t-45.5 -30.5l-47 67q-26 -8 -51 -12.5t-52 -4.5q-67 0 -120.5 23.5t-90.5 67t-56.5 105t-19.5 138.5t20 139t57 106t90.5 67.5t120.5 23.5q68 0 121.5 -24t90.5 -67.5t56.5 -105.5t19.5 -138zM487 326 q0 48 -9.5 87.5t-29 68t-48 44.5t-67.5 16q-38 0 -66.5 -16t-47 -44.5t-28 -68t-9.5 -86.5q0 -49 9.5 -89t28 -68.5t46 -45t63.5 -17.5q6 0 17 1t19 4l-39 59l85 60l37 -55q22 32 30.5 69t8.5 81z" />
<glyph unicode="R" horiz-adv-x="614" d="M574 446q0 -75 -33.5 -122t-92.5 -67l120 -257h-139l-105 239h-132v-239h-131v651h289q48 0 89 -12.5t71 -37.5t47 -64t17 -91zM192 537v-185h144q49 0 75.5 23.5t26.5 70.5q0 45 -28 68t-73 23h-145z" />
<glyph unicode="S" horiz-adv-x="572" d="M297 662q69 0 127 -21t104 -60l-76 -96q-38 32 -79.5 46.5t-83.5 14.5q-49 0 -71.5 -20t-22.5 -48q0 -18 10 -30.5t26.5 -21.5t37.5 -16t44 -14q36 -10 77 -23.5t76 -36.5t58 -58.5t23 -90.5q0 -48 -18 -85t-51.5 -62t-80.5 -38t-105 -13q-74 0 -140 25t-112 69l80 94 q39 -35 85.5 -53t90.5 -18q114 0 114 76q0 33 -29.5 51.5t-102.5 38.5q-52 15 -92.5 31t-68 38.5t-42 53.5t-14.5 76t19 80.5t51 60t75 37.5t91 13z" />
<glyph unicode="T" horiz-adv-x="541" d="M339 0h-132v537h-190v114h512v-114h-190v-537z" />
<glyph unicode="U" horiz-adv-x="651" d="M325 -10q-61 0 -110 18t-83 53.5t-52.5 89t-18.5 124.5v376h133v-371q0 -81 33.5 -126t99.5 -45q69 0 101.5 43t32.5 123v376h134v-377q0 -72 -19 -125t-54 -88.5t-85 -53t-112 -17.5z" />
<glyph unicode="V" horiz-adv-x="644" d="M252 0l-232 651h144l109 -327l52 -168h4l51 169l108 326h142l-231 -651h-147z" />
<glyph unicode="W" horiz-adv-x="829" d="M416 452l-19 -86q-23 -94 -44.5 -187.5t-42.5 -178.5h-142q-36 164 -73 325.5t-74 325.5h140q5 -28 10.5 -58t13.5 -71t18.5 -98t26.5 -138l17 -99h4q5 25 10 49.5t10 49.5q21 91 41.5 182t40.5 183h129l84 -369q5 -24 9.5 -47.5t9.5 -47.5h3l17 95q16 85 34 181t36 188 h137l-147 -651h-143q-22 91 -43 181.5t-42 181.5l-19 89h-2z" />
<glyph unicode="X" horiz-adv-x="601" d="M299 231l-132 -231h-148l211 334l-199 317h149l121 -212l122 212h146l-199 -315l210 -336h-148z" />
<glyph unicode="Y" horiz-adv-x="625" d="M378 224v-224h-132v223l-242 428h147l81 -159l81 -159l82 161l80 157h146z" />
<glyph unicode="Z" horiz-adv-x="582" d="M38 107l355 430h-336v114h492v-108l-355 -428h356v-115h-512v107z" />
<glyph unicode="[" horiz-adv-x="352" d="M66 696h241v-105h-116v-607h116v-105h-241v817z" />
<glyph unicode="\" horiz-adv-x="503" d="M384 -77l-388 800h119l387 -800h-118z" />
<glyph unicode="]" horiz-adv-x="356" d="M303 -121h-241v105h116v607h-116v105h241v-817z" />
<glyph unicode="^" horiz-adv-x="555" d="M277 535l-104 -213h-125l184 329h95l182 -329h-125z" />
<glyph unicode="_" horiz-adv-x="500" d="M0 -68h500v-90h-500v90z" />
<glyph unicode="`" horiz-adv-x="506" d="M127 724l125 23l77 -184l-69 -22z" />
<glyph unicode="a" horiz-adv-x="514" d="M336 0v40l-2 1q-32 -30 -69.5 -41t-65.5 -11q-32 0 -62 9t-53 28t-37 49.5t-14 73.5q0 39 15 69t41 50t59.5 30.5t71.5 10.5q30 0 57.5 -4.5t58.5 -18.5v33q0 78 -90 78q-34 0 -66 -8t-65 -24l-35 93q40 20 86 30.5t97 10.5q97 0 147 -43t50 -129v-327h-124zM336 196 q-19 11 -41.5 18.5t-52.5 7.5q-35 0 -58.5 -17.5t-23.5 -50.5q0 -32 20.5 -49.5t57.5 -17.5q25 0 52 13t46 32v64z" />
<glyph unicode="b" horiz-adv-x="541" d="M308 498q37 0 71.5 -13.5t60.5 -43.5t41.5 -78t15.5 -117q0 -64 -16 -112t-42.5 -80t-61.5 -48t-74 -16q-32 0 -63.5 12.5t-57.5 38.5h-3v-41h-126v660l126 50v-262h4q57 50 125 50zM272 392q-28 0 -52 -15.5t-41 -33.5v-195q17 -21 41.5 -37t53.5 -16q42 0 68.5 39 t26.5 110q0 81 -25.5 114.5t-71.5 33.5z" />
<glyph unicode="c" horiz-adv-x="471" d="M44 241q0 59 16 106.5t45 81t71 51.5t95 18q50 0 94 -17.5t81 -59.5l-76 -81q-26 28 -48 39t-50 11q-48 0 -74 -40t-26 -106t25 -106t77 -40q51 0 100 53l77 -77q-72 -84 -182 -84q-52 0 -93.5 17t-71 49.5t-45 79t-15.5 105.5z" />
<glyph unicode="d" horiz-adv-x="541" d="M43 235q0 67 17 116.5t45 82t63.5 48.5t72.5 16q38 0 66 -12.5t51 -34.5h4v208l126 51v-710h-126v42h-3q-29 -28 -61.5 -40t-67.5 -12q-38 0 -71.5 13t-59.5 42.5t-41 76t-15 113.5zM172 235q0 -74 25 -107t69 -33q29 0 53.5 15.5t42.5 36.5v194q-17 20 -41 35.5 t-53 15.5q-46 0 -71 -39.5t-25 -117.5z" />
<glyph unicode="e" horiz-adv-x="523" d="M488 206h-316q5 -55 35 -84t78 -29q29 0 60 11t56 28l55 -81q-43 -34 -87.5 -47.5t-95.5 -13.5q-53 0 -95.5 17.5t-72 50.5t-45.5 80t-16 106q0 58 16.5 105t46.5 80t72 51t93 18q55 0 95.5 -18.5t67.5 -51.5t40 -79.5t13 -102.5v-40zM362 288q-1 46 -22.5 77.5 t-72.5 31.5q-36 0 -63.5 -29t-31.5 -80h190z" />
<glyph unicode="f" horiz-adv-x="343" d="M218 488h100v-96h-100v-392h-127v392h-61v96h61v85q0 69 39.5 101.5t107.5 32.5q9 0 20 -0.5t23 -1.5t23.5 -2.5t19.5 -3.5l-4 -102q-13 1 -21.5 1h-17.5q-29 0 -46 -8.5t-17 -34.5v-67z" />
<glyph unicode="g" horiz-adv-x="542" d="M489 42q0 -46 -12.5 -87t-40.5 -75t-72.5 -59t-108.5 -38l-39 102q51 15 80.5 33t44.5 36.5t19 36t4 32.5v25h-4q-32 -29 -62 -40t-68 -11q-36 0 -70 13.5t-59.5 42.5t-41 76t-15.5 113q0 64 15.5 112t42 79.5t61 47t73.5 15.5q73 0 123 -50q1 0 1.5 0.5t1.5 0.5v41h127 v-446zM362 340q-17 20 -41.5 36t-53.5 16q-42 0 -68.5 -37.5t-26.5 -107.5q0 -79 25 -112.5t72 -33.5q28 0 52 15.5t41 34.5v189z" />
<glyph unicode="h" horiz-adv-x="535" d="M486 0h-126v281q0 22 -5 41.5t-15.5 34.5t-26.5 23.5t-38 8.5q-34 0 -57.5 -19t-32.5 -51q-5 -20 -5 -44v-275h-127v660l127 49v-270h3q27 29 63 44t71 15q89 0 129 -52.5t40 -141.5v-304z" />
<glyph unicode="i" horiz-adv-x="270" d="M73 488h126v-488h-126v488zM61 622q0 31 21.5 53t53.5 22q30 0 52 -22t22 -53q0 -30 -22 -52t-52 -22q-32 0 -53.5 22t-21.5 52z" />
<glyph unicode="j" horiz-adv-x="271" d="M204 -14q0 -50 -11 -87.5t-37 -62.5t-68 -37t-104 -12l-8 102q34 6 54.5 13.5t31 19.5t13.5 29.5t3 43.5v493h126v-502zM66 622q0 31 22 53t53 22q30 0 52 -22t22 -53q0 -30 -22 -52t-52 -22q-31 0 -53 22t-22 52z" />
<glyph unicode="k" horiz-adv-x="509" d="M357 0l-102 229l-76 -92v-137h-126v660l126 49v-407h2q4 4 11.5 14t16 21t15 20t8.5 11l95 119h150l-135 -159l156 -328h-141z" />
<glyph unicode="l" horiz-adv-x="248" d="M61 0v660l126 51v-711h-126z" />
<glyph unicode="m" horiz-adv-x="807" d="M342 0v282q0 51 -15.5 79.5t-60.5 28.5q-31 0 -51.5 -19t-28.5 -48q-6 -20 -6 -47v-276h-127v488h127v-52h3q26 31 60 46.5t68 15.5q51 0 82.5 -20t48.5 -54q41 43 81 58.5t75 15.5q43 0 73.5 -13.5t50 -39t28 -61t8.5 -80.5v-304h-127v282q0 51 -15.5 79.5t-60.5 28.5 q-30 0 -50.5 -17.5t-28.5 -46.5q-7 -17 -7 -45v-281h-127z" />
<glyph unicode="n" horiz-adv-x="535" d="M486 0h-127v281q0 52 -20 80t-65 28q-34 0 -57.5 -19t-31.5 -51q-2 -9 -4 -20.5t-2 -23.5v-275h-126v488h126v-52h4q26 30 62.5 46t70.5 16q90 0 130 -52.5t40 -141.5v-304z" />
<glyph unicode="o" horiz-adv-x="553" d="M275 -11q-53 0 -95.5 18t-72.5 51t-46.5 80t-16.5 105q0 60 17 107.5t48 80t74 50t94 17.5t94 -17.5t73.5 -50.5t47.5 -80t17 -105q0 -60 -17.5 -107.5t-48.5 -80.5t-74 -50.5t-94 -17.5zM274 393q-50 0 -76 -42t-26 -106q0 -72 27 -111.5t78 -39.5q25 0 44.5 11.5 t32.5 32t20 47.5t7 58q0 67 -27 108.5t-80 41.5z" />
<glyph unicode="p" horiz-adv-x="543" d="M498 244q0 -67 -17.5 -115t-45.5 -78.5t-63.5 -45t-71.5 -14.5q-38 0 -66.5 11.5t-51.5 34.5h-3v-192q-32 -12 -63 -24.5t-63 -25.5v693h126v-42h3q28 26 61 39t67 13q38 0 72 -14.5t60 -45t41 -79t15 -115.5zM369 246q-1 75 -26 111t-69 36q-29 0 -53.5 -15.5 t-41.5 -36.5v-194q17 -21 41 -36t52 -15q47 0 72 36t25 114z" />
<glyph unicode="q" horiz-adv-x="540" d="M238 498q34 0 65.5 -13t56.5 -39h3v42h125v-643l-126 -49v244h-3q-59 -50 -127 -50q-38 0 -72 13.5t-60 43.5t-41 77t-15 115q0 65 15.5 113.5t42.5 81t62 48.5t74 16zM267 393q-42 0 -68 -39t-26 -110q0 -81 25 -114.5t71 -33.5q28 0 52 15.5t41 33.5v195 q-17 21 -41.5 37t-53.5 16z" />
<glyph unicode="r" horiz-adv-x="394" d="M391 484q-5 -30 -11.5 -60.5t-11.5 -60.5q-43 8 -74 8q-51 0 -78 -24t-27 -86v-261h-127v488h127v-61h2q23 37 57 54t72 17q35 0 71 -14z" />
<glyph unicode="s" horiz-adv-x="475" d="M436 138q0 -36 -15 -64t-42 -46.5t-64 -28.5t-81 -10q-51 0 -102 14.5t-95 39.5l43 90q41 -23 80.5 -34t71.5 -11q30 0 53.5 10.5t23.5 35.5q0 28 -23.5 41t-65.5 26q-83 25 -125 58.5t-42 94.5q0 65 51 104.5t141 39.5q96 0 178 -43l-40 -92q-42 23 -77 29.5t-58 6.5 q-31 0 -50 -12.5t-19 -28.5q0 -18 16.5 -31t59.5 -25q42 -12 75.5 -25.5t57 -32.5t36 -45t12.5 -61z" />
<glyph unicode="t" horiz-adv-x="375" d="M222 488h102v-97h-102v-226q0 -35 12 -48.5t44 -13.5q12 0 26.5 1.5t33.5 3.5l10 -98q-26 -8 -57.5 -14t-59.5 -6q-62 0 -97.5 32t-35.5 106v263h-73v97h75v113l122 48v-161z" />
<glyph unicode="u" horiz-adv-x="533" d="M51 488h127v-282q0 -46 20 -72.5t62 -26.5q31 0 54.5 13.5t33.5 47.5q5 20 5 44v276h127v-488h-127v51h-3q-29 -32 -63.5 -46.5t-68.5 -14.5q-87 0 -127 47.5t-40 137.5v313z" />
<glyph unicode="v" horiz-adv-x="508" d="M186 0l-179 488h130l77 -237l38 -123h4l37 125l76 235h128l-177 -488h-134z" />
<glyph unicode="w" horiz-adv-x="703" d="M346 324l-21 -88l-61 -236h-123l-134 488h128l47 -207l24 -123h4l29 123l52 207h118l55 -217l25 -115h3l24 119l49 213h128l-138 -488h-125l-60 233l-22 91h-2z" />
<glyph unicode="x" horiz-adv-x="476" d="M322 0l-90 162q-22 -40 -43.5 -81t-44.5 -81h-136l156 252q-35 59 -71.5 118t-72.5 118h140q20 -36 38.5 -73t37.5 -73l78 146h138l-145 -233l157 -255h-142z" />
<glyph unicode="y" horiz-adv-x="513" d="M133 -191l64 176l-188 503h131l73 -218l41 -138h4l44 138l74 218h126l-248 -679h-121z" />
<glyph unicode="z" horiz-adv-x="480" d="M437 488v-96l-255 -291l1 -2h258v-99h-406v97q63 72 125 144t125 145v1l-1 1h-234v100h387z" />
<glyph unicode="{" horiz-adv-x="368" d="M263 -119q-47 0 -76.5 13t-46 36t-23 54.5t-6.5 68.5v95q0 18 -2.5 35.5t-9.5 31.5t-19.5 23t-31.5 11v80q20 1 32.5 10t19 23t9 32t2.5 37v113q0 67 35 109.5t118 42.5h65v-98h-42q-30 0 -42 -19t-12 -59v-90q0 -51 -18.5 -88t-56.5 -51v-3q38 -14 56.5 -50t18.5 -90 v-93q0 -39 12 -57.5t42 -18.5h42v-98h-66z" />
<glyph unicode="|" horiz-adv-x="288" d="M91 -123v871h116v-871h-116z" />
<glyph unicode="}" horiz-adv-x="368" d="M52 -119v98h42q30 0 41.5 18.5t11.5 57.5v93q0 54 19 90t57 50v3q-38 14 -57 51t-19 88v90q0 42 -12 60t-41 18h-42v98h54q46 0 77.5 -11t50.5 -30.5t27 -48t8 -62.5v-123q0 -17 3 -33t10.5 -28.5t20 -21t30.5 -9.5v-80q-20 -2 -32 -11t-19.5 -23.5t-10 -31.5t-2.5 -35 v-128q-3 -62 -37.5 -100.5t-114.5 -38.5h-65z" />
<glyph unicode="~" horiz-adv-x="640" d="M422 246q-23 0 -49 9t-52 20t-51 20t-46 9q-26 0 -45.5 -13.5t-42.5 -43.5l-70 35q14 35 33 58.5t40.5 38t43.5 20.5t43 6q28 0 56 -8.5t55 -19t51 -19t43 -8.5q24 0 44 13t42 42l65 -40q-28 -64 -68.5 -91.5t-91.5 -27.5z" />
<glyph unicode="&#xa1;" horiz-adv-x="296" d="M197 276l21 -239v-211h-130v210l21 240h88zM153 487q31 0 52 -21t21 -53q0 -35 -21.5 -55t-51.5 -20q-29 0 -51.5 19t-22.5 55q0 32 21 53.5t53 21.5z" />
<glyph unicode="&#xa2;" horiz-adv-x="640" d="M110 243q0 107 49 172.5t137 79.5v106h75v-105q83 -9 142 -77l-76 -80q-26 28 -48.5 40t-50.5 12q-48 0 -74 -39.5t-26 -104.5t25.5 -107t77.5 -42q29 0 53 13.5t50 41.5l75 -76q-58 -72 -148 -84v-108h-75v108q-86 12 -136 78t-50 172z" />
<glyph unicode="&#xa3;" horiz-adv-x="640" d="M341 661q45 0 80 -8t62.5 -23.5t49.5 -38.5t42 -53q-26 -17 -51 -34.5t-50 -35.5q-25 41 -54 60.5t-74 19.5q-19 0 -37 -6t-32 -17t-22.5 -27t-8.5 -36q0 -26 10 -55.5t17 -57.5h154v-94h-142v-2q0 -77 -56 -144h333v-109h-483v101q19 18 33 35t24 35t16 38t8 45h-81v94 h67q-11 32 -20 63t-9 65q0 36 15.5 69.5t44.5 59t70.5 41t93.5 15.5z" />
<glyph unicode="&#xa4;" horiz-adv-x="640" d="M46 482l68 69q34 -33 67 -67q53 31 112 31q30 0 58 -7.5t54 -24.5q17 17 33.5 34t32.5 34l69 -69l-33.5 -33.5l-33.5 -33.5q31 -51 31 -110q0 -29 -8.5 -57t-23.5 -54l68 -66l-69 -69l-66 67q-52 -32 -112 -32t-112 32l-67 -67l-68 69l68 66q-32 52 -32 111q0 29 8 57 t24 53zM179 305q0 -24 9 -44.5t24.5 -36t36 -24.5t43.5 -9t44 9t36.5 24.5t24.5 36t9 44.5q0 23 -9 44t-24 36.5t-36 24.5t-45 9q-23 0 -43.5 -9t-36 -24.5t-24.5 -36.5t-9 -44z" />
<glyph unicode="&#xa5;" horiz-adv-x="640" d="M68 298h153l-27 51h-126v80h83l-118 222h148l142 -309l142 309h145l-119 -222h87v-80h-130l-28 -51h158v-80h-191v-218h-132v218h-187v80z" />
<glyph unicode="&#xa6;" horiz-adv-x="274" d="M85 300v448h115v-448h-115zM85 -221v448h115v-448h-115z" />
<glyph unicode="&#xa7;" horiz-adv-x="572" d="M249 302q-16 -7 -25.5 -17t-9.5 -21q0 -20 20 -34t66 -29q41 -14 78 -28.5t65.5 -33.5t45.5 -44.5t17 -60.5t-17.5 -62t-47.5 -46t-70.5 -28.5t-86.5 -9.5q-52 0 -106.5 14.5t-99.5 40.5l43 85q19 -11 41 -19.5t44 -14.5t43.5 -9t40.5 -3q17 0 33.5 3t29 9t20 14.5 t7.5 20.5q0 13 -8.5 23t-24 18t-36.5 15.5t-46 15.5q-36 12 -68 27t-55 33.5t-36.5 42t-13.5 53.5q0 46 31.5 81.5t89.5 51.5zM334 296q17 7 27 17t10 27q0 28 -29 42.5t-76 29.5q-37 12 -68.5 25.5t-55 31.5t-36.5 41t-13 55q0 64 52.5 103.5t149.5 39.5q49 0 94.5 -11.5 t88.5 -33.5q-11 -22 -20 -43.5t-20 -43.5q-41 22 -77 29.5t-61 9.5q-45 0 -66.5 -11.5t-21.5 -31.5q0 -21 20.5 -34t69.5 -30h-1q42 -14 77 -28.5t60.5 -32.5t40 -42t14.5 -58q0 -49 -33 -84.5t-88 -52.5z" />
<glyph unicode="&#xa8;" horiz-adv-x="504" d="M367 558q-28 0 -47.5 19.5t-19.5 45.5q0 27 19.5 46.5t47.5 19.5q26 0 45 -19.5t19 -46.5q0 -26 -19 -45.5t-45 -19.5zM155 558q-27 0 -47 19.5t-20 45.5q0 27 20 46.5t47 19.5q26 0 46 -19.5t20 -46.5q0 -26 -20 -45.5t-46 -19.5z" />
<glyph unicode="&#xa9;" horiz-adv-x="794" d="M399 -13q-72 0 -134.5 26.5t-108 72.5t-71.5 109t-26 136t26 136t71.5 109t108 72.5t134.5 26.5t134 -26.5t108 -72.5t72 -109t26 -136t-26 -136t-72 -109t-108 -72.5t-134 -26.5zM399 604q-57 0 -106 -21t-85 -57.5t-56.5 -86.5t-20.5 -108t20.5 -108t56.5 -86.5 t85 -57.5t106 -21t106 21t84.5 57.5t56 86.5t20.5 108t-20.5 108t-56 86.5t-84.5 57.5t-106 21zM226 327q0 46 12.5 84t35.5 65.5t56 42.5t75 15q55 0 88.5 -21t55.5 -57l-68 -45q-17 25 -34 36t-42 11q-47 0 -69.5 -37t-22.5 -95q0 -56 22.5 -94t69.5 -38q26 0 45 11.5 t36 37.5l67 -46q-23 -34 -58.5 -56.5t-89.5 -22.5q-42 0 -75.5 15t-56.5 43t-35 66t-12 85z" />
<glyph unicode="&#xaa;" horiz-adv-x="359" d="M187 580q79 0 110 -34.5t31 -103.5v-194h-98v24q-19 -14 -38.5 -21t-39.5 -9q-26 0 -49 5t-40 17t-27.5 31.5t-10.5 49.5q0 28 10.5 48t28.5 33t41.5 19.5t49.5 6.5q21 0 38.5 -3.5t36.5 -10.5v19q0 20 -12.5 33t-41.5 13q-23 0 -45.5 -6t-48.5 -17l-27 70q29 14 62.5 22 t69.5 8zM230 375q-12 6 -26 10t-34 4q-21 0 -36 -10t-15 -29q0 -17 13.5 -28.5t35.5 -11.5q15 0 32.5 8t29.5 19v38z" />
<glyph unicode="&#xab;" horiz-adv-x="553" d="M258 245l142 206h115l-139 -206l139 -205h-115zM48 245l142 206h115l-140 -206l140 -205h-115z" />
<glyph unicode="&#xac;" horiz-adv-x="640" d="M536 109h-118v158h-315v107h433v-265z" />
<glyph unicode="&#xad;" horiz-adv-x="384" d="M55 362h271v-114h-271v114z" />
<glyph unicode="&#xae;" horiz-adv-x="532" d="M264 259q-44 0 -82 16t-66 43.5t-44 65.5t-16 83t16 83t44 65.5t66 43.5t82 16t82 -16t66 -43.5t44 -65.5t16 -83t-16 -83t-44 -65.5t-66 -43.5t-82 -16zM264 630q-34 0 -63.5 -12.5t-51 -34t-33.5 -51.5t-12 -65t12 -64.5t33.5 -51.5t51 -34.5t63.5 -12.5t63 12.5 t50.5 34.5t33.5 51.5t12 64.5q0 34 -12 64t-33.5 52t-50.5 34.5t-63 12.5zM271 434h-38v-83h-54v235h102q35 0 58.5 -19t23.5 -57q0 -25 -11.5 -42.5t-30.5 -25.5l45 -91h-57zM233 538v-57h43q32 0 32 29q0 14 -9 21t-23 7h-43z" />
<glyph unicode="&#xaf;" horiz-adv-x="483" d="M127 671h269v-90h-269v90z" />
<glyph unicode="&#xb0;" horiz-adv-x="435" d="M216 357q-33 0 -61 11.5t-49 32t-33 49t-12 62.5q0 33 12 61t33 49t49 32.5t61 11.5t61 -11.5t48.5 -32.5t32.5 -49t12 -61q0 -34 -12 -62.5t-32.5 -49t-48.5 -32t-61 -11.5zM216 593q-33 0 -55.5 -23t-22.5 -58t22.5 -58.5t55.5 -23.5q34 0 56 23.5t22 58.5t-22 58 t-56 23z" />
<glyph unicode="&#xb1;" horiz-adv-x="640" d="M375 379v-159h-115v159h-163v104h163v164h115v-164h164v-104h-164zM96 81v99h439v-99h-439z" />
<glyph unicode="&#xb2;" horiz-adv-x="425" d="M36 335q2 49 18.5 85.5t41 64t55.5 48t63 38.5q33 19 44 30t11 25q0 16 -14.5 25.5t-43.5 9.5q-53 0 -112 -43l-54 66q38 32 82.5 48t91.5 16q69 0 112.5 -29.5t43.5 -84.5q0 -42 -28.5 -71t-85.5 -60q-43 -23 -65.5 -42t-32.5 -39h214v-87h-341z" />
<glyph unicode="&#xb3;" horiz-adv-x="425" d="M93 461q27 -26 55.5 -36t54.5 -10q36 0 55 13t19 35q0 21 -17 32.5t-43 11.5h-51v76h50q23 0 37.5 11.5t14.5 28.5q0 14 -13.5 26t-48.5 12q-47 0 -99 -37l-52 65q34 29 76 43.5t87 14.5q73 0 113.5 -31t40.5 -82q0 -26 -14.5 -49t-43.5 -36q35 -14 51 -39.5t16 -48.5 q0 -33 -14.5 -58t-39 -41.5t-57 -25t-68.5 -8.5q-48 0 -92 17.5t-76 49.5z" />
<glyph unicode="&#xb4;" horiz-adv-x="504" d="M255 541l-68 22l77 186l125 -23z" />
<glyph unicode="&#xb6;" horiz-adv-x="531" d="M481 -5q0 -48 -10.5 -85t-35 -62t-65 -38t-101.5 -14l-7 88q41 5 65.5 15t37 25.5t16.5 36t4 47.5v640h96v-653zM224 262q-42 0 -77.5 15t-61 41t-39.5 61t-14 75t14.5 75t40 61.5t61 42t76.5 15.5h91v-386h-91z" />
<glyph unicode="&#xb7;" horiz-adv-x="274" d="M137 240q-32 0 -54.5 22.5t-22.5 55.5q0 38 24.5 58.5t53.5 20.5q33 0 54.5 -23t21.5 -55q0 -33 -22.5 -56t-54.5 -23z" />
<glyph unicode="&#xb8;" horiz-adv-x="580" d="M342 35l-24 -75q32 -2 52.5 -11t32.5 -21.5t17 -27t5 -26.5q0 -15 -5.5 -31.5t-20 -30.5t-38 -23t-58.5 -9q-21 0 -46 4.5t-52 15.5l19 54q21 -8 38 -11.5t32 -3.5q20 0 33.5 9t13.5 25q0 17 -12.5 25.5t-31.5 8.5q-5 0 -15 -2l-28 26l35 110z" />
<glyph unicode="&#xb9;" horiz-adv-x="363" d="M139 335v289h-56v70q33 3 48 14.5t22 33.5h90v-407h-104z" />
<glyph unicode="&#xba;" horiz-adv-x="381" d="M188 241q-36 0 -66 12t-51.5 34t-33.5 53.5t-12 70.5q0 40 12 71t34 53t52 33.5t66 11.5q74 0 120 -45t46 -123q0 -81 -46.5 -126t-120.5 -45zM188 499q-30 0 -45.5 -24.5t-15.5 -62.5q0 -42 17 -65.5t46 -23.5q30 0 46 25.5t16 62.5q0 39 -16 63.5t-48 24.5z" />
<glyph unicode="&#xbb;" horiz-adv-x="553" d="M163 40h-115l140 205l-140 206h116l142 -206zM373 40h-115l140 205l-139 206h115l142 -206z" />
<glyph unicode="&#xbc;" horiz-adv-x="925" d="M158 244v289h-56v70q33 3 48 14.5t22 33.5h90v-407h-104zM155 -21l426 696h100l-426 -696h-100zM767 0h-99v82h-230v76l229 249h100v-244h55v-81h-55v-82zM558 163h110v117z" />
<glyph unicode="&#xbd;" horiz-adv-x="925" d="M143 244v289h-56v70q33 3 48 14.5t22 33.5h90v-407h-104zM134 -21l426 696h100l-426 -696h-100zM496 0q2 49 18.5 85t41 63.5t55.5 48t63 38.5q33 19 44 30t11 25q0 16 -14.5 26t-43.5 10q-51 0 -112 -44l-54 66q38 32 82.5 48t91.5 16q69 0 112.5 -29.5t43.5 -84.5 q0 -42 -28.5 -71t-85.5 -60q-43 -23 -65.5 -42t-32.5 -39h214v-86h-341z" />
<glyph unicode="&#xbe;" horiz-adv-x="925" d="M93 371q27 -26 55.5 -36t54.5 -10q36 0 55 13t19 35q0 21 -17 32.5t-43 11.5h-51v76h50q23 0 37.5 11.5t14.5 28.5q0 14 -13.5 26t-48.5 12q-47 0 -99 -37l-52 65q34 29 76 43.5t87 14.5q73 0 113.5 -31t40.5 -82q0 -26 -14.5 -49t-43.5 -36q35 -14 51 -39.5t16 -48.5 q0 -33 -14.5 -58t-39 -41.5t-57 -25t-68.5 -8.5q-48 0 -92 17.5t-76 49.5zM836 0h-99v82h-230v76l229 249h100v-244h55v-81h-55v-82zM627 163h110v117zM231 -21l426 696h100l-426 -696h-100z" />
<glyph unicode="&#xbf;" horiz-adv-x="516" d="M37 -3q0 44 19.5 76t41.5 54q17 18 33 33.5t29 32.5t21 38t10 48h123q-1 -55 -16 -88.5t-44 -64.5l-26.5 -26.5t-28 -30t-22.5 -32t-9 -34.5q0 -12 5 -25t16 -24t28 -18.5t42 -7.5q29 0 47 12t28 28.5t14 34.5t5 31h126q-2 -53 -21 -93.5t-50.5 -68.5t-72 -42t-85.5 -14 q-47 0 -86 14t-67 38t-44 57t-16 72zM327 412q0 -20 -7 -34.5t-18 -23.5t-24.5 -13t-26.5 -4q-32 0 -51.5 21.5t-19.5 52.5q0 32 21 53.5t52 21.5q32 0 53 -21t21 -53z" />
<glyph unicode="&#xc0;" horiz-adv-x="668" d="M470 138h-268l-48 -138h-138l247 651h150l248 -651h-142zM335 519q-3 -10 -9 -28t-12.5 -36.5t-12 -35.5t-8.5 -25l-54 -150h194l-59 168q-3 8 -7.5 22t-10 29.5t-10.5 30.5t-8 25h-3zM144 771l95 83l154 -116l-47 -54z" />
<glyph unicode="&#xc1;" horiz-adv-x="668" d="M470 138h-268l-48 -138h-138l247 651h150l248 -651h-142zM335 519q-3 -10 -9 -28t-12.5 -36.5t-12 -35.5t-8.5 -25l-54 -150h194l-59 168q-3 8 -7.5 22t-10 29.5t-10.5 30.5t-8 25h-3zM329 684l-47 54l153 116l96 -83z" />
<glyph unicode="&#xc2;" horiz-adv-x="668" d="M470 138h-268l-48 -138h-138l247 651h150l248 -651h-142zM335 519q-3 -10 -9 -28t-12.5 -36.5t-12 -35.5t-8.5 -25l-54 -150h194l-59 168q-3 8 -7.5 22t-10 29.5t-10.5 30.5t-8 25h-3zM336 769l-140 -90l-50 42l143 137h99l142 -137l-50 -43z" />
<glyph unicode="&#xc3;" horiz-adv-x="668" d="M470 138h-268l-48 -138h-138l247 651h150l248 -651h-142zM335 519q-3 -10 -9 -28t-12.5 -36.5t-12 -35.5t-8.5 -25l-54 -150h194l-59 168q-3 8 -7.5 22t-10 29.5t-10.5 30.5t-8 25h-3zM410 700q-17 0 -36.5 7.5t-39 16.5t-38.5 16.5t-34 7.5q-17 0 -32 -9t-34 -38l-54 23 q10 33 24.5 55.5t31 35.5t33.5 18.5t33 5.5q18 0 38.5 -7.5t40.5 -17t38.5 -17t33.5 -7.5q18 0 31.5 9t31.5 33l52 -25q-22 -60 -53 -83.5t-67 -23.5z" />
<glyph unicode="&#xc4;" horiz-adv-x="668" d="M470 138h-268l-48 -138h-138l247 651h150l248 -651h-142zM335 519q-3 -10 -9 -28t-12.5 -36.5t-12 -35.5t-8.5 -25l-54 -150h194l-59 168q-3 8 -7.5 22t-10 29.5t-10.5 30.5t-8 25h-3zM443 701q-28 0 -47.5 19.5t-19.5 45.5q0 27 19.5 46.5t47.5 19.5q26 0 45 -19.5 t19 -46.5q0 -26 -19 -45.5t-45 -19.5zM231 701q-27 0 -47 19.5t-20 45.5q0 27 20 46.5t47 19.5q26 0 46 -19.5t20 -46.5q0 -26 -20 -45.5t-46 -19.5z" />
<glyph unicode="&#xc5;" horiz-adv-x="668" d="M470 138h-268l-48 -138h-138l247 651h150l248 -651h-142zM335 519q-3 -10 -9 -28t-12.5 -36.5t-12 -35.5t-8.5 -25l-54 -150h194l-59 168q-3 8 -7.5 22t-10 29.5t-10.5 30.5t-8 25h-3zM336 670q-23 0 -43 8t-35 22t-23.5 34t-8.5 44q0 23 8.5 42.5t23.5 34t35 23t43 8.5 t43 -8.5t35 -23t23.5 -34t8.5 -42.5q0 -47 -31.5 -77.5t-78.5 -30.5zM336 826q-20 0 -33 -14t-13 -33q0 -22 13 -35.5t33 -13.5t33 13.5t13 35.5q0 20 -12.5 33.5t-33.5 13.5z" />
<glyph unicode="&#xc6;" horiz-adv-x="930" d="M445 152h-208q-22 -38 -43 -76t-43 -76h-145l367 651h525v-115h-314v-138h216v-114h-216v-169h325v-115h-464v152zM294 258h151v278z" />
<glyph unicode="&#xc7;" horiz-adv-x="585" d="M44 328q0 76 20.5 138t58 105.5t91 67t120.5 23.5q78 0 132.5 -28t92.5 -76l-95 -85q-31 37 -63 52.5t-68 15.5q-37 0 -65 -16t-47.5 -44.5t-29.5 -67.5t-10 -86q0 -46 9.5 -85.5t29 -69t48.5 -46.5t67 -17q36 0 70 17.5t66 55.5l94 -81q-37 -47 -90 -78.5t-132 -33.5 l-9 -29q32 -2 52.5 -11t32.5 -21.5t17 -27t5 -26.5q0 -15 -5.5 -31.5t-20 -30.5t-38 -23t-58.5 -9q-21 0 -46 4.5t-52 15.5l19 54q21 -8 38 -11.5t32 -3.5q20 0 33.5 9t13.5 25q0 17 -12.5 25.5t-31.5 8.5q-5 0 -15 -2l-28 26l19 61q-56 7 -101.5 33.5t-77.5 69.5t-49 102 t-17 131z" />
<glyph unicode="&#xc8;" horiz-adv-x="549" d="M61 651h459v-114h-327v-138h229v-115h-229v-169h338v-115h-470v651zM144 771l95 83l154 -116l-47 -54z" />
<glyph unicode="&#xc9;" horiz-adv-x="549" d="M61 651h459v-114h-327v-138h229v-115h-229v-169h338v-115h-470v651zM262 684l-47 54l153 116l96 -83z" />
<glyph unicode="&#xca;" horiz-adv-x="549" d="M61 651h459v-114h-327v-138h229v-115h-229v-169h338v-115h-470v651zM294 769l-140 -90l-50 42l143 137h99l142 -137l-50 -43z" />
<glyph unicode="&#xcb;" horiz-adv-x="549" d="M61 651h459v-114h-327v-138h229v-115h-229v-169h338v-115h-470v651zM404 701q-28 0 -47.5 19.5t-19.5 45.5q0 27 19.5 46.5t47.5 19.5q26 0 45 -19.5t19 -46.5q0 -26 -19 -45.5t-45 -19.5zM192 701q-27 0 -47 19.5t-20 45.5q0 27 20 46.5t47 19.5q26 0 46 -19.5t20 -46.5 q0 -26 -20 -45.5t-46 -19.5z" />
<glyph unicode="&#xcc;" horiz-adv-x="280" d="M73 651h134v-651h-134v651zM-44 771l95 83l154 -116l-47 -54z" />
<glyph unicode="&#xcd;" horiz-adv-x="280" d="M73 651h134v-651h-134v651zM140 684l-47 54l153 116l96 -83z" />
<glyph unicode="&#xce;" horiz-adv-x="280" d="M73 651h134v-651h-134v651zM140 769l-140 -90l-50 42l143 137h99l142 -137l-50 -43z" />
<glyph unicode="&#xcf;" horiz-adv-x="280" d="M73 651h134v-651h-134v651zM249 700q-28 0 -47.5 19.5t-19.5 45.5q0 27 19.5 46.5t47.5 19.5q26 0 45 -19.5t19 -46.5q0 -26 -19 -45.5t-45 -19.5zM37 700q-27 0 -47 19.5t-20 45.5q0 27 20 46.5t47 19.5q26 0 46 -19.5t20 -46.5q0 -26 -20 -45.5t-46 -19.5z" />
<glyph unicode="&#xd0;" horiz-adv-x="644" d="M65 0v288h-60v75h60v288h200q68 0 128 -17.5t105 -56.5t71 -101t26 -150t-26.5 -150t-72 -101t-106.5 -57t-130 -18h-195zM198 536v-173h94v-75h-94v-173h57q102 0 153 54t51 156q0 101 -51 156t-154 55h-56z" />
<glyph unicode="&#xd1;" horiz-adv-x="653" d="M478 0l-187 280l-98 153h-3v-433h-131v651h124l168 -251l111 -174h3v425h131v-651h-118zM403 699q-17 0 -36.5 7.5t-39 16.5t-38.5 16.5t-34 7.5q-17 0 -32 -9t-34 -38l-54 23q10 33 24.5 55.5t31 35.5t33.5 18.5t33 5.5q18 0 38.5 -7.5t40.5 -17t38.5 -17t33.5 -7.5 q18 0 31.5 9t31.5 33l52 -25q-22 -60 -53 -83.5t-67 -23.5z" />
<glyph unicode="&#xd2;" horiz-adv-x="664" d="M331 -11q-71 0 -124.5 25.5t-89.5 70t-54.5 106t-18.5 133.5t18.5 134t55 107t90 70.5t124.5 25.5q67 0 120.5 -24t91 -68.5t57 -106.5t19.5 -137q0 -76 -19.5 -138t-57 -106t-91 -68t-121.5 -24zM331 542q-38 0 -66 -16t-47 -45t-28 -68.5t-9 -86.5t9.5 -86.5t28.5 -69 t47 -46t66 -16.5t66.5 17.5t47 47t28 69t9.5 83.5q0 47 -9.5 87t-28.5 69t-47.5 45t-66.5 16zM150 771l95 83l154 -116l-47 -54z" />
<glyph unicode="&#xd3;" horiz-adv-x="664" d="M331 -11q-71 0 -124.5 25.5t-89.5 70t-54.5 106t-18.5 133.5t18.5 134t55 107t90 70.5t124.5 25.5q67 0 120.5 -24t91 -68.5t57 -106.5t19.5 -137q0 -76 -19.5 -138t-57 -106t-91 -68t-121.5 -24zM331 542q-38 0 -66 -16t-47 -45t-28 -68.5t-9 -86.5t9.5 -86.5t28.5 -69 t47 -46t66 -16.5t66.5 17.5t47 47t28 69t9.5 83.5q0 47 -9.5 87t-28.5 69t-47.5 45t-66.5 16zM308 684l-47 54l153 116l96 -83z" />
<glyph unicode="&#xd4;" horiz-adv-x="664" d="M331 -11q-71 0 -124.5 25.5t-89.5 70t-54.5 106t-18.5 133.5t18.5 134t55 107t90 70.5t124.5 25.5q67 0 120.5 -24t91 -68.5t57 -106.5t19.5 -137q0 -76 -19.5 -138t-57 -106t-91 -68t-121.5 -24zM331 542q-38 0 -66 -16t-47 -45t-28 -68.5t-9 -86.5t9.5 -86.5t28.5 -69 t47 -46t66 -16.5t66.5 17.5t47 47t28 69t9.5 83.5q0 47 -9.5 87t-28.5 69t-47.5 45t-66.5 16zM331 769l-140 -90l-50 42l143 137h99l142 -137l-50 -43z" />
<glyph unicode="&#xd5;" horiz-adv-x="664" d="M331 -11q-71 0 -124.5 25.5t-89.5 70t-54.5 106t-18.5 133.5t18.5 134t55 107t90 70.5t124.5 25.5q67 0 120.5 -24t91 -68.5t57 -106.5t19.5 -137q0 -76 -19.5 -138t-57 -106t-91 -68t-121.5 -24zM331 542q-38 0 -66 -16t-47 -45t-28 -68.5t-9 -86.5t9.5 -86.5t28.5 -69 t47 -46t66 -16.5t66.5 17.5t47 47t28 69t9.5 83.5q0 47 -9.5 87t-28.5 69t-47.5 45t-66.5 16zM409 702q-17 0 -36.5 7.5t-39 16.5t-38.5 16.5t-34 7.5q-17 0 -32 -9t-34 -38l-54 23q10 33 24.5 55.5t31 35.5t33.5 18.5t33 5.5q18 0 38.5 -7.5t40.5 -17t38.5 -17t33.5 -7.5 q18 0 31.5 9t31.5 33l52 -25q-22 -60 -53 -83.5t-67 -23.5z" />
<glyph unicode="&#xd6;" horiz-adv-x="664" d="M331 -11q-71 0 -124.5 25.5t-89.5 70t-54.5 106t-18.5 133.5t18.5 134t55 107t90 70.5t124.5 25.5q67 0 120.5 -24t91 -68.5t57 -106.5t19.5 -137q0 -76 -19.5 -138t-57 -106t-91 -68t-121.5 -24zM331 542q-38 0 -66 -16t-47 -45t-28 -68.5t-9 -86.5t9.5 -86.5t28.5 -69 t47 -46t66 -16.5t66.5 17.5t47 47t28 69t9.5 83.5q0 47 -9.5 87t-28.5 69t-47.5 45t-66.5 16zM438 698q-28 0 -47.5 19.5t-19.5 45.5q0 27 19.5 46.5t47.5 19.5q26 0 45 -19.5t19 -46.5q0 -26 -19 -45.5t-45 -19.5zM226 698q-27 0 -47 19.5t-20 45.5q0 27 20 46.5t47 19.5 q26 0 46 -19.5t20 -46.5q0 -26 -20 -45.5t-46 -19.5z" />
<glyph unicode="&#xd7;" horiz-adv-x="640" d="M243 312l-139 140l79 77l138 -139l137 137l15.5 -15.5t22.5 -22t22.5 -22l15.5 -15.5l-138 -137l136 -136l-76 -79l-137 137l-137 -138l-76 76z" />
<glyph unicode="&#xd8;" horiz-adv-x="664" d="M331 -11q-110 0 -181 62l-55 -69l-44 35l60 75q-33 45 -50 104t-17 128q0 72 18.5 134t55 107t90 70.5t124.5 25.5q54 0 99.5 -16t80.5 -46l58 73l46 -37l-63 -79q32 -44 49.5 -102t17.5 -129q0 -76 -19.5 -138t-57 -106t-91 -68t-121.5 -24zM331 542q-38 0 -66 -16 t-47 -45t-28 -68.5t-9 -86.5q0 -34 4.5 -64t15.5 -56l231 292q-39 44 -101 44zM483 325q0 68 -20 119l-232 -291q19 -21 44 -33t57 -12q38 0 66.5 17.5t47 47t28 69t9.5 83.5z" />
<glyph unicode="&#xd9;" horiz-adv-x="651" d="M325 -10q-61 0 -110 18t-83 53.5t-52.5 89t-18.5 124.5v376h133v-371q0 -81 33.5 -126t99.5 -45q69 0 101.5 43t32.5 123v376h134v-377q0 -72 -19 -125t-54 -88.5t-85 -53t-112 -17.5zM158 771l95 83l154 -116l-47 -54z" />
<glyph unicode="&#xda;" horiz-adv-x="651" d="M325 -10q-61 0 -110 18t-83 53.5t-52.5 89t-18.5 124.5v376h133v-371q0 -81 33.5 -126t99.5 -45q69 0 101.5 43t32.5 123v376h134v-377q0 -72 -19 -125t-54 -88.5t-85 -53t-112 -17.5zM305 684l-47 54l153 116l96 -83z" />
<glyph unicode="&#xdb;" horiz-adv-x="651" d="M325 -10q-61 0 -110 18t-83 53.5t-52.5 89t-18.5 124.5v376h133v-371q0 -81 33.5 -126t99.5 -45q69 0 101.5 43t32.5 123v376h134v-377q0 -72 -19 -125t-54 -88.5t-85 -53t-112 -17.5zM326 769l-140 -90l-50 42l143 137h99l142 -137l-50 -43z" />
<glyph unicode="&#xdc;" horiz-adv-x="651" d="M325 -10q-61 0 -110 18t-83 53.5t-52.5 89t-18.5 124.5v376h133v-371q0 -81 33.5 -126t99.5 -45q69 0 101.5 43t32.5 123v376h134v-377q0 -72 -19 -125t-54 -88.5t-85 -53t-112 -17.5zM439 702q-28 0 -47.5 19.5t-19.5 45.5q0 27 19.5 46.5t47.5 19.5q26 0 45 -19.5 t19 -46.5q0 -26 -19 -45.5t-45 -19.5zM227 702q-27 0 -47 19.5t-20 45.5q0 27 20 46.5t47 19.5q26 0 46 -19.5t20 -46.5q0 -26 -20 -45.5t-46 -19.5z" />
<glyph unicode="&#xdd;" horiz-adv-x="625" d="M378 224v-224h-132v223l-242 428h147l81 -159l81 -159l82 161l80 157h146zM296 684l-47 54l153 116l96 -83z" />
<glyph unicode="&#xde;" horiz-adv-x="578" d="M191 117v-117h-132v651h131v-114h152q49 0 90.5 -13t71.5 -38.5t46.5 -64.5t16.5 -91q0 -54 -17 -94t-48 -66.5t-73.5 -39.5t-93.5 -13h-144zM190 423v-192h135q48 0 77 22t29 74q0 51 -29.5 73.5t-75.5 22.5h-136z" />
<glyph unicode="&#xdf;" horiz-adv-x="536" d="M499 210q0 -47 -14.5 -86.5t-41 -69t-63.5 -46t-82 -16.5q-13 0 -30.5 2t-35.5 9l18 86q63 0 93.5 34.5t30.5 88.5q0 24 -7.5 46.5t-21.5 40.5t-34.5 29.5t-46.5 12.5v85q33 3 51.5 30t18.5 60q0 15 -5 29.5t-14.5 26t-23.5 19t-32 7.5q-36 0 -56.5 -27t-20.5 -70v-497 l-124 -50v545q0 46 14.5 83.5t41 64t63.5 41t82 14.5t80.5 -15.5t60.5 -41t38 -57t13 -64.5q0 -42 -20 -78.5t-51 -53.5v-4q24 -8 45.5 -24t38 -39t26 -52t9.5 -63z" />
<glyph unicode="&#xe0;" horiz-adv-x="514" d="M336 0v40l-2 1q-32 -30 -69.5 -41t-65.5 -11q-32 0 -62 9t-53 28t-37 49.5t-14 73.5q0 39 15 69t41 50t59.5 30.5t71.5 10.5q30 0 57.5 -4.5t58.5 -18.5v33q0 78 -90 78q-34 0 -66 -8t-65 -24l-35 93q40 20 86 30.5t97 10.5q97 0 147 -43t50 -129v-327h-124zM336 196 q-19 11 -41.5 18.5t-52.5 7.5q-35 0 -58.5 -17.5t-23.5 -50.5q0 -32 20.5 -49.5t57.5 -17.5q25 0 52 13t46 32v64zM127 724l125 23l77 -184l-69 -22z" />
<glyph unicode="&#xe1;" horiz-adv-x="514" d="M336 0v40l-2 1q-32 -30 -69.5 -41t-65.5 -11q-32 0 -62 9t-53 28t-37 49.5t-14 73.5q0 39 15 69t41 50t59.5 30.5t71.5 10.5q30 0 57.5 -4.5t58.5 -18.5v33q0 78 -90 78q-34 0 -66 -8t-65 -24l-35 93q40 20 86 30.5t97 10.5q97 0 147 -43t50 -129v-327h-124zM336 196 q-19 11 -41.5 18.5t-52.5 7.5q-35 0 -58.5 -17.5t-23.5 -50.5q0 -32 20.5 -49.5t57.5 -17.5q25 0 52 13t46 32v64zM291 541l-68 22l77 186l125 -23z" />
<glyph unicode="&#xe2;" horiz-adv-x="514" d="M336 0v40l-2 1q-32 -30 -69.5 -41t-65.5 -11q-32 0 -62 9t-53 28t-37 49.5t-14 73.5q0 39 15 69t41 50t59.5 30.5t71.5 10.5q30 0 57.5 -4.5t58.5 -18.5v33q0 78 -90 78q-34 0 -66 -8t-65 -24l-35 93q40 20 86 30.5t97 10.5q97 0 147 -43t50 -129v-327h-124zM336 196 q-19 11 -41.5 18.5t-52.5 7.5q-35 0 -58.5 -17.5t-23.5 -50.5q0 -32 20.5 -49.5t57.5 -17.5q25 0 52 13t46 32v64zM261 630l-140 -97l-50 42l143 144h99l142 -144l-50 -43z" />
<glyph unicode="&#xe3;" horiz-adv-x="514" d="M336 0v40l-2 1q-32 -30 -69.5 -41t-65.5 -11q-32 0 -62 9t-53 28t-37 49.5t-14 73.5q0 39 15 69t41 50t59.5 30.5t71.5 10.5q30 0 57.5 -4.5t58.5 -18.5v33q0 78 -90 78q-34 0 -66 -8t-65 -24l-35 93q40 20 86 30.5t97 10.5q97 0 147 -43t50 -129v-327h-124zM336 196 q-19 11 -41.5 18.5t-52.5 7.5q-35 0 -58.5 -17.5t-23.5 -50.5q0 -32 20.5 -49.5t57.5 -17.5q25 0 52 13t46 32v64zM342 557q-17 0 -36.5 7.5t-39 16.5t-38.5 16.5t-34 7.5q-17 0 -32 -9t-34 -38l-54 23q10 33 24.5 55.5t31 35.5t33.5 18.5t33 5.5q18 0 38.5 -7.5t40.5 -17 t38.5 -17t33.5 -7.5q18 0 31.5 9t31.5 33l52 -25q-22 -60 -53 -83.5t-67 -23.5z" />
<glyph unicode="&#xe4;" horiz-adv-x="514" d="M336 0v40l-2 1q-32 -30 -69.5 -41t-65.5 -11q-32 0 -62 9t-53 28t-37 49.5t-14 73.5q0 39 15 69t41 50t59.5 30.5t71.5 10.5q30 0 57.5 -4.5t58.5 -18.5v33q0 78 -90 78q-34 0 -66 -8t-65 -24l-35 93q40 20 86 30.5t97 10.5q97 0 147 -43t50 -129v-327h-124zM336 196 q-19 11 -41.5 18.5t-52.5 7.5q-35 0 -58.5 -17.5t-23.5 -50.5q0 -32 20.5 -49.5t57.5 -17.5q25 0 52 13t46 32v64zM370 558q-28 0 -47.5 19.5t-19.5 45.5q0 27 19.5 46.5t47.5 19.5q26 0 45 -19.5t19 -46.5q0 -26 -19 -45.5t-45 -19.5zM158 558q-27 0 -47 19.5t-20 45.5 q0 27 20 46.5t47 19.5q26 0 46 -19.5t20 -46.5q0 -26 -20 -45.5t-46 -19.5z" />
<glyph unicode="&#xe5;" horiz-adv-x="514" d="M336 0v40l-2 1q-32 -30 -69.5 -41t-65.5 -11q-32 0 -62 9t-53 28t-37 49.5t-14 73.5q0 39 15 69t41 50t59.5 30.5t71.5 10.5q30 0 57.5 -4.5t58.5 -18.5v33q0 78 -90 78q-34 0 -66 -8t-65 -24l-35 93q40 20 86 30.5t97 10.5q97 0 147 -43t50 -129v-327h-124zM336 196 q-19 11 -41.5 18.5t-52.5 7.5q-35 0 -58.5 -17.5t-23.5 -50.5q0 -32 20.5 -49.5t57.5 -17.5q25 0 52 13t46 32v64zM274 536q-23 0 -43 8t-35 22t-23.5 34t-8.5 44q0 23 8.5 42.5t23.5 34t35 23t43 8.5t43 -8.5t35 -23t23.5 -34t8.5 -42.5q0 -47 -31.5 -77.5t-78.5 -30.5z M274 692q-20 0 -33 -14t-13 -33q0 -22 13 -35.5t33 -13.5t33 13.5t13 35.5q0 20 -12.5 33.5t-33.5 13.5z" />
<glyph unicode="&#xe6;" horiz-adv-x="817" d="M780 206h-315q5 -59 35.5 -86t76.5 -27q30 0 61 11t55 28l56 -81q-46 -35 -89 -48t-94 -13q-53 0 -96.5 18t-72.5 56q-31 -24 -56 -38.5t-47 -22.5t-42.5 -11t-42.5 -3q-34 0 -66 9t-56.5 28.5t-39 50t-14.5 72.5q0 39 15.5 69t42 50t60 30.5t69.5 10.5q32 0 59.5 -6.5 t58.5 -20.5q0 7 0.5 17.5t1.5 20.5q2 36 -23 57t-71 21q-34 0 -66 -8t-65 -24l-35 93q39 20 87 30t99 10q53 0 91 -14.5t62 -40.5q29 26 65.5 40t79.5 14q55 0 95.5 -19t67.5 -52t40 -78.5t13 -98.5v-44zM238 85q14 0 30 4.5t31.5 12t29.5 17t24 20.5q-8 24 -13 58 q-19 11 -44 18.5t-54 7.5q-35 0 -60 -17.5t-25 -50.5q0 -32 22 -51t59 -19zM654 288q-1 45 -22.5 77t-72.5 32q-35 0 -63 -28t-31 -81h189z" />
<glyph unicode="&#xe7;" horiz-adv-x="471" d="M44 241q0 59 16 106.5t45 81t71 51.5t95 18q50 0 94 -17.5t81 -59.5l-76 -81q-26 28 -48 39t-50 11q-48 0 -74 -40t-26 -106t25 -106t77 -40q51 0 100 53l77 -77q-70 -82 -178 -84l-9 -30q32 -2 52.5 -11t32.5 -21.5t17 -27t5 -26.5q0 -15 -5.5 -31.5t-20 -30.5t-38 -23 t-58.5 -9q-21 0 -46 4.5t-52 15.5l19 54q21 -8 38 -11.5t32 -3.5q20 0 33.5 9t13.5 25q0 17 -12.5 25.5t-31.5 8.5q-5 0 -15 -2l-28 26l20 64q-83 14 -129.5 78t-46.5 168z" />
<glyph unicode="&#xe8;" horiz-adv-x="523" d="M488 206h-316q5 -55 35 -84t78 -29q29 0 60 11t56 28l55 -81q-43 -34 -87.5 -47.5t-95.5 -13.5q-53 0 -95.5 17.5t-72 50.5t-45.5 80t-16 106q0 58 16.5 105t46.5 80t72 51t93 18q55 0 95.5 -18.5t67.5 -51.5t40 -79.5t13 -102.5v-40zM362 288q-1 46 -22.5 77.5 t-72.5 31.5q-36 0 -63.5 -29t-31.5 -80h190zM127 724l125 23l77 -184l-69 -22z" />
<glyph unicode="&#xe9;" horiz-adv-x="523" d="M488 206h-316q5 -55 35 -84t78 -29q29 0 60 11t56 28l55 -81q-43 -34 -87.5 -47.5t-95.5 -13.5q-53 0 -95.5 17.5t-72 50.5t-45.5 80t-16 106q0 58 16.5 105t46.5 80t72 51t93 18q55 0 95.5 -18.5t67.5 -51.5t40 -79.5t13 -102.5v-40zM362 288q-1 46 -22.5 77.5 t-72.5 31.5q-36 0 -63.5 -29t-31.5 -80h190zM291 541l-68 22l77 186l125 -23z" />
<glyph unicode="&#xea;" horiz-adv-x="523" d="M488 206h-316q5 -55 35 -84t78 -29q29 0 60 11t56 28l55 -81q-43 -34 -87.5 -47.5t-95.5 -13.5q-53 0 -95.5 17.5t-72 50.5t-45.5 80t-16 106q0 58 16.5 105t46.5 80t72 51t93 18q55 0 95.5 -18.5t67.5 -51.5t40 -79.5t13 -102.5v-40zM362 288q-1 46 -22.5 77.5 t-72.5 31.5q-36 0 -63.5 -29t-31.5 -80h190zM271 630l-140 -97l-50 42l143 144h99l142 -144l-50 -43z" />
<glyph unicode="&#xeb;" horiz-adv-x="523" d="M488 206h-316q5 -55 35 -84t78 -29q29 0 60 11t56 28l55 -81q-43 -34 -87.5 -47.5t-95.5 -13.5q-53 0 -95.5 17.5t-72 50.5t-45.5 80t-16 106q0 58 16.5 105t46.5 80t72 51t93 18q55 0 95.5 -18.5t67.5 -51.5t40 -79.5t13 -102.5v-40zM362 288q-1 46 -22.5 77.5 t-72.5 31.5q-36 0 -63.5 -29t-31.5 -80h190zM376 548q-28 0 -47.5 19.5t-19.5 45.5q0 27 19.5 46.5t47.5 19.5q26 0 45 -19.5t19 -46.5q0 -26 -19 -45.5t-45 -19.5zM164 548q-27 0 -47 19.5t-20 45.5q0 27 20 46.5t47 19.5q26 0 46 -19.5t20 -46.5q0 -26 -20 -45.5 t-46 -19.5z" />
<glyph unicode="&#xec;" horiz-adv-x="270" d="M-15 724l125 23l77 -184l-69 -22zM74 488h126v-488h-126v488z" />
<glyph unicode="&#xed;" horiz-adv-x="270" d="M154 541l-68 22l77 186l125 -23zM74 488h126v-488h-126v488z" />
<glyph unicode="&#xee;" horiz-adv-x="374" d="M185 630l-140 -97l-50 42l143 144h99l142 -144l-50 -43zM119 488h126v-488h-126v488z" />
<glyph unicode="&#xef;" horiz-adv-x="333" d="M274 558q-28 0 -47.5 19.5t-19.5 45.5q0 27 19.5 46.5t47.5 19.5q26 0 45 -19.5t19 -46.5q0 -26 -19 -45.5t-45 -19.5zM62 558q-27 0 -47 19.5t-20 45.5q0 27 20 46.5t47 19.5q26 0 46 -19.5t20 -46.5q0 -26 -20 -45.5t-46 -19.5zM103 488h126v-488h-126v488z" />
<glyph unicode="&#xf0;" horiz-adv-x="556" d="M434 722q11 -9 22.5 -18.5t23.5 -18.5l-55 -62q51 -49 74.5 -120t24.5 -156q0 -63 -10.5 -126.5t-39 -115t-77.5 -83.5t-127 -32q-49 0 -90 17t-71 48.5t-47 76t-17 100.5q0 55 17 99.5t47 76t71 49t89 17.5q35 0 71.5 -16t62.5 -47h3q-3 39 -16.5 71.5t-35.5 58.5 q-11 -14 -23 -26.5t-24 -26.5q-11 11 -22.5 20t-22.5 20q11 13 22 25t22 25q-25 17 -56 27t-67 14l12 95q109 -6 183 -55zM380 235q0 61 -26.5 98.5t-82.5 37.5q-47 0 -74 -38.5t-27 -99.5q0 -70 29.5 -105t74.5 -35q22 0 41.5 10.5t34 29.5t22.5 45t8 57z" />
<glyph unicode="&#xf1;" horiz-adv-x="535" d="M486 0h-127v281q0 52 -20 80t-65 28q-34 0 -57.5 -19t-31.5 -51q-2 -9 -4 -20.5t-2 -23.5v-275h-126v488h126v-52h4q26 30 62.5 46t70.5 16q90 0 130 -52.5t40 -141.5v-304zM333 557q-17 0 -36.5 7.5t-39 16.5t-38.5 16.5t-34 7.5q-17 0 -32 -9t-34 -38l-54 23 q10 33 24.5 55.5t31 35.5t33.5 18.5t33 5.5q18 0 38.5 -7.5t40.5 -17t38.5 -17t33.5 -7.5q18 0 31.5 9t31.5 33l52 -25q-22 -60 -53 -83.5t-67 -23.5z" />
<glyph unicode="&#xf2;" horiz-adv-x="553" d="M275 -11q-53 0 -95.5 18t-72.5 51t-46.5 80t-16.5 105q0 60 17 107.5t48 80t74 50t94 17.5t94 -17.5t73.5 -50.5t47.5 -80t17 -105q0 -60 -17.5 -107.5t-48.5 -80.5t-74 -50.5t-94 -17.5zM274 393q-50 0 -76 -42t-26 -106q0 -72 27 -111.5t78 -39.5q25 0 44.5 11.5 t32.5 32t20 47.5t7 58q0 67 -27 108.5t-80 41.5zM127 724l125 23l77 -184l-69 -22z" />
<glyph unicode="&#xf3;" horiz-adv-x="552" d="M275 -11q-53 0 -95.5 18t-72.5 51t-46.5 80t-16.5 105q0 60 17 107.5t48 80t74 50t94 17.5t94 -17.5t73.5 -50.5t47.5 -80t17 -105q0 -60 -17.5 -107.5t-48.5 -80.5t-74 -50.5t-94 -17.5zM274 393q-50 0 -76 -42t-26 -106q0 -72 27 -111.5t78 -39.5q25 0 44.5 11.5 t32.5 32t20 47.5t7 58q0 67 -27 108.5t-80 41.5zM294 541l-68 22l77 186l125 -23z" />
<glyph unicode="&#xf4;" horiz-adv-x="552" d="M275 -11q-53 0 -95.5 18t-72.5 51t-46.5 80t-16.5 105q0 60 17 107.5t48 80t74 50t94 17.5t94 -17.5t73.5 -50.5t47.5 -80t17 -105q0 -60 -17.5 -107.5t-48.5 -80.5t-74 -50.5t-94 -17.5zM274 393q-50 0 -76 -42t-26 -106q0 -72 27 -111.5t78 -39.5q25 0 44.5 11.5 t32.5 32t20 47.5t7 58q0 67 -27 108.5t-80 41.5zM273 630l-140 -97l-50 42l143 144h99l142 -144l-50 -43z" />
<glyph unicode="&#xf5;" horiz-adv-x="552" d="M275 -11q-53 0 -95.5 18t-72.5 51t-46.5 80t-16.5 105q0 60 17 107.5t48 80t74 50t94 17.5t94 -17.5t73.5 -50.5t47.5 -80t17 -105q0 -60 -17.5 -107.5t-48.5 -80.5t-74 -50.5t-94 -17.5zM274 393q-50 0 -76 -42t-26 -106q0 -72 27 -111.5t78 -39.5q25 0 44.5 11.5 t32.5 32t20 47.5t7 58q0 67 -27 108.5t-80 41.5zM351 557q-17 0 -36.5 7.5t-39 16.5t-38.5 16.5t-34 7.5q-17 0 -32 -9t-34 -38l-54 23q10 33 24.5 55.5t31 35.5t33.5 18.5t33 5.5q18 0 38.5 -7.5t40.5 -17t38.5 -17t33.5 -7.5q18 0 31.5 9t31.5 33l52 -25 q-22 -60 -53 -83.5t-67 -23.5z" />
<glyph unicode="&#xf6;" horiz-adv-x="552" d="M275 -11q-53 0 -95.5 18t-72.5 51t-46.5 80t-16.5 105q0 60 17 107.5t48 80t74 50t94 17.5t94 -17.5t73.5 -50.5t47.5 -80t17 -105q0 -60 -17.5 -107.5t-48.5 -80.5t-74 -50.5t-94 -17.5zM274 393q-50 0 -76 -42t-26 -106q0 -72 27 -111.5t78 -39.5q25 0 44.5 11.5 t32.5 32t20 47.5t7 58q0 67 -27 108.5t-80 41.5zM386 558q-28 0 -47.5 19.5t-19.5 45.5q0 27 19.5 46.5t47.5 19.5q26 0 45 -19.5t19 -46.5q0 -26 -19 -45.5t-45 -19.5zM174 558q-27 0 -47 19.5t-20 45.5q0 27 20 46.5t47 19.5q26 0 46 -19.5t20 -46.5q0 -26 -20 -45.5 t-46 -19.5z" />
<glyph unicode="&#xf7;" horiz-adv-x="640" d="M98 258v106h443v-106h-443zM389 483q0 -27 -20.5 -48t-49.5 -21t-49.5 20t-20.5 49q0 30 20.5 50t49.5 20t49.5 -20t20.5 -50zM389 131q0 -27 -20.5 -47.5t-49.5 -20.5t-49.5 19.5t-20.5 48.5q0 30 20.5 50.5t49.5 20.5t49.5 -20t20.5 -51z" />
<glyph unicode="&#xf8;" horiz-adv-x="553" d="M275 -11q-40 0 -73.5 10t-61.5 29l-40 -51l-43 30l44 57q-57 68 -57 179q0 60 17 107.5t48 80t74 50t94 17.5q38 0 71.5 -10t61.5 -29l18 24t19 24l43 -32q-11 -13 -20.5 -25.5t-19.5 -25.5q28 -33 43.5 -78t15.5 -101q0 -60 -17.5 -107.5t-48.5 -80.5t-74 -50.5 t-94 -17.5zM212 119q25 -25 65 -25q25 0 44.5 11.5t32.5 32t20 47.5t7 58q0 44 -12 77zM274 393q-50 0 -76 -42t-26 -106q0 -47 10 -77l157 200q-27 25 -65 25z" />
<glyph unicode="&#xf9;" horiz-adv-x="533" d="M51 488h127v-282q0 -46 20 -72.5t62 -26.5q31 0 54.5 13.5t33.5 47.5q5 20 5 44v276h127v-488h-127v51h-3q-29 -32 -63.5 -46.5t-68.5 -14.5q-87 0 -127 47.5t-40 137.5v313zM120 724l125 23l77 -184l-69 -22z" />
<glyph unicode="&#xfa;" horiz-adv-x="533" d="M51 488h127v-282q0 -46 20 -72.5t62 -26.5q31 0 54.5 13.5t33.5 47.5q5 20 5 44v276h127v-488h-127v51h-3q-29 -32 -63.5 -46.5t-68.5 -14.5q-87 0 -127 47.5t-40 137.5v313zM279 541l-68 22l77 186l125 -23z" />
<glyph unicode="&#xfb;" horiz-adv-x="533" d="M51 488h127v-282q0 -46 20 -72.5t62 -26.5q31 0 54.5 13.5t33.5 47.5q5 20 5 44v276h127v-488h-127v51h-3q-29 -32 -63.5 -46.5t-68.5 -14.5q-87 0 -127 47.5t-40 137.5v313zM270 630l-140 -97l-50 42l143 144h99l142 -144l-50 -43z" />
<glyph unicode="&#xfc;" horiz-adv-x="533" d="M51 488h127v-282q0 -46 20 -72.5t62 -26.5q31 0 54.5 13.5t33.5 47.5q5 20 5 44v276h127v-488h-127v51h-3q-29 -32 -63.5 -46.5t-68.5 -14.5q-87 0 -127 47.5t-40 137.5v313zM379 558q-28 0 -47.5 19.5t-19.5 45.5q0 27 19.5 46.5t47.5 19.5q26 0 45 -19.5t19 -46.5 q0 -26 -19 -45.5t-45 -19.5zM167 558q-27 0 -47 19.5t-20 45.5q0 27 20 46.5t47 19.5q26 0 46 -19.5t20 -46.5q0 -26 -20 -45.5t-46 -19.5z" />
<glyph unicode="&#xfd;" horiz-adv-x="513" d="M133 -191l64 176l-188 503h131l73 -218l41 -138h4l44 138l74 218h126l-248 -679h-121zM284 541l-68 22l77 186l125 -23z" />
<glyph unicode="&#xfe;" horiz-adv-x="540" d="M497 244q0 -67 -17 -115t-45 -78.5t-63.5 -45t-72.5 -14.5q-38 0 -66 11.5t-51 34.5h-4v-185q-32 -13 -63 -25.5t-63 -24.5v848h126v-204h3q28 26 61 39t68 13q38 0 72 -14.5t59.5 -45.5t40.5 -79t15 -115zM368 246q0 74 -25 110.5t-69 36.5q-29 0 -53.5 -15.5 t-42.5 -36.5v-194q17 -21 41 -36t53 -15q47 0 71.5 36t24.5 114z" />
<glyph unicode="&#xff;" horiz-adv-x="513" d="M133 -191l64 176l-188 503h131l73 -218l41 -138h4l44 138l74 218h126l-248 -679h-121zM370 558q-28 0 -47.5 19.5t-19.5 45.5q0 27 19.5 46.5t47.5 19.5q26 0 45 -19.5t19 -46.5q0 -26 -19 -45.5t-45 -19.5zM158 558q-27 0 -47 19.5t-20 45.5q0 27 20 46.5t47 19.5 q26 0 46 -19.5t20 -46.5q0 -26 -20 -45.5t-46 -19.5z" />
<glyph unicode="&#x100;" horiz-adv-x="668" d="M470 138h-268l-48 -138h-138l247 651h150l248 -651h-142zM335 519q-3 -10 -9 -28t-12.5 -36.5t-12 -35.5t-8.5 -25l-54 -150h194l-59 168q-3 8 -7.5 22t-10 29.5t-10.5 30.5t-8 25h-3zM202 813h269v-90h-269v90z" />
<glyph unicode="&#x101;" horiz-adv-x="514" d="M336 0v40l-2 1q-32 -30 -69.5 -41t-65.5 -11q-32 0 -62 9t-53 28t-37 49.5t-14 73.5q0 39 15 69t41 50t59.5 30.5t71.5 10.5q30 0 57.5 -4.5t58.5 -18.5v33q0 78 -90 78q-34 0 -66 -8t-65 -24l-35 93q40 20 86 30.5t97 10.5q97 0 147 -43t50 -129v-327h-124zM336 196 q-19 11 -41.5 18.5t-52.5 7.5q-35 0 -58.5 -17.5t-23.5 -50.5q0 -32 20.5 -49.5t57.5 -17.5q25 0 52 13t46 32v64zM137 671h269v-90h-269v90z" />
<glyph unicode="&#x102;" horiz-adv-x="668" d="M470 138h-268l-48 -138h-138l247 651h150l248 -651h-142zM335 519q-3 -10 -9 -28t-12.5 -36.5t-12 -35.5t-8.5 -25l-54 -150h194l-59 168q-3 8 -7.5 22t-10 29.5t-10.5 30.5t-8 25h-3zM268 843q5 -28 21.5 -46.5t47.5 -18.5q33 0 48.5 21.5t15.5 43.5h89 q0 -22 -7.5 -47.5t-25 -48t-47 -37.5t-73.5 -15q-45 0 -75 15t-48 37.5t-25.5 48t-7.5 47.5h87z" />
<glyph unicode="&#x103;" horiz-adv-x="514" d="M336 0v40l-2 1q-32 -30 -69.5 -41t-65.5 -11q-32 0 -62 9t-53 28t-37 49.5t-14 73.5q0 39 15 69t41 50t59.5 30.5t71.5 10.5q30 0 57.5 -4.5t58.5 -18.5v33q0 78 -90 78q-34 0 -66 -8t-65 -24l-35 93q40 20 86 30.5t97 10.5q97 0 147 -43t50 -129v-327h-124zM336 196 q-19 11 -41.5 18.5t-52.5 7.5q-35 0 -58.5 -17.5t-23.5 -50.5q0 -32 20.5 -49.5t57.5 -17.5q25 0 52 13t46 32v64zM205 700q5 -28 21.5 -46.5t47.5 -18.5q33 0 48.5 21.5t15.5 43.5h89q0 -22 -7.5 -47.5t-25 -48t-47 -37.5t-73.5 -15q-45 0 -75 15t-48 37.5t-25.5 48 t-7.5 47.5h87z" />
<glyph unicode="&#x104;" horiz-adv-x="668" d="M470 138h-268l-48 -138h-138l247 651h150l248 -651h-67q-44 -57 -44 -97q0 -22 13 -33.5t36 -11.5q29 0 60 14q5 -15 11 -29.5t11 -28.5q-20 -11 -48 -18.5t-54 -7.5q-45 0 -76 24t-31 69q0 23 12.5 53t43.5 66h-9zM335 519q-3 -10 -9 -28t-12.5 -36.5t-12 -35.5 t-8.5 -25l-54 -150h194l-59 168q-3 8 -7.5 22t-10 29.5t-10.5 30.5t-8 25h-3z" />
<glyph unicode="&#x105;" horiz-adv-x="514" d="M409 0q-44 -57 -44 -97q0 -22 13 -33.5t36 -11.5q29 0 60 14q5 -15 11 -29.5t11 -28.5q-20 -11 -48 -18.5t-54 -7.5q-45 0 -76 24t-31 69q0 23 12.5 53t43.5 66h-7v40l-2 1q-32 -30 -69.5 -41t-65.5 -11q-32 0 -62 9t-53 28t-37 49.5t-14 73.5q0 39 15 69t41 50 t59.5 30.5t71.5 10.5q30 0 57.5 -4.5t58.5 -18.5v33q0 78 -90 78q-34 0 -66 -8t-65 -24l-35 93q40 20 86 30.5t97 10.5q97 0 147 -43t50 -129v-327h-51zM336 196q-19 11 -41.5 18.5t-52.5 7.5q-35 0 -58.5 -17.5t-23.5 -50.5q0 -32 20.5 -49.5t57.5 -17.5q25 0 52 13t46 32 v64z" />
<glyph unicode="&#x106;" horiz-adv-x="585" d="M44 328q0 76 20.5 138t58 105.5t91 67t120.5 23.5q78 0 132.5 -28t92.5 -76l-95 -85q-31 37 -63 52.5t-68 15.5q-37 0 -65 -16t-47.5 -44.5t-29.5 -67.5t-10 -86q0 -46 9.5 -85.5t29 -69t48.5 -46.5t67 -17q36 0 70 17.5t66 55.5l94 -81q-38 -48 -93.5 -80t-139.5 -32 q-66 0 -119 23.5t-90.5 67.5t-58 106.5t-20.5 141.5zM302 684l-47 54l153 116l96 -83z" />
<glyph unicode="&#x107;" horiz-adv-x="471" d="M44 241q0 59 16 106.5t45 81t71 51.5t95 18q50 0 94 -17.5t81 -59.5l-76 -81q-26 28 -48 39t-50 11q-48 0 -74 -40t-26 -106t25 -106t77 -40q51 0 100 53l77 -77q-72 -84 -182 -84q-52 0 -93.5 17t-71 49.5t-45 79t-15.5 105.5zM268 541l-68 22l77 186l125 -23z" />
<glyph unicode="&#x108;" horiz-adv-x="585" d="M44 328q0 76 20.5 138t58 105.5t91 67t120.5 23.5q78 0 132.5 -28t92.5 -76l-95 -85q-31 37 -63 52.5t-68 15.5q-37 0 -65 -16t-47.5 -44.5t-29.5 -67.5t-10 -86q0 -46 9.5 -85.5t29 -69t48.5 -46.5t67 -17q36 0 70 17.5t66 55.5l94 -81q-38 -48 -93.5 -80t-139.5 -32 q-66 0 -119 23.5t-90.5 67.5t-58 106.5t-20.5 141.5zM322 769l-140 -90l-50 42l143 137h99l142 -137l-50 -43z" />
<glyph unicode="&#x109;" horiz-adv-x="471" d="M44 241q0 59 16 106.5t45 81t71 51.5t95 18q50 0 94 -17.5t81 -59.5l-76 -81q-26 28 -48 39t-50 11q-48 0 -74 -40t-26 -106t25 -106t77 -40q51 0 100 53l77 -77q-72 -84 -182 -84q-52 0 -93.5 17t-71 49.5t-45 79t-15.5 105.5zM257 631l-140 -97l-50 42l143 144h99 l142 -144l-50 -43z" />
<glyph unicode="&#x10a;" horiz-adv-x="585" d="M44 328q0 76 20.5 138t58 105.5t91 67t120.5 23.5q78 0 132.5 -28t92.5 -76l-95 -85q-31 37 -63 52.5t-68 15.5q-37 0 -65 -16t-47.5 -44.5t-29.5 -67.5t-10 -86q0 -46 9.5 -85.5t29 -69t48.5 -46.5t67 -17q36 0 70 17.5t66 55.5l94 -81q-38 -48 -93.5 -80t-139.5 -32 q-66 0 -119 23.5t-90.5 67.5t-58 106.5t-20.5 141.5zM252 768q0 29 20 49.5t49 20.5t49.5 -20.5t20.5 -49.5t-20.5 -49.5t-49.5 -20.5t-49 20.5t-20 49.5z" />
<glyph unicode="&#x10b;" horiz-adv-x="471" d="M44 241q0 59 16 106.5t45 81t71 51.5t95 18q50 0 94 -17.5t81 -59.5l-76 -81q-26 28 -48 39t-50 11q-48 0 -74 -40t-26 -106t25 -106t77 -40q51 0 100 53l77 -77q-72 -84 -182 -84q-52 0 -93.5 17t-71 49.5t-45 79t-15.5 105.5zM193 626q0 29 20 49.5t49 20.5t49.5 -20.5 t20.5 -49.5t-20.5 -49.5t-49.5 -20.5t-49 20.5t-20 49.5z" />
<glyph unicode="&#x10c;" horiz-adv-x="585" d="M44 328q0 76 20.5 138t58 105.5t91 67t120.5 23.5q78 0 132.5 -28t92.5 -76l-95 -85q-31 37 -63 52.5t-68 15.5q-37 0 -65 -16t-47.5 -44.5t-29.5 -67.5t-10 -86q0 -46 9.5 -85.5t29 -69t48.5 -46.5t67 -17q36 0 70 17.5t66 55.5l94 -81q-38 -48 -93.5 -80t-139.5 -32 q-66 0 -119 23.5t-90.5 67.5t-58 106.5t-20.5 141.5zM470 867l51 -42l-142 -137h-100l-142 137l49 42l141 -90z" />
<glyph unicode="&#x10d;" horiz-adv-x="471" d="M44 241q0 59 16 106.5t45 81t71 51.5t95 18q50 0 94 -17.5t81 -59.5l-76 -81q-26 28 -48 39t-50 11q-48 0 -74 -40t-26 -106t25 -106t77 -40q51 0 100 53l77 -77q-72 -84 -182 -84q-52 0 -93.5 17t-71 49.5t-45 79t-15.5 105.5zM405 730l50 -42l-141 -144h-100l-142 144 l49 42l141 -97z" />
<glyph unicode="&#x10e;" horiz-adv-x="644" d="M65 0v651h200q68 0 128 -17.5t105 -56.5t71 -101t26 -150t-26.5 -150t-72 -101t-106.5 -57t-130 -18h-195zM198 536v-421h57q102 0 153 54t51 156q0 101 -51 156t-154 55h-56zM422 867l51 -42l-142 -137h-100l-142 137l49 42l141 -90z" />
<glyph unicode="&#x10f;" horiz-adv-x="677" d="M545 530q25 17 37 31.5t15 38.5q-26 2 -41.5 21.5t-15.5 44.5t18 45.5t45 20.5q37 0 59 -25.5t22 -65.5q0 -57 -29.5 -94t-76.5 -59zM43 235q0 67 17 116.5t45 82t63.5 48.5t72.5 16q38 0 66 -12.5t51 -34.5h4v208l126 51v-710h-126v42h-3q-29 -28 -61.5 -40t-67.5 -12 q-38 0 -71.5 13t-59.5 42.5t-41 76t-15 113.5zM172 235q0 -74 25 -107t69 -33q29 0 53.5 15.5t42.5 36.5v194q-17 20 -41 35.5t-53 15.5q-46 0 -71 -39.5t-25 -117.5z" />
<glyph unicode="&#x110;" horiz-adv-x="644" d="M65 0v288h-58v75h58v288h200q68 0 128 -17.5t105 -56.5t71 -101t26 -150t-26.5 -150t-72 -101t-106.5 -57t-130 -18h-195zM198 536v-173h94v-75h-94v-173h57q102 0 153 54t51 156q0 101 -51 156t-154 55h-56z" />
<glyph unicode="&#x111;" horiz-adv-x="545" d="M43 228q0 67 17 113.5t45 76t63.5 43t72.5 13.5q38 0 66 -12t51 -35h4v91h-128v71h128v70l126 51v-121h44v-71h-44v-518h-126v42h-3q-29 -28 -61.5 -40t-67.5 -12q-38 0 -71.5 13t-59.5 41.5t-41 73.5t-15 110zM172 229q0 -69 25 -101.5t69 -32.5q29 0 53.5 15.5 t42.5 36.5v170q-17 20 -41 35.5t-53 15.5q-46 0 -71 -34t-25 -105z" />
<glyph unicode="&#x112;" horiz-adv-x="549" d="M61 651h459v-114h-327v-138h229v-115h-229v-169h338v-115h-470v651zM158 812h269v-90h-269v90z" />
<glyph unicode="&#x113;" horiz-adv-x="523" d="M488 206h-316q5 -55 35 -84t78 -29q29 0 60 11t56 28l55 -81q-43 -34 -87.5 -47.5t-95.5 -13.5q-53 0 -95.5 17.5t-72 50.5t-45.5 80t-16 106q0 58 16.5 105t46.5 80t72 51t93 18q55 0 95.5 -18.5t67.5 -51.5t40 -79.5t13 -102.5v-40zM362 288q-1 46 -22.5 77.5 t-72.5 31.5q-36 0 -63.5 -29t-31.5 -80h190zM139 671h269v-90h-269v90z" />
<glyph unicode="&#x114;" horiz-adv-x="549" d="M61 651h459v-114h-327v-138h229v-115h-229v-169h338v-115h-470v651zM223 843q5 -28 21.5 -46.5t47.5 -18.5q33 0 48.5 21.5t15.5 43.5h89q0 -22 -7.5 -47.5t-25 -48t-47 -37.5t-73.5 -15q-45 0 -75 15t-48 37.5t-25.5 48t-7.5 47.5h87z" />
<glyph unicode="&#x115;" horiz-adv-x="523" d="M488 206h-316q5 -55 35 -84t78 -29q29 0 60 11t56 28l55 -81q-43 -34 -87.5 -47.5t-95.5 -13.5q-53 0 -95.5 17.5t-72 50.5t-45.5 80t-16 106q0 58 16.5 105t46.5 80t72 51t93 18q55 0 95.5 -18.5t67.5 -51.5t40 -79.5t13 -102.5v-40zM362 288q-1 46 -22.5 77.5 t-72.5 31.5q-36 0 -63.5 -29t-31.5 -80h190zM202 700q5 -28 21.5 -46.5t47.5 -18.5q33 0 48.5 21.5t15.5 43.5h89q0 -22 -7.5 -47.5t-25 -48t-47 -37.5t-73.5 -15q-45 0 -75 15t-48 37.5t-25.5 48t-7.5 47.5h87z" />
<glyph unicode="&#x116;" horiz-adv-x="549" d="M61 651h459v-114h-327v-138h229v-115h-229v-169h338v-115h-470v651zM228 765q0 29 20 49.5t49 20.5t49.5 -20.5t20.5 -49.5t-20.5 -49.5t-49.5 -20.5t-49 20.5t-20 49.5z" />
<glyph unicode="&#x117;" horiz-adv-x="523" d="M488 206h-316q5 -55 35 -84t78 -29q29 0 60 11t56 28l55 -81q-43 -34 -87.5 -47.5t-95.5 -13.5q-53 0 -95.5 17.5t-72 50.5t-45.5 80t-16 106q0 58 16.5 105t46.5 80t72 51t93 18q55 0 95.5 -18.5t67.5 -51.5t40 -79.5t13 -102.5v-40zM362 288q-1 46 -22.5 77.5 t-72.5 31.5q-36 0 -63.5 -29t-31.5 -80h190zM202 615q0 29 20 49.5t49 20.5t49.5 -20.5t20.5 -49.5t-20.5 -49.5t-49.5 -20.5t-49 20.5t-20 49.5z" />
<glyph unicode="&#x118;" horiz-adv-x="549" d="M61 651h459v-114h-327v-138h229v-115h-229v-169h338v-115h-17q-44 -57 -44 -97q0 -22 13 -33.5t36 -11.5q29 0 60 14q5 -15 11 -29.5t11 -28.5q-20 -11 -48 -18.5t-54 -7.5q-45 0 -76 24t-31 69q0 23 12.5 53t43.5 66h-387v651z" />
<glyph unicode="&#x119;" horiz-adv-x="523" d="M488 206h-316q5 -55 35 -84t78 -29q29 0 60 11t56 28l55 -81q-30 -23 -62 -38q-34 -47 -34 -83q0 -22 13 -33.5t36 -11.5q29 0 60 14q5 -15 11 -29.5t11 -28.5q-20 -11 -48 -18.5t-54 -7.5q-45 0 -76 24t-31 69q0 17 7 38t23 46q-10 -1 -19.5 -1.5t-19.5 -0.5 q-53 0 -95.5 17.5t-72 50.5t-45.5 80t-16 106q0 58 16.5 105t46.5 80t72 51t93 18q55 0 95.5 -18.5t67.5 -51.5t40 -79.5t13 -102.5v-40zM362 288q-1 46 -22.5 77.5t-72.5 31.5q-36 0 -63.5 -29t-31.5 -80h190z" />
<glyph unicode="&#x11a;" horiz-adv-x="549" d="M61 651h459v-114h-327v-138h229v-115h-229v-169h338v-115h-470v651zM427 867l51 -42l-142 -137h-100l-142 137l49 42l141 -90z" />
<glyph unicode="&#x11b;" horiz-adv-x="523" d="M488 206h-316q5 -55 35 -84t78 -29q29 0 60 11t56 28l55 -81q-43 -34 -87.5 -47.5t-95.5 -13.5q-53 0 -95.5 17.5t-72 50.5t-45.5 80t-16 106q0 58 16.5 105t46.5 80t72 51t93 18q55 0 95.5 -18.5t67.5 -51.5t40 -79.5t13 -102.5v-40zM362 288q-1 46 -22.5 77.5 t-72.5 31.5q-36 0 -63.5 -29t-31.5 -80h190zM409 729l50 -42l-141 -144h-100l-142 144l49 42l141 -97z" />
<glyph unicode="&#x11c;" horiz-adv-x="630" d="M330 660q75 0 129 -26t95 -78q-25 -21 -49.5 -42t-49.5 -43q-29 38 -61 53t-67 15q-37 0 -65 -16t-46.5 -44.5t-28 -68t-9.5 -85.5q0 -103 39.5 -160t114.5 -57q36 0 60.5 11t39.5 29.5t21.5 42.5t7.5 50h-100v104h233v-82q0 -63 -17.5 -113.5t-51.5 -86t-83.5 -54.5 t-112.5 -19q-69 0 -123 24t-90.5 67.5t-55.5 105.5t-19 139t20.5 138.5t58 105t91 67t119.5 23.5zM324 769l-140 -90l-50 42l143 137h99l142 -137l-50 -43z" />
<glyph unicode="&#x11d;" horiz-adv-x="542" d="M489 42q0 -46 -12.5 -87t-40.5 -75t-72.5 -59t-108.5 -38l-39 102q51 15 80.5 33t44.5 36.5t19 36t4 32.5v25h-4q-32 -29 -62 -40t-68 -11q-36 0 -70 13.5t-59.5 42.5t-41 76t-15.5 113q0 64 15.5 112t42 79.5t61 47t73.5 15.5q73 0 123 -50q1 0 1.5 0.5t1.5 0.5v41h127 v-446zM362 340q-17 20 -41.5 36t-53.5 16q-42 0 -68.5 -37.5t-26.5 -107.5q0 -79 25 -112.5t72 -33.5q28 0 52 15.5t41 34.5v189zM279 630l-140 -97l-50 42l143 144h99l142 -144l-50 -43z" />
<glyph unicode="&#x11e;" horiz-adv-x="630" d="M330 660q75 0 129 -26t95 -78q-25 -21 -49.5 -42t-49.5 -43q-29 38 -61 53t-67 15q-37 0 -65 -16t-46.5 -44.5t-28 -68t-9.5 -85.5q0 -103 39.5 -160t114.5 -57q36 0 60.5 11t39.5 29.5t21.5 42.5t7.5 50h-100v104h233v-82q0 -63 -17.5 -113.5t-51.5 -86t-83.5 -54.5 t-112.5 -19q-69 0 -123 24t-90.5 67.5t-55.5 105.5t-19 139t20.5 138.5t58 105t91 67t119.5 23.5zM256 844q5 -28 21.5 -46.5t47.5 -18.5q33 0 48.5 21.5t15.5 43.5h89q0 -22 -7.5 -47.5t-25 -48t-47 -37.5t-73.5 -15q-45 0 -75 15t-48 37.5t-25.5 48t-7.5 47.5h87z" />
<glyph unicode="&#x11f;" horiz-adv-x="542" d="M489 42q0 -46 -12.5 -87t-40.5 -75t-72.5 -59t-108.5 -38l-39 102q51 15 80.5 33t44.5 36.5t19 36t4 32.5v25h-4q-32 -29 -62 -40t-68 -11q-36 0 -70 13.5t-59.5 42.5t-41 76t-15.5 113q0 64 15.5 112t42 79.5t61 47t73.5 15.5q73 0 123 -50q1 0 1.5 0.5t1.5 0.5v41h127 v-446zM362 340q-17 20 -41.5 36t-53.5 16q-42 0 -68.5 -37.5t-26.5 -107.5q0 -79 25 -112.5t72 -33.5q28 0 52 15.5t41 34.5v189zM214 700q5 -28 21.5 -46.5t47.5 -18.5q33 0 48.5 21.5t15.5 43.5h89q0 -22 -7.5 -47.5t-25 -48t-47 -37.5t-73.5 -15q-45 0 -75 15t-48 37.5 t-25.5 48t-7.5 47.5h87z" />
<glyph unicode="&#x120;" horiz-adv-x="630" d="M330 660q75 0 129 -26t95 -78q-25 -21 -49.5 -42t-49.5 -43q-29 38 -61 53t-67 15q-37 0 -65 -16t-46.5 -44.5t-28 -68t-9.5 -85.5q0 -103 39.5 -160t114.5 -57q36 0 60.5 11t39.5 29.5t21.5 42.5t7.5 50h-100v104h233v-82q0 -63 -17.5 -113.5t-51.5 -86t-83.5 -54.5 t-112.5 -19q-69 0 -123 24t-90.5 67.5t-55.5 105.5t-19 139t20.5 138.5t58 105t91 67t119.5 23.5zM262 765q0 29 20 49.5t49 20.5t49.5 -20.5t20.5 -49.5t-20.5 -49.5t-49.5 -20.5t-49 20.5t-20 49.5z" />
<glyph unicode="&#x121;" horiz-adv-x="542" d="M489 42q0 -46 -12.5 -87t-40.5 -75t-72.5 -59t-108.5 -38l-39 102q51 15 80.5 33t44.5 36.5t19 36t4 32.5v25h-4q-32 -29 -62 -40t-68 -11q-36 0 -70 13.5t-59.5 42.5t-41 76t-15.5 113q0 64 15.5 112t42 79.5t61 47t73.5 15.5q73 0 123 -50q1 0 1.5 0.5t1.5 0.5v41h127 v-446zM362 340q-17 20 -41.5 36t-53.5 16q-42 0 -68.5 -37.5t-26.5 -107.5q0 -79 25 -112.5t72 -33.5q28 0 52 15.5t41 34.5v189zM225 626q0 29 20 49.5t49 20.5t49.5 -20.5t20.5 -49.5t-20.5 -49.5t-49.5 -20.5t-49 20.5t-20 49.5z" />
<glyph unicode="&#x122;" horiz-adv-x="630" d="M330 660q75 0 129 -26t95 -78q-25 -21 -49.5 -42t-49.5 -43q-29 38 -61 53t-67 15q-37 0 -65 -16t-46.5 -44.5t-28 -68t-9.5 -85.5q0 -103 39.5 -160t114.5 -57q36 0 60.5 11t39.5 29.5t21.5 42.5t7.5 50h-100v104h233v-82q0 -63 -17.5 -113.5t-51.5 -86t-83.5 -54.5 t-112.5 -19q-69 0 -123 24t-90.5 67.5t-55.5 105.5t-19 139t20.5 138.5t58 105t91 67t119.5 23.5zM265 -249q25 17 37.5 31.5t14.5 38.5q-26 0 -45 15t-19 47q0 29 20.5 49.5t50.5 20.5q36 0 58 -25.5t22 -65.5q0 -57 -29 -94t-77 -59q-8 11 -16 21t-17 21z" />
<glyph unicode="&#x123;" horiz-adv-x="542" d="M348 746q-31 -16 -43.5 -35.5t-15.5 -40.5h2q20 0 39 -14.5t19 -46.5q0 -29 -20 -46.5t-49 -17.5q-32 0 -52.5 23t-20.5 62q0 54 31 95.5t80 62.5zM489 42q0 -46 -12.5 -87t-40.5 -75t-72.5 -59t-108.5 -38l-39 102q51 15 80.5 33t44.5 36.5t19 36t4 32.5v25h-4 q-32 -29 -62 -40t-68 -11q-36 0 -70 13.5t-59.5 42.5t-41 76t-15.5 113q0 64 15.5 112t42 79.5t61 47t73.5 15.5q73 0 123 -50q1 0 1.5 0.5t1.5 0.5v41h127v-446zM362 340q-17 20 -41.5 36t-53.5 16q-42 0 -68.5 -37.5t-26.5 -107.5q0 -79 25 -112.5t72 -33.5q28 0 52 15.5 t41 34.5v189z" />
<glyph unicode="&#x124;" horiz-adv-x="656" d="M462 278h-269v-278h-133v651h133v-257h269v257h133v-651h-133v278zM329 769l-140 -90l-50 42l143 137h99l142 -137l-50 -43z" />
<glyph unicode="&#x125;" horiz-adv-x="535" d="M486 0h-126v281q0 22 -5 41.5t-15.5 34.5t-26.5 23.5t-38 8.5q-34 0 -57.5 -19t-32.5 -51q-5 -20 -5 -44v-275h-127v660l127 49v-270h3q27 29 63 44t71 15q89 0 129 -52.5t40 -141.5v-304zM128 777l-140 -90l-50 42l143 137h99l142 -137l-50 -43z" />
<glyph unicode="&#x126;" horiz-adv-x="656" d="M462 278h-269v-278h-133v489h-40v69h40v93h133v-93h269v93h133v-93h41v-69h-41v-489h-133v278zM462 394v95h-269v-95h269z" />
<glyph unicode="&#x127;" horiz-adv-x="535" d="M486 0h-126v252q0 22 -5 41.5t-15.5 34.5t-26.5 23.5t-38 8.5q-34 0 -57.5 -19t-32.5 -51q-5 -20 -5 -44v-246h-127v520h-40v70h40v70l127 49v-119h177v-70h-177v-110h3q27 29 63 43.5t71 14.5q89 0 129 -52.5t40 -141.5v-274z" />
<glyph unicode="&#x128;" horiz-adv-x="280" d="M73 651h134v-651h-134v651zM219 704q-17 0 -36.5 7.5t-39 16.5t-38.5 16.5t-34 7.5q-17 0 -32 -9t-34 -38l-54 23q10 33 24.5 55.5t31 35.5t33.5 18.5t33 5.5q18 0 38.5 -7.5t40.5 -17t38.5 -17t33.5 -7.5q18 0 31.5 9t31.5 33l52 -25q-22 -60 -53 -83.5t-67 -23.5z" />
<glyph unicode="&#x129;" horiz-adv-x="378" d="M263 555q-17 0 -36.5 7.5t-39 16.5t-38.5 16.5t-34 7.5q-17 0 -32 -9t-34 -38l-54 23q10 33 24.5 55.5t31 35.5t33.5 18.5t33 5.5q18 0 38.5 -7.5t40.5 -17t38.5 -17t33.5 -7.5q18 0 31.5 9t31.5 33l52 -25q-22 -60 -53 -83.5t-67 -23.5zM122 488h126v-488h-126v488z" />
<glyph unicode="&#x12a;" horiz-adv-x="280" d="M73 651h134v-651h-134v651zM7 809h269v-90h-269v90z" />
<glyph unicode="&#x12b;" horiz-adv-x="270" d="M1 668h269v-90h-269v90zM74 488h126v-488h-126v488z" />
<glyph unicode="&#x12c;" horiz-adv-x="280" d="M73 651h134v-651h-134v651zM73 843q5 -28 21.5 -46.5t47.5 -18.5q33 0 48.5 21.5t15.5 43.5h89q0 -22 -7.5 -47.5t-25 -48t-47 -37.5t-73.5 -15q-45 0 -75 15t-48 37.5t-25.5 48t-7.5 47.5h87z" />
<glyph unicode="&#x12d;" horiz-adv-x="299" d="M82 700q5 -28 21.5 -46.5t47.5 -18.5q33 0 48.5 21.5t15.5 43.5h89q0 -22 -7.5 -47.5t-25 -48t-47 -37.5t-73.5 -15q-45 0 -75 15t-48 37.5t-25.5 48t-7.5 47.5h87zM84 488h126v-488h-126v488z" />
<glyph unicode="&#x12e;" horiz-adv-x="280" d="M73 651h134v-651h-36q-44 -57 -44 -97q0 -22 13 -33.5t36 -11.5q29 0 60 14q5 -15 11 -29.5t11 -28.5q-20 -11 -48 -18.5t-54 -7.5q-45 0 -76 24t-31 69q0 23 12.5 53t43.5 66h-32v651z" />
<glyph unicode="&#x12f;" horiz-adv-x="270" d="M73 488h126v-488h-32q-44 -57 -44 -97q0 -22 13 -33.5t36 -11.5q29 0 60 14q5 -15 11 -29.5t11 -28.5q-20 -11 -48 -18.5t-54 -7.5q-45 0 -76 24t-31 69q0 23 12.5 53t43.5 66h-28v488zM61 622q0 31 21.5 53t53.5 22q30 0 52 -22t22 -53q0 -30 -22 -52t-52 -22 q-32 0 -53.5 22t-21.5 52z" />
<glyph unicode="&#x130;" horiz-adv-x="280" d="M73 651h134v-651h-134v651zM70 763q0 29 20 49.5t49 20.5t49.5 -20.5t20.5 -49.5t-20.5 -49.5t-49.5 -20.5t-49 20.5t-20 49.5z" />
<glyph unicode="&#x131;" horiz-adv-x="270" d="M74 488h126v-488h-126v488z" />
<glyph unicode="&#x132;" horiz-adv-x="828" d="M73 651h134v-651h-134v651zM758 260q0 -132 -61.5 -201.5t-188.5 -69.5q-53 0 -94 12.5t-71 36t-51 57.5t-34 77l125 42q20 -54 48.5 -80t76.5 -26q62 0 89.5 38t27.5 116v389h133v-391z" />
<glyph unicode="&#x133;" horiz-adv-x="509" d="M73 488h126v-488h-126v488zM61 622q0 31 21.5 53t53.5 22q30 0 52 -22t22 -53q0 -30 -22 -52t-52 -22q-32 0 -53.5 22t-21.5 52zM442 -14q0 -50 -11 -87.5t-37 -62.5t-68 -37t-104 -12l-8 102q34 6 54.5 13.5t31 19.5t13.5 29.5t3 43.5v493h126v-502zM304 622q0 31 22 53 t53 22q30 0 52 -22t22 -53q0 -30 -22 -52t-52 -22q-31 0 -53 22t-22 52z" />
<glyph unicode="&#x134;" horiz-adv-x="626" d="M520 261q0 -132 -61.5 -201.5t-188.5 -69.5q-53 0 -94 12.5t-71 36t-51 57.5t-34 77l125 42q20 -54 48.5 -80t76.5 -26q62 0 89.5 38t27.5 116v389h133v-391zM452 769l-140 -90l-50 42l143 137h99l142 -137l-50 -43z" />
<glyph unicode="&#x135;" horiz-adv-x="373" d="M246 -10q0 -50 -11 -87.5t-36.5 -62.5t-67.5 -37t-104 -12l-9 103q34 6 54.5 13.5t31 19.5t14 29.5t3.5 43.5v488h125v-498zM185 630l-141 -97l-49 42l142 144h99l142 -144l-50 -43z" />
<glyph unicode="&#x136;" horiz-adv-x="618" d="M462 0l-162 309l-108 -132v-177h-132v651h132v-295h3l64 84l168 211h152l-190 -233l224 -418h-151zM258 -224q25 17 37.5 31.5t14.5 38.5q-26 0 -45 15t-19 47q0 29 20.5 49.5t50.5 20.5q36 0 58 -25.5t22 -65.5q0 -57 -29 -94t-77 -59q-8 11 -16 21t-17 21z" />
<glyph unicode="&#x137;" horiz-adv-x="509" d="M357 0l-102 229l-76 -92v-137h-126v660l126 49v-407h2q4 4 11.5 14t16 21t15 20t8.5 11l95 119h150l-135 -159l156 -328h-141zM204 -249q25 17 37.5 31.5t14.5 38.5q-26 0 -45 15t-19 47q0 29 20.5 49.5t50.5 20.5q36 0 58 -25.5t22 -65.5q0 -57 -29 -94t-77 -59 q-8 11 -16 21t-17 21z" />
<glyph unicode="&#x138;" horiz-adv-x="510" d="M357 0q-26 57 -52 113.5t-52 113.5l-74 -90v-137h-126v487h126v-187h2l51 64l98 123h147l-135 -159l156 -328h-141z" />
<glyph unicode="&#x139;" horiz-adv-x="518" d="M60 651h132v-536h318v-115h-450v651zM127 684l-47 54l153 116l96 -83z" />
<glyph unicode="&#x13a;" horiz-adv-x="248" d="M61 0v660l126 51v-711h-126zM111 712l-47 54l153 116l96 -83z" />
<glyph unicode="&#x13b;" horiz-adv-x="518" d="M60 651h132v-536h318v-115h-450v651zM217 -247q25 17 37.5 31.5t14.5 38.5q-26 0 -45 15t-19 47q0 29 20.5 49.5t50.5 20.5q36 0 58 -25.5t22 -65.5q0 -57 -29 -94t-77 -59q-8 11 -16 21t-17 21z" />
<glyph unicode="&#x13c;" horiz-adv-x="248" d="M61 0v660l126 51v-711h-126zM71 -240q25 17 37.5 31.5t14.5 38.5q-26 0 -45 15t-19 47q0 29 20.5 49.5t50.5 20.5q36 0 58 -25.5t22 -65.5q0 -57 -29 -94t-77 -59q-8 11 -16 21t-17 21z" />
<glyph unicode="&#x13d;" horiz-adv-x="518" d="M307 449q25 17 37.5 31.5t15.5 38.5q-26 0 -45.5 15t-19.5 47q0 30 20.5 50t50.5 20q36 0 58 -25.5t22 -65.5q0 -57 -29.5 -94t-75.5 -59q-9 11 -17 21t-17 21zM60 651h132v-536h318v-115h-450v651z" />
<glyph unicode="&#x13e;" horiz-adv-x="390" d="M61 0v660l126 51v-711h-126zM251 476q25 17 37.5 32t14.5 39q-26 0 -45 15t-19 47q0 29 20.5 49.5t50.5 20.5q36 0 58 -25.5t22 -66.5q0 -56 -29.5 -93.5t-76.5 -58.5z" />
<glyph unicode="&#x13f;" horiz-adv-x="518" d="M60 651h132v-536h318v-115h-450v651zM291 354q0 29 20 49.5t49 20.5t49.5 -20.5t20.5 -49.5t-20.5 -49.5t-49.5 -20.5t-49 20.5t-20 49.5z" />
<glyph unicode="&#x140;" horiz-adv-x="368" d="M234 353q0 29 20 49.5t49 20.5t49.5 -20.5t20.5 -49.5t-20.5 -49.5t-49.5 -20.5t-49 20.5t-20 49.5zM61 0v660l126 51v-711h-126z" />
<glyph unicode="&#x141;" horiz-adv-x="546" d="M-5 244l91 52v355h132v-279l103 59l38 -67l-141 -82v-167h318v-115h-450v206l-51 -29z" />
<glyph unicode="&#x142;" horiz-adv-x="329" d="M0 275l93 54v331l126 51v-309l71 42l39 -67l-110 -64v-313h-126v239l-54 -31z" />
<glyph unicode="&#x143;" horiz-adv-x="653" d="M478 0l-187 280l-98 153h-3v-433h-131v651h124l168 -251l111 -174h3v425h131v-651h-118zM307 684l-47 54l153 116l96 -83z" />
<glyph unicode="&#x144;" horiz-adv-x="535" d="M486 0h-127v281q0 52 -20 80t-65 28q-34 0 -57.5 -19t-31.5 -51q-2 -9 -4 -20.5t-2 -23.5v-275h-126v488h126v-52h4q26 30 62.5 46t70.5 16q90 0 130 -52.5t40 -141.5v-304zM259 541l-68 22l77 186l125 -23z" />
<glyph unicode="&#x145;" horiz-adv-x="653" d="M478 0l-187 280l-98 153h-3v-433h-131v651h124l168 -251l111 -174h3v425h131v-651h-118zM266 -219q25 17 37.5 31.5t14.5 38.5q-26 0 -45 15t-19 47q0 29 20.5 49.5t50.5 20.5q36 0 58 -25.5t22 -65.5q0 -57 -29 -94t-77 -59q-8 11 -16 21t-17 21z" />
<glyph unicode="&#x146;" horiz-adv-x="535" d="M486 0h-127v281q0 52 -20 80t-65 28q-34 0 -57.5 -19t-31.5 -51q-2 -9 -4 -20.5t-2 -23.5v-275h-126v488h126v-52h4q26 30 62.5 46t70.5 16q90 0 130 -52.5t40 -141.5v-304zM208 -249q25 17 37.5 31.5t14.5 38.5q-26 0 -45 15t-19 47q0 29 20.5 49.5t50.5 20.5 q36 0 58 -25.5t22 -65.5q0 -57 -29 -94t-77 -59q-8 11 -16 21t-17 21z" />
<glyph unicode="&#x147;" horiz-adv-x="653" d="M478 0l-187 280l-98 153h-3v-433h-131v651h124l168 -251l111 -174h3v425h131v-651h-118zM466 867l51 -42l-142 -137h-100l-142 137l49 42l141 -90z" />
<glyph unicode="&#x148;" horiz-adv-x="535" d="M486 0h-127v281q0 52 -20 80t-65 28q-34 0 -57.5 -19t-31.5 -51q-2 -9 -4 -20.5t-2 -23.5v-275h-126v488h126v-52h4q26 30 62.5 46t70.5 16q90 0 130 -52.5t40 -141.5v-304zM397 729l50 -42l-141 -144h-100l-142 144l49 42l141 -97z" />
<glyph unicode="&#x149;" horiz-adv-x="611" d="M562 0h-127v281q0 52 -20 80t-65 28q-34 0 -57.5 -19t-31.5 -51q-2 -9 -4 -20.5t-2 -23.5v-275h-126v488h126v-52h4q26 30 62.5 46t70.5 16q90 0 130 -52.5t40 -141.5v-304zM12 504q25 17 37.5 31.5t14.5 38.5q-26 0 -45 15t-19 47q0 29 20.5 49.5t50.5 20.5 q36 0 58 -25.5t22 -65.5q0 -57 -29 -94t-77 -59q-8 11 -16 21t-17 21z" />
<glyph unicode="&#x14a;" horiz-adv-x="653" d="M434 -99q17 0 26.5 9t9.5 34v68l-218 325q-12 17 -28 42.5t-31 48.5h-3v-428h-130v651h123l215 -318l64 -99h3v417h131v-732q0 -33 -10.5 -56t-28.5 -37t-41 -20.5t-47 -6.5q-52 0 -100 20l21 89q27 -7 44 -7z" />
<glyph unicode="&#x14b;" horiz-adv-x="533" d="M486 -81q0 -33 -11 -56t-29 -37t-41 -20.5t-48 -6.5t-50.5 5.5t-48.5 15.5l21 88q27 -7 44 -7t26.5 9.5t9.5 33.5v337q0 46 -19.5 77t-65.5 31q-34 0 -57.5 -19t-31.5 -51q-2 -9 -4 -20.5t-2 -23.5v-275h-126v488h126v-52h4q26 30 62.5 46t70.5 16q90 0 130 -52.5 t40 -141.5v-385z" />
<glyph unicode="&#x14c;" horiz-adv-x="664" d="M331 -11q-71 0 -124.5 25.5t-89.5 70t-54.5 106t-18.5 133.5t18.5 134t55 107t90 70.5t124.5 25.5q67 0 120.5 -24t91 -68.5t57 -106.5t19.5 -137q0 -76 -19.5 -138t-57 -106t-91 -68t-121.5 -24zM331 542q-38 0 -66 -16t-47 -45t-28 -68.5t-9 -86.5t9.5 -86.5t28.5 -69 t47 -46t66 -16.5t66.5 17.5t47 47t28 69t9.5 83.5q0 47 -9.5 87t-28.5 69t-47.5 45t-66.5 16zM192 814h269v-90h-269v90z" />
<glyph unicode="&#x14d;" horiz-adv-x="552" d="M275 -11q-53 0 -95.5 18t-72.5 51t-46.5 80t-16.5 105q0 60 17 107.5t48 80t74 50t94 17.5t94 -17.5t73.5 -50.5t47.5 -80t17 -105q0 -60 -17.5 -107.5t-48.5 -80.5t-74 -50.5t-94 -17.5zM274 393q-50 0 -76 -42t-26 -106q0 -72 27 -111.5t78 -39.5q25 0 44.5 11.5 t32.5 32t20 47.5t7 58q0 67 -27 108.5t-80 41.5zM137 671h269v-90h-269v90z" />
<glyph unicode="&#x14e;" horiz-adv-x="664" d="M331 -11q-71 0 -124.5 25.5t-89.5 70t-54.5 106t-18.5 133.5t18.5 134t55 107t90 70.5t124.5 25.5q67 0 120.5 -24t91 -68.5t57 -106.5t19.5 -137q0 -76 -19.5 -138t-57 -106t-91 -68t-121.5 -24zM331 542q-38 0 -66 -16t-47 -45t-28 -68.5t-9 -86.5t9.5 -86.5t28.5 -69 t47 -46t66 -16.5t66.5 17.5t47 47t28 69t9.5 83.5q0 47 -9.5 87t-28.5 69t-47.5 45t-66.5 16zM266 845q5 -28 21.5 -46.5t47.5 -18.5q33 0 48.5 21.5t15.5 43.5h89q0 -22 -7.5 -47.5t-25 -48t-47 -37.5t-73.5 -15q-45 0 -75 15t-48 37.5t-25.5 48t-7.5 47.5h87z" />
<glyph unicode="&#x14f;" horiz-adv-x="552" d="M275 -11q-53 0 -95.5 18t-72.5 51t-46.5 80t-16.5 105q0 60 17 107.5t48 80t74 50t94 17.5t94 -17.5t73.5 -50.5t47.5 -80t17 -105q0 -60 -17.5 -107.5t-48.5 -80.5t-74 -50.5t-94 -17.5zM274 393q-50 0 -76 -42t-26 -106q0 -72 27 -111.5t78 -39.5q25 0 44.5 11.5 t32.5 32t20 47.5t7 58q0 67 -27 108.5t-80 41.5zM208 700q5 -28 21.5 -46.5t47.5 -18.5q33 0 48.5 21.5t15.5 43.5h89q0 -22 -7.5 -47.5t-25 -48t-47 -37.5t-73.5 -15q-45 0 -75 15t-48 37.5t-25.5 48t-7.5 47.5h87z" />
<glyph unicode="&#x150;" horiz-adv-x="664" d="M331 -11q-71 0 -124.5 25.5t-89.5 70t-54.5 106t-18.5 133.5t18.5 134t55 107t90 70.5t124.5 25.5q67 0 120.5 -24t91 -68.5t57 -106.5t19.5 -137q0 -76 -19.5 -138t-57 -106t-91 -68t-121.5 -24zM331 542q-38 0 -66 -16t-47 -45t-28 -68.5t-9 -86.5t9.5 -86.5t28.5 -69 t47 -46t66 -16.5t66.5 17.5t47 47t28 69t9.5 83.5q0 47 -9.5 87t-28.5 69t-47.5 45t-66.5 16zM238 687l-55 46l134 138l108 -67zM429 682l-54 46l133 138l108 -67z" />
<glyph unicode="&#x151;" horiz-adv-x="552" d="M275 -11q-53 0 -95.5 18t-72.5 51t-46.5 80t-16.5 105q0 60 17 107.5t48 80t74 50t94 17.5t94 -17.5t73.5 -50.5t47.5 -80t17 -105q0 -60 -17.5 -107.5t-48.5 -80.5t-74 -50.5t-94 -17.5zM274 393q-50 0 -76 -42t-26 -106q0 -72 27 -111.5t78 -39.5q25 0 44.5 11.5 t32.5 32t20 47.5t7 58q0 67 -27 108.5t-80 41.5zM210 543l-68 23l74 177l125 -23zM386 541l-68 22l74 177l124 -22z" />
<glyph unicode="&#x152;" horiz-adv-x="900" d="M337 661q45 0 81 -10h438v-114h-319v-138h221v-115h-221v-169h331v-115h-447q-41 -11 -85 -11q-71 0 -124.5 25.5t-89.5 70t-54.5 106t-18.5 133.5t18.5 134t55 107t90 70.5t124.5 25.5zM337 108q20 0 37 5t31 13v398q-30 18 -69 18q-38 0 -66.5 -16t-47 -45t-28 -68.5 t-9.5 -86.5t9.5 -86.5t28.5 -69t47.5 -46t66.5 -16.5z" />
<glyph unicode="&#x153;" horiz-adv-x="863" d="M827 206h-317q5 -55 35.5 -84t78.5 -29q29 0 59 10.5t55 27.5l57 -80q-43 -34 -87.5 -47.5t-95.5 -13.5q-53 0 -96 19.5t-72 56.5q-29 -38 -73 -57.5t-96 -19.5q-51 0 -93.5 18t-73 51t-47.5 80t-17 105q0 60 17 107.5t48 80t74 50t94 17.5q52 0 95.5 -20.5t73.5 -56.5 q29 36 71.5 56.5t93.5 20.5q55 0 95.5 -18.5t67.5 -51.5t40 -79.5t13 -102.5v-40zM274 393q-50 0 -76 -42t-26 -106q0 -72 27 -111.5t78 -39.5q25 0 44.5 11.5t32.5 32t19.5 47.5t6.5 58q0 67 -26.5 108.5t-79.5 41.5zM701 288q-1 46 -22.5 78t-72.5 32q-35 0 -63.5 -28 t-31.5 -82h190z" />
<glyph unicode="&#x154;" horiz-adv-x="614" d="M574 446q0 -75 -33.5 -122t-92.5 -67l120 -257h-139l-105 239h-132v-239h-131v651h289q48 0 89 -12.5t71 -37.5t47 -64t17 -91zM192 537v-185h144q49 0 75.5 23.5t26.5 70.5q0 45 -28 68t-73 23h-145zM260 684l-47 54l153 116l96 -83z" />
<glyph unicode="&#x155;" horiz-adv-x="394" d="M391 484q-5 -30 -11.5 -60.5t-11.5 -60.5q-43 8 -74 8q-51 0 -78 -24t-27 -86v-261h-127v488h127v-61h2q23 37 57 54t72 17q35 0 71 -14zM200 541l-68 22l77 186l125 -23z" />
<glyph unicode="&#x156;" horiz-adv-x="614" d="M574 446q0 -75 -33.5 -122t-92.5 -67l120 -257h-139l-105 239h-132v-239h-131v651h289q48 0 89 -12.5t71 -37.5t47 -64t17 -91zM192 537v-185h144q49 0 75.5 23.5t26.5 70.5q0 45 -28 68t-73 23h-145zM239 -217q25 17 37.5 31.5t14.5 38.5q-26 0 -45 15t-19 47 q0 29 20.5 49.5t50.5 20.5q36 0 58 -25.5t22 -65.5q0 -57 -29 -94t-77 -59q-8 11 -16 21t-17 21z" />
<glyph unicode="&#x157;" horiz-adv-x="394" d="M391 484q-5 -30 -11.5 -60.5t-11.5 -60.5q-43 8 -74 8q-51 0 -78 -24t-27 -86v-261h-127v488h127v-61h2q23 37 57 54t72 17q35 0 71 -14zM67 -249q25 17 37.5 31.5t14.5 38.5q-26 0 -45 15t-19 47q0 29 20.5 49.5t50.5 20.5q36 0 58 -25.5t22 -65.5q0 -57 -29 -94 t-77 -59q-8 11 -16 21t-17 21z" />
<glyph unicode="&#x158;" horiz-adv-x="614" d="M574 446q0 -75 -33.5 -122t-92.5 -67l120 -257h-139l-105 239h-132v-239h-131v651h289q48 0 89 -12.5t71 -37.5t47 -64t17 -91zM192 537v-185h144q49 0 75.5 23.5t26.5 70.5q0 45 -28 68t-73 23h-145zM433 867l51 -42l-142 -137h-100l-142 137l49 42l141 -90z" />
<glyph unicode="&#x159;" horiz-adv-x="394" d="M391 484q-5 -30 -11.5 -60.5t-11.5 -60.5q-43 8 -74 8q-51 0 -78 -24t-27 -86v-261h-127v488h127v-61h2q23 37 57 54t72 17q35 0 71 -14zM341 729l50 -42l-141 -144h-100l-142 144l49 42l141 -97z" />
<glyph unicode="&#x15a;" horiz-adv-x="572" d="M297 662q69 0 127 -21t104 -60l-76 -96q-38 32 -79.5 46.5t-83.5 14.5q-49 0 -71.5 -20t-22.5 -48q0 -18 10 -30.5t26.5 -21.5t37.5 -16t44 -14q36 -10 77 -23.5t76 -36.5t58 -58.5t23 -90.5q0 -48 -18 -85t-51.5 -62t-80.5 -38t-105 -13q-74 0 -140 25t-112 69l80 94 q39 -35 85.5 -53t90.5 -18q114 0 114 76q0 33 -29.5 51.5t-102.5 38.5q-52 15 -92.5 31t-68 38.5t-42 53.5t-14.5 76t19 80.5t51 60t75 37.5t91 13zM276 684l-47 54l153 116l96 -83z" />
<glyph unicode="&#x15b;" horiz-adv-x="475" d="M436 138q0 -36 -15 -64t-42 -46.5t-64 -28.5t-81 -10q-51 0 -102 14.5t-95 39.5l43 90q41 -23 80.5 -34t71.5 -11q30 0 53.5 10.5t23.5 35.5q0 28 -23.5 41t-65.5 26q-83 25 -125 58.5t-42 94.5q0 65 51 104.5t141 39.5q96 0 178 -43l-40 -92q-42 23 -77 29.5t-58 6.5 q-31 0 -50 -12.5t-19 -28.5q0 -18 16.5 -31t59.5 -25q42 -12 75.5 -25.5t57 -32.5t36 -45t12.5 -61zM249 541l-68 22l77 186l125 -23z" />
<glyph unicode="&#x15c;" horiz-adv-x="572" d="M297 662q69 0 127 -21t104 -60l-76 -96q-38 32 -79.5 46.5t-83.5 14.5q-49 0 -71.5 -20t-22.5 -48q0 -18 10 -30.5t26.5 -21.5t37.5 -16t44 -14q36 -10 77 -23.5t76 -36.5t58 -58.5t23 -90.5q0 -48 -18 -85t-51.5 -62t-80.5 -38t-105 -13q-74 0 -140 25t-112 69l80 94 q39 -35 85.5 -53t90.5 -18q114 0 114 76q0 33 -29.5 51.5t-102.5 38.5q-52 15 -92.5 31t-68 38.5t-42 53.5t-14.5 76t19 80.5t51 60t75 37.5t91 13zM291 769l-140 -90l-50 42l143 137h99l142 -137l-50 -43z" />
<glyph unicode="&#x15d;" horiz-adv-x="475" d="M436 138q0 -36 -15 -64t-42 -46.5t-64 -28.5t-81 -10q-51 0 -102 14.5t-95 39.5l43 90q41 -23 80.5 -34t71.5 -11q30 0 53.5 10.5t23.5 35.5q0 28 -23.5 41t-65.5 26q-83 25 -125 58.5t-42 94.5q0 65 51 104.5t141 39.5q96 0 178 -43l-40 -92q-42 23 -77 29.5t-58 6.5 q-31 0 -50 -12.5t-19 -28.5q0 -18 16.5 -31t59.5 -25q42 -12 75.5 -25.5t57 -32.5t36 -45t12.5 -61zM238 630l-140 -97l-50 42l143 144h99l142 -144l-50 -43z" />
<glyph unicode="&#x15e;" horiz-adv-x="572" d="M297 662q69 0 127 -21t104 -60l-76 -96q-38 32 -79.5 46.5t-83.5 14.5q-49 0 -71.5 -20t-22.5 -48q0 -18 10 -30.5t26.5 -21.5t37.5 -16t44 -14q36 -10 77 -23.5t76 -36.5t58 -58.5t23 -90.5q0 -47 -17.5 -83.5t-49.5 -61.5t-77.5 -38.5t-100.5 -14.5l-9 -29 q32 -2 52.5 -11t32.5 -21.5t17 -27t5 -26.5q0 -15 -5.5 -31.5t-20 -30.5t-38 -23t-58.5 -9q-21 0 -46 4.5t-52 15.5l19 54q21 -8 38 -11.5t32 -3.5q20 0 33.5 9t13.5 25q0 17 -12.5 25.5t-31.5 8.5q-5 0 -15 -2l-28 26l19 61q-62 6 -115.5 30t-92.5 61l80 94 q39 -35 85.5 -53t90.5 -18q114 0 114 76q0 33 -29.5 51.5t-102.5 38.5q-52 15 -92.5 31t-68 38.5t-42 53.5t-14.5 76t19 80.5t51 60t75 37.5t91 13z" />
<glyph unicode="&#x15f;" horiz-adv-x="475" d="M436 138q0 -34 -13.5 -60.5t-37.5 -45.5t-57.5 -29.5t-73.5 -12.5l-9 -30q32 -2 52.5 -11t32.5 -21.5t17 -27t5 -26.5q0 -15 -5.5 -31.5t-20 -30.5t-38 -23t-58.5 -9q-21 0 -46 4.5t-52 15.5l19 54q21 -8 38 -11.5t32 -3.5q20 0 33.5 9t13.5 25q0 17 -12.5 25.5 t-31.5 8.5q-5 0 -15 -2l-28 26l19 60q-43 5 -85 18t-78 34l43 90q41 -23 80.5 -34t71.5 -11q30 0 53.5 10.5t23.5 35.5q0 28 -23.5 41t-65.5 26q-83 25 -125 58.5t-42 94.5q0 65 51 104.5t141 39.5q96 0 178 -43l-40 -92q-42 23 -77 29.5t-58 6.5q-31 0 -50 -12.5t-19 -28.5 q0 -18 16.5 -31t59.5 -25q42 -12 75.5 -25.5t57 -32.5t36 -45t12.5 -61z" />
<glyph unicode="&#x160;" horiz-adv-x="572" d="M297 662q69 0 127 -21t104 -60l-76 -96q-38 32 -79.5 46.5t-83.5 14.5q-49 0 -71.5 -20t-22.5 -48q0 -18 10 -30.5t26.5 -21.5t37.5 -16t44 -14q36 -10 77 -23.5t76 -36.5t58 -58.5t23 -90.5q0 -48 -18 -85t-51.5 -62t-80.5 -38t-105 -13q-74 0 -140 25t-112 69l80 94 q39 -35 85.5 -53t90.5 -18q114 0 114 76q0 33 -29.5 51.5t-102.5 38.5q-52 15 -92.5 31t-68 38.5t-42 53.5t-14.5 76t19 80.5t51 60t75 37.5t91 13zM437 867l51 -42l-142 -137h-100l-142 137l49 42l141 -90z" />
<glyph unicode="&#x161;" horiz-adv-x="475" d="M436 138q0 -36 -15 -64t-42 -46.5t-64 -28.5t-81 -10q-51 0 -102 14.5t-95 39.5l43 90q41 -23 80.5 -34t71.5 -11q30 0 53.5 10.5t23.5 35.5q0 28 -23.5 41t-65.5 26q-83 25 -125 58.5t-42 94.5q0 65 51 104.5t141 39.5q96 0 178 -43l-40 -92q-42 23 -77 29.5t-58 6.5 q-31 0 -50 -12.5t-19 -28.5q0 -18 16.5 -31t59.5 -25q42 -12 75.5 -25.5t57 -32.5t36 -45t12.5 -61zM376 730l50 -42l-141 -144h-100l-142 144l49 42l141 -97z" />
<glyph unicode="&#x162;" horiz-adv-x="541" d="M339 0h-132v537h-190v114h512v-114h-190v-537zM215 -249q25 17 37.5 31.5t14.5 38.5q-26 0 -45 15t-19 47q0 29 20.5 49.5t50.5 20.5q36 0 58 -25.5t22 -65.5q0 -57 -29 -94t-77 -59q-8 11 -16 21t-17 21z" />
<glyph unicode="&#x163;" horiz-adv-x="375" d="M222 488h102v-97h-102v-226q0 -35 12 -48.5t44 -13.5q12 0 26.5 1.5t33.5 3.5l10 -98q-26 -8 -57.5 -14t-59.5 -6q-62 0 -97.5 32t-35.5 106v263h-73v97h75v113l122 48v-161zM134 -249q25 17 37.5 31.5t14.5 38.5q-26 0 -45 15t-19 47q0 29 20.5 49.5t50.5 20.5 q36 0 58 -25.5t22 -65.5q0 -57 -29 -94t-77 -59q-8 11 -16 21t-17 21z" />
<glyph unicode="&#x164;" horiz-adv-x="541" d="M339 0h-132v537h-190v114h512v-114h-190v-537zM416 867l51 -42l-142 -137h-100l-142 137l49 42l141 -90z" />
<glyph unicode="&#x165;" horiz-adv-x="437" d="M298 575q25 17 37 31.5t15 38.5q-26 2 -41.5 21.5t-15.5 44.5t18 45.5t45 20.5q37 0 59 -25.5t22 -65.5q0 -57 -29.5 -94t-76.5 -59zM222 488h102v-97h-102v-226q0 -35 12 -48.5t44 -13.5q12 0 26.5 1.5t33.5 3.5l10 -98q-26 -8 -57.5 -14t-59.5 -6q-62 0 -97.5 32 t-35.5 106v263h-73v97h75v113l122 48v-161z" />
<glyph unicode="&#x166;" horiz-adv-x="541" d="M339 387h181v-81h-181v-306h-132v306h-182v81h182v150h-190v114h512v-114h-190v-150z" />
<glyph unicode="&#x167;" horiz-adv-x="375" d="M226 488h102v-97h-102v-93h92v-76h-92v-57q0 -35 12 -48.5t44 -13.5q12 0 26.5 1.5t33.5 3.5l10 -98q-26 -8 -57.5 -14t-59.5 -6q-62 0 -97.5 32t-35.5 106v94h-75v76h75v93h-73v97h75v113l122 48v-161z" />
<glyph unicode="&#x168;" horiz-adv-x="651" d="M325 -10q-61 0 -110 18t-83 53.5t-52.5 89t-18.5 124.5v376h133v-371q0 -81 33.5 -126t99.5 -45q69 0 101.5 43t32.5 123v376h134v-377q0 -72 -19 -125t-54 -88.5t-85 -53t-112 -17.5zM406 700q-17 0 -36.5 7.5t-39 16.5t-38.5 16.5t-34 7.5q-17 0 -32 -9t-34 -38l-54 23 q10 33 24.5 55.5t31 35.5t33.5 18.5t33 5.5q18 0 38.5 -7.5t40.5 -17t38.5 -17t33.5 -7.5q18 0 31.5 9t31.5 33l52 -25q-22 -60 -53 -83.5t-67 -23.5z" />
<glyph unicode="&#x169;" horiz-adv-x="533" d="M51 488h127v-282q0 -46 20 -72.5t62 -26.5q31 0 54.5 13.5t33.5 47.5q5 20 5 44v276h127v-488h-127v51h-3q-29 -32 -63.5 -46.5t-68.5 -14.5q-87 0 -127 47.5t-40 137.5v313zM348 557q-17 0 -36.5 7.5t-39 16.5t-38.5 16.5t-34 7.5q-17 0 -32 -9t-34 -38l-54 23 q10 33 24.5 55.5t31 35.5t33.5 18.5t33 5.5q18 0 38.5 -7.5t40.5 -17t38.5 -17t33.5 -7.5q18 0 31.5 9t31.5 33l52 -25q-22 -60 -53 -83.5t-67 -23.5z" />
<glyph unicode="&#x16a;" horiz-adv-x="651" d="M325 -10q-61 0 -110 18t-83 53.5t-52.5 89t-18.5 124.5v376h133v-371q0 -81 33.5 -126t99.5 -45q69 0 101.5 43t32.5 123v376h134v-377q0 -72 -19 -125t-54 -88.5t-85 -53t-112 -17.5zM191 812h269v-90h-269v90z" />
<glyph unicode="&#x16b;" horiz-adv-x="533" d="M51 488h127v-282q0 -46 20 -72.5t62 -26.5q31 0 54.5 13.5t33.5 47.5q5 20 5 44v276h127v-488h-127v51h-3q-29 -32 -63.5 -46.5t-68.5 -14.5q-87 0 -127 47.5t-40 137.5v313zM140 671h269v-90h-269v90z" />
<glyph unicode="&#x16c;" horiz-adv-x="651" d="M325 -10q-61 0 -110 18t-83 53.5t-52.5 89t-18.5 124.5v376h133v-371q0 -81 33.5 -126t99.5 -45q69 0 101.5 43t32.5 123v376h134v-377q0 -72 -19 -125t-54 -88.5t-85 -53t-112 -17.5zM258 843q5 -28 21.5 -46.5t47.5 -18.5q33 0 48.5 21.5t15.5 43.5h89 q0 -22 -7.5 -47.5t-25 -48t-47 -37.5t-73.5 -15q-45 0 -75 15t-48 37.5t-25.5 48t-7.5 47.5h87z" />
<glyph unicode="&#x16d;" horiz-adv-x="533" d="M51 488h127v-282q0 -46 20 -72.5t62 -26.5q31 0 54.5 13.5t33.5 47.5q5 20 5 44v276h127v-488h-127v51h-3q-29 -32 -63.5 -46.5t-68.5 -14.5q-87 0 -127 47.5t-40 137.5v313zM201 700q5 -28 21.5 -46.5t47.5 -18.5q33 0 48.5 21.5t15.5 43.5h89q0 -22 -7.5 -47.5t-25 -48 t-47 -37.5t-73.5 -15q-45 0 -75 15t-48 37.5t-25.5 48t-7.5 47.5h87z" />
<glyph unicode="&#x16e;" horiz-adv-x="651" d="M325 -10q-61 0 -110 18t-83 53.5t-52.5 89t-18.5 124.5v376h133v-371q0 -81 33.5 -126t99.5 -45q69 0 101.5 43t32.5 123v376h134v-377q0 -72 -19 -125t-54 -88.5t-85 -53t-112 -17.5zM329 651q-23 0 -43 8t-35 22t-23.5 34t-8.5 44q0 23 8.5 42.5t23.5 34t35 23t43 8.5 t43 -8.5t35 -23t23.5 -34t8.5 -42.5q0 -47 -31.5 -77.5t-78.5 -30.5zM329 807q-20 0 -33 -14t-13 -33q0 -22 13 -35.5t33 -13.5t33 13.5t13 35.5q0 20 -12.5 33.5t-33.5 13.5z" />
<glyph unicode="&#x16f;" horiz-adv-x="533" d="M51 488h127v-282q0 -46 20 -72.5t62 -26.5q31 0 54.5 13.5t33.5 47.5q5 20 5 44v276h127v-488h-127v51h-3q-29 -32 -63.5 -46.5t-68.5 -14.5q-87 0 -127 47.5t-40 137.5v313zM274 538q-23 0 -43 8t-35 22t-23.5 34t-8.5 44q0 23 8.5 42.5t23.5 34t35 23t43 8.5t43 -8.5 t35 -23t23.5 -34t8.5 -42.5q0 -47 -31.5 -77.5t-78.5 -30.5zM274 694q-20 0 -33 -14t-13 -33q0 -22 13 -35.5t33 -13.5t33 13.5t13 35.5q0 20 -12.5 33.5t-33.5 13.5z" />
<glyph unicode="&#x170;" horiz-adv-x="651" d="M325 -10q-61 0 -110 18t-83 53.5t-52.5 89t-18.5 124.5v376h133v-371q0 -81 33.5 -126t99.5 -45q69 0 101.5 43t32.5 123v376h134v-377q0 -72 -19 -125t-54 -88.5t-85 -53t-112 -17.5zM221 687l-55 46l134 138l108 -67zM412 682l-54 46l133 138l108 -67z" />
<glyph unicode="&#x171;" horiz-adv-x="533" d="M51 488h127v-282q0 -46 20 -72.5t62 -26.5q31 0 54.5 13.5t33.5 47.5q5 20 5 44v276h127v-488h-127v51h-3q-29 -32 -63.5 -46.5t-68.5 -14.5q-87 0 -127 47.5t-40 137.5v313zM201 543l-68 23l74 177l125 -23zM377 541l-68 22l74 177l124 -22z" />
<glyph unicode="&#x172;" horiz-adv-x="651" d="M595 274q0 -66 -16 -116.5t-46 -85.5t-73 -55t-96 -25q-37 -50 -37 -87q0 -22 13 -33.5t36 -11.5q29 0 60 14q5 -15 11 -29.5t11 -28.5q-20 -11 -48 -18.5t-54 -7.5q-45 0 -76 24t-31 69q0 21 10.5 48.5t36.5 59.5q-110 8 -172.5 79t-62.5 205v376h133v-371 q0 -81 33.5 -126t99.5 -45q69 0 101.5 43t32.5 123v376h134v-377v0z" />
<glyph unicode="&#x173;" horiz-adv-x="533" d="M51 488h127v-282q0 -46 20 -72.5t62 -26.5q31 0 54.5 13.5t33.5 47.5q5 20 5 44v276h127v-488h-63q-43 -56 -43 -95q0 -22 13 -33.5t36 -11.5q29 0 60 14q5 -15 11 -29.5t11 -28.5q-20 -11 -48 -18.5t-54 -7.5q-45 0 -76 24t-31 69q0 23 13 53t44 66v49h-3 q-29 -32 -63.5 -46.5t-68.5 -14.5q-87 0 -127 47.5t-40 137.5v313z" />
<glyph unicode="&#x174;" horiz-adv-x="829" d="M416 452l-19 -86q-23 -94 -44.5 -187.5t-42.5 -178.5h-142q-36 164 -73 325.5t-74 325.5h140q5 -28 10.5 -58t13.5 -71t18.5 -98t26.5 -138l17 -99h4q5 25 10 49.5t10 49.5q21 91 41.5 182t40.5 183h129l84 -369q5 -24 9.5 -47.5t9.5 -47.5h3l17 95q16 85 34 181t36 188 h137l-147 -651h-143q-22 91 -43 181.5t-42 181.5l-19 89h-2zM417 769l-140 -90l-50 42l143 137h99l142 -137l-50 -43z" />
<glyph unicode="&#x175;" horiz-adv-x="703" d="M346 324l-21 -88l-61 -236h-123l-134 488h128l47 -207l24 -123h4l29 123l52 207h118l55 -217l25 -115h3l24 119l49 213h128l-138 -488h-125l-60 233l-22 91h-2zM344 630l-140 -97l-50 42l143 144h99l142 -144l-50 -43z" />
<glyph unicode="&#x176;" horiz-adv-x="625" d="M378 224v-224h-132v223l-242 428h147l81 -159l81 -159l82 161l80 157h146zM310 769l-140 -90l-50 42l143 137h99l142 -137l-50 -43z" />
<glyph unicode="&#x177;" horiz-adv-x="513" d="M133 -191l64 176l-188 503h131l73 -218l41 -138h4l44 138l74 218h126l-248 -679h-121zM263 630l-140 -97l-50 42l143 144h99l142 -144l-50 -43z" />
<glyph unicode="&#x178;" horiz-adv-x="625" d="M378 224v-224h-132v223l-242 428h147l81 -159l81 -159l82 161l80 157h146zM218 703q-27 0 -47 19.5t-20 45.5q0 27 20 46.5t47 19.5q26 0 46 -19.5t20 -46.5q0 -26 -20 -45.5t-46 -19.5zM430 703q-28 0 -47.5 19.5t-19.5 45.5q0 27 19.5 46.5t47.5 19.5q26 0 45 -19.5 t19 -46.5q0 -26 -19 -45.5t-45 -19.5z" />
<glyph unicode="&#x179;" horiz-adv-x="582" d="M38 107l355 430h-336v114h492v-108l-355 -428h356v-115h-512v107zM278 684l-47 54l153 116l96 -83z" />
<glyph unicode="&#x17a;" horiz-adv-x="480" d="M437 488v-96l-255 -291l1 -2h258v-99h-406v97q63 72 125 144t125 145v1l-1 1h-234v100h387zM258 541l-68 22l77 186l125 -23z" />
<glyph unicode="&#x17b;" horiz-adv-x="582" d="M38 107l355 430h-336v114h492v-108l-355 -428h356v-115h-512v107zM241 765q0 29 20 49.5t49 20.5t49.5 -20.5t20.5 -49.5t-20.5 -49.5t-49.5 -20.5t-49 20.5t-20 49.5z" />
<glyph unicode="&#x17c;" horiz-adv-x="480" d="M437 488v-96l-255 -291l1 -2h258v-99h-406v97q63 72 125 144t125 145v1l-1 1h-234v100h387zM187 626q0 29 20 49.5t49 20.5t49.5 -20.5t20.5 -49.5t-20.5 -49.5t-49.5 -20.5t-49 20.5t-20 49.5z" />
<glyph unicode="&#x17d;" horiz-adv-x="582" d="M38 107l355 430h-336v114h492v-108l-355 -428h356v-115h-512v107zM453 867l51 -42l-142 -137h-100l-142 137l49 42l141 -90z" />
<glyph unicode="&#x17e;" horiz-adv-x="480" d="M437 488v-96l-255 -291l1 -2h258v-99h-406v97q63 72 125 144t125 145v1l-1 1h-234v100h387zM387 730l50 -42l-141 -144h-100l-142 144l49 42l141 -97z" />
<glyph unicode="&#x192;" horiz-adv-x="640" d="M162 418h96q5 40 14 87t30.5 87t59.5 66.5t102 26.5q32 0 58 -5.5t43 -13.5l-28 -100q-21 6 -34 7.5t-27 1.5q-26 0 -42 -14.5t-26 -37t-15 -50.5t-9 -55h98v-99h-112q-3 -21 -6.5 -48t-8 -56t-8.5 -56t-7 -48q-7 -47 -18.5 -86.5t-32 -68t-53 -44.5t-80.5 -16 q-23 0 -54.5 6.5t-55.5 17.5l33 96q33 -11 55 -11q38 0 54.5 32t25.5 86q8 50 14.5 97.5t14.5 98.5h-81v99z" />
<glyph unicode="&#x1a0;" horiz-adv-x="666" d="M331 -11q-71 0 -124.5 25.5t-89.5 70t-54.5 106t-18.5 133.5t18.5 134t55 107t90 70.5t124.5 25.5q38 0 71 -8t62 -22h4q21 0 35.5 4.5t23.5 16t12.5 31t3.5 48.5v37h99v-53q0 -120 -92 -157q69 -89 69 -233q0 -76 -19.5 -138t-57 -106t-91 -68t-121.5 -24zM331 542 q-38 0 -66 -16t-47 -45t-28 -68.5t-9 -86.5t9.5 -86.5t28.5 -69t47 -46t66 -16.5t66.5 17.5t47 47t28 69t9.5 83.5q0 47 -9.5 87t-28.5 69t-47.5 45t-66.5 16z" />
<glyph unicode="&#x1a1;" horiz-adv-x="574" d="M275 -11q-53 0 -95.5 18t-72.5 51t-46.5 80t-16.5 105q0 60 17 107.5t48 80t74 50t94 17.5q74 0 130 -37q38 2 52.5 23t14.5 77v37h98v-53q0 -62 -23.5 -102t-72.5 -57q16 -29 24.5 -64t8.5 -77q0 -60 -17.5 -107.5t-48.5 -80.5t-74 -50.5t-94 -17.5zM274 393 q-50 0 -76 -42t-26 -106q0 -72 27 -111.5t78 -39.5q25 0 44.5 11.5t32.5 32t20 47.5t7 58q0 67 -27 108.5t-80 41.5z" />
<glyph unicode="&#x1af;" horiz-adv-x="738" d="M325 -10q-61 0 -110 18t-83 53.5t-52.5 89t-18.5 124.5v376h133v-371q0 -81 33.5 -126t99.5 -45q69 0 101.5 43t32.5 123v376h134v-22q32 4 44.5 25.5t12.5 73.5v39h97v-55q0 -78 -38.5 -123.5t-115.5 -47.5v-267q0 -72 -19 -125t-54 -88.5t-85 -53t-112 -17.5z" />
<glyph unicode="&#x1b0;" horiz-adv-x="621" d="M51 488h127v-282q0 -46 20 -72.5t62 -26.5q31 0 54.5 13.5t33.5 47.5q5 20 5 44v276h127v-27q34 3 47 24.5t13 75.5v37h98v-53q0 -78 -38.5 -122.5t-119.5 -46.5v-376h-127v51h-3q-29 -32 -63.5 -46.5t-68.5 -14.5q-87 0 -127 47.5t-40 137.5v313z" />
<glyph unicode="&#x1fc;" horiz-adv-x="930" d="M445 152h-208q-22 -38 -43 -76t-43 -76h-145l367 651h525v-115h-314v-138h216v-114h-216v-169h325v-115h-464v152zM294 258h151v278zM550 684l-47 54l153 116l96 -83z" />
<glyph unicode="&#x1fd;" horiz-adv-x="817" d="M780 206h-315q5 -59 35.5 -86t76.5 -27q30 0 61 11t55 28l56 -81q-46 -35 -89 -48t-94 -13q-53 0 -96.5 18t-72.5 56q-31 -24 -56 -38.5t-47 -22.5t-42.5 -11t-42.5 -3q-34 0 -66 9t-56.5 28.5t-39 50t-14.5 72.5q0 39 15.5 69t42 50t60 30.5t69.5 10.5q32 0 59.5 -6.5 t58.5 -20.5q0 7 0.5 17.5t1.5 20.5q2 36 -23 57t-71 21q-34 0 -66 -8t-65 -24l-35 93q39 20 87 30t99 10q53 0 91 -14.5t62 -40.5q29 26 65.5 40t79.5 14q55 0 95.5 -19t67.5 -52t40 -78.5t13 -98.5v-44zM238 85q14 0 30 4.5t31.5 12t29.5 17t24 20.5q-8 24 -13 58 q-19 11 -44 18.5t-54 7.5q-35 0 -60 -17.5t-25 -50.5q0 -32 22 -51t59 -19zM654 288q-1 45 -22.5 77t-72.5 32q-35 0 -63 -28t-31 -81h189zM442 541l-68 22l77 186l125 -23z" />
<glyph unicode="&#x1fe;" horiz-adv-x="664" d="M331 -11q-57 0 -101.5 16t-79.5 45l-54 -68l-44 36l59 74q-33 45 -50 104t-17 128q0 72 18.5 134t55 107t90 70.5t124.5 25.5q55 0 100.5 -16t80.5 -46l58 73l46 -37l-64 -80q32 -44 49.5 -102t17.5 -128q0 -76 -19.5 -138t-57 -106t-91 -68t-121.5 -24zM331 542 q-38 0 -66 -16t-47 -45t-28 -68.5t-9 -86.5q0 -34 4.5 -64t15.5 -56l231 291q-18 21 -43.5 33t-57.5 12zM483 325q0 66 -19 118l-232 -290q37 -45 100 -45q38 0 66.5 17.5t47 47t28 69t9.5 83.5zM320 684l-47 54l153 116l96 -83z" />
<glyph unicode="&#x1ff;" horiz-adv-x="552" d="M275 -11q-80 0 -135 40q-11 -14 -21 -26t-20 -26l-43 30l45 57q-57 68 -57 179q0 60 17 107.5t48 80t74 50t94 17.5q76 0 132 -39q10 12 18.5 24t18.5 24l43 -32l-40 -51q29 -32 44.5 -77.5t15.5 -101.5q0 -60 -17.5 -107.5t-48.5 -80.5t-74 -50.5t-94 -17.5zM300 541 l-68 22l77 186l125 -23zM211 119q27 -25 66 -25q25 0 44.5 11.5t32.5 32t20 47.5t7 58q0 45 -12 78zM274 393q-50 0 -76 -42t-26 -106q0 -46 10 -76l156 200q-27 24 -64 24z" />
<glyph unicode="&#x218;" horiz-adv-x="572" d="M297 662q69 0 127 -21t104 -60l-76 -96q-38 32 -79.5 46.5t-83.5 14.5q-49 0 -71.5 -20t-22.5 -48q0 -18 10 -30.5t26.5 -21.5t37.5 -16t44 -14q36 -10 77 -23.5t76 -36.5t58 -58.5t23 -90.5q0 -48 -18 -85t-51.5 -62t-80.5 -38t-105 -13q-74 0 -140 25t-112 69l80 94 q39 -35 85.5 -53t90.5 -18q114 0 114 76q0 33 -29.5 51.5t-102.5 38.5q-52 15 -92.5 31t-68 38.5t-42 53.5t-14.5 76t19 80.5t51 60t75 37.5t91 13zM238 -249q25 17 37.5 31.5t14.5 38.5q-26 0 -45 15t-19 47q0 29 20.5 49.5t50.5 20.5q36 0 58 -25.5t22 -65.5 q0 -57 -29 -94t-77 -59q-8 11 -16 21t-17 21z" />
<glyph unicode="&#x219;" horiz-adv-x="475" d="M436 138q0 -36 -15 -64t-42 -46.5t-64 -28.5t-81 -10q-51 0 -102 14.5t-95 39.5l43 90q41 -23 80.5 -34t71.5 -11q30 0 53.5 10.5t23.5 35.5q0 28 -23.5 41t-65.5 26q-83 25 -125 58.5t-42 94.5q0 65 51 104.5t141 39.5q96 0 178 -43l-40 -92q-42 23 -77 29.5t-58 6.5 q-31 0 -50 -12.5t-19 -28.5q0 -18 16.5 -31t59.5 -25q42 -12 75.5 -25.5t57 -32.5t36 -45t12.5 -61zM170 -249q25 17 37.5 31.5t14.5 38.5q-26 0 -45 15t-19 47q0 29 20.5 49.5t50.5 20.5q36 0 58 -25.5t22 -65.5q0 -57 -29 -94t-77 -59q-8 11 -16 21t-17 21z" />
<glyph unicode="&#x259;" horiz-adv-x="520" d="M253 -10q-55 0 -95.5 19t-67 53t-39.5 79.5t-13 99.5v20.5t1 19.5h315q-7 61 -36.5 87t-77.5 26q-29 0 -56 -10t-52 -27l-53 79q45 35 83.5 48.5t88.5 13.5q53 0 95.5 -17.5t72.5 -50.5t46 -80t16 -106t-16.5 -106t-46.5 -80t-72 -50.5t-93 -17.5zM162 200q2 -23 8 -43 t17 -35t28.5 -24t43.5 -9q36 0 62.5 28t31.5 83h-191z" />
<glyph unicode="&#x2b9;" horiz-adv-x="240" d="M74 404l-68 22l127 300l134 -25z" />
<glyph unicode="&#x2c6;" horiz-adv-x="533" d="M263 630l-140 -97l-50 42l143 144h99l142 -144l-50 -43z" />
<glyph unicode="&#x2c7;" horiz-adv-x="477" d="M385 729l50 -42l-141 -144h-100l-142 144l49 42l141 -97z" />
<glyph unicode="&#x2d8;" horiz-adv-x="523" d="M208 700q5 -28 21.5 -46.5t47.5 -18.5q33 0 48.5 21.5t15.5 43.5h89q0 -22 -7.5 -47.5t-25 -48t-47 -37.5t-73.5 -15q-45 0 -75 15t-48 37.5t-25.5 48t-7.5 47.5h87z" />
<glyph unicode="&#x2d9;" horiz-adv-x="355" d="M114 626q0 29 20 49.5t49 20.5t49.5 -20.5t20.5 -49.5t-20.5 -49.5t-49.5 -20.5t-49 20.5t-20 49.5z" />
<glyph unicode="&#x2da;" horiz-adv-x="508" d="M275 538q-23 0 -43 8t-35 22t-23.5 34t-8.5 44q0 23 8.5 42.5t23.5 34t35 23t43 8.5t43 -8.5t35 -23t23.5 -34t8.5 -42.5q0 -47 -31.5 -77.5t-78.5 -30.5zM275 694q-20 0 -33 -14t-13 -33q0 -22 13 -35.5t33 -13.5t33 13.5t13 35.5q0 20 -12.5 33.5t-33.5 13.5z" />
<glyph unicode="&#x2db;" horiz-adv-x="366" d="M213 2q-46 -59 -46 -99q0 -22 13 -33.5t36 -11.5q29 0 60 14q5 -15 11 -29.5t11 -28.5q-20 -11 -48 -18.5t-54 -7.5q-45 0 -76 24t-31 69q0 23 14 54.5t47 69.5h63v-3z" />
<glyph unicode="&#x2dc;" horiz-adv-x="520" d="M337 557q-17 0 -36.5 7.5t-39 16.5t-38.5 16.5t-34 7.5q-17 0 -32 -9t-34 -38l-54 23q10 33 24.5 55.5t31 35.5t33.5 18.5t33 5.5q18 0 38.5 -7.5t40.5 -17t38.5 -17t33.5 -7.5q18 0 31.5 9t31.5 33l52 -25q-22 -60 -53 -83.5t-67 -23.5z" />
<glyph unicode="&#x2dd;" horiz-adv-x="604" d="M259 543l-68 23l74 177l125 -23zM435 541l-68 22l74 177l124 -22z" />
<glyph unicode="&#x384;" horiz-adv-x="504" d="M265 543l-68 23l77 186l125 -23z" />
<glyph unicode="&#x385;" horiz-adv-x="525" d="M422 558q-28 0 -47.5 19.5t-19.5 45.5q0 27 19.5 46.5t47.5 19.5q26 0 45.5 -19.5t19.5 -46.5q0 -26 -19.5 -45.5t-45.5 -19.5zM108 558q-26 0 -46 19.5t-20 45.5q0 27 20 46.5t46 19.5q27 0 46.5 -19.5t19.5 -46.5q0 -26 -19.5 -45.5t-46.5 -19.5zM250 543l-69 20 l70 179l125 -19z" />
<glyph unicode="&#x386;" horiz-adv-x="668" d="M43 484l-68 23l77 186l125 -23zM470 138h-268l-48 -138h-138l247 651h150l248 -651h-142zM335 519q-3 -10 -9 -28t-12.5 -36.5t-12 -35.5t-8.5 -25l-54 -150h194l-59 168q-3 8 -7.5 22t-10 29.5t-10.5 30.5t-8 25h-3z" />
<glyph unicode="&#x387;" horiz-adv-x="259" d="M130 276q-32 0 -53.5 22t-21.5 54q0 37 24 56.5t52 19.5q32 0 52.5 -22t20.5 -54t-21.5 -54t-52.5 -22z" />
<glyph unicode="&#x388;" horiz-adv-x="549" d="M61 651h459v-114h-327v-138h229v-115h-229v-169h338v-115h-470v651zM-100 483l-68 23l77 186l125 -23z" />
<glyph unicode="&#x389;" horiz-adv-x="656" d="M462 278h-269v-278h-133v651h133v-257h269v257h133v-651h-133v278zM-102 483l-68 23l77 186l125 -23z" />
<glyph unicode="&#x38a;" horiz-adv-x="273" d="M73 651h134v-651h-134v651zM-93 481l-68 23l77 186l125 -23z" />
<glyph unicode="&#x38c;" horiz-adv-x="664" d="M331 -11q-71 0 -124.5 25.5t-89.5 70t-54.5 106t-18.5 133.5t18.5 134t55 107t90 70.5t124.5 25.5q67 0 120.5 -24t91 -68.5t57 -106.5t19.5 -137q0 -76 -19.5 -138t-57 -106t-91 -68t-121.5 -24zM331 542q-38 0 -66 -16t-47 -45t-28 -68.5t-9 -86.5t9.5 -86.5t28.5 -69 t47 -46t66 -16.5t66.5 17.5t47 47t28 69t9.5 83.5q0 47 -9.5 87t-28.5 69t-47.5 45t-66.5 16zM-43 484l-68 23l77 186l125 -23z" />
<glyph unicode="&#x38e;" horiz-adv-x="637" d="M378 224v-224h-132v223l-242 428h147l81 -159l81 -159l82 161l80 157h146zM-140 484l-68 23l77 186l125 -23z" />
<glyph unicode="&#x38f;" horiz-adv-x="690" d="M344 661q66 0 120 -22.5t92.5 -64.5t59 -101.5t20.5 -132.5q0 -64 -20.5 -126t-70.5 -103h96v-111h-249v124q54 19 81 73.5t27 133.5q0 47 -10 86t-30 66.5t-49 43t-67 15.5q-37 0 -66 -15.5t-48.5 -43t-30 -65t-10.5 -82.5q0 -81 26 -136t82 -75v-125h-251v110h96 q-23 18 -40 43t-27.5 54.5t-15.5 62t-5 65.5q0 75 20.5 135t58.5 102.5t91.5 65.5t119.5 23zM-40 485l-68 23l77 186l125 -23z" />
<glyph unicode="&#x390;" horiz-adv-x="308" d="M314 558q-28 0 -47.5 19.5t-19.5 45.5q0 27 19.5 46.5t47.5 19.5q26 0 45.5 -19.5t19.5 -46.5q0 -26 -19.5 -45.5t-45.5 -19.5zM0 558q-26 0 -46 19.5t-20 45.5q0 27 20 46.5t46 19.5q27 0 46.5 -19.5t19.5 -46.5q0 -26 -19.5 -45.5t-46.5 -19.5zM142 543l-69 20l70 179 l125 -19zM95 488h126v-488h-126v488z" />
<glyph unicode="&#x391;" horiz-adv-x="668" d="M470 138h-268l-48 -138h-138l247 651h150l248 -651h-142zM335 519q-3 -10 -9 -28t-12.5 -36.5t-12 -35.5t-8.5 -25l-54 -150h194l-59 168q-3 8 -7.5 22t-10 29.5t-10.5 30.5t-8 25h-3z" />
<glyph unicode="&#x392;" horiz-adv-x="623" d="M465 352q22 -7 42.5 -21t36 -33.5t25 -44.5t9.5 -54q0 -94 -59.5 -146.5t-168.5 -52.5h-288v651h291q45 0 81.5 -10.5t62.5 -31.5t40.5 -51.5t14.5 -70.5q0 -47 -26 -82t-61 -50v-3zM194 537v-137h143q38 0 60 19t22 51t-20.5 49.5t-59.5 17.5h-145zM194 290v-175h145 q102 0 102 88q0 45 -29.5 66t-72.5 21h-145z" />
<glyph unicode="&#x393;" horiz-adv-x="527" d="M61 651h459v-115h-327v-536h-132v651z" />
<glyph unicode="&#x394;" horiz-adv-x="664" d="M9 0q63 164 124 325.5t123 325.5h150l248 -651h-645zM472 113q-23 63 -46 127t-45 127l-50 144h-4q-11 -37 -23.5 -73t-25.5 -72l-92 -253h286z" />
<glyph unicode="&#x395;" horiz-adv-x="549" d="M61 651h459v-114h-327v-138h229v-115h-229v-169h338v-115h-470v651z" />
<glyph unicode="&#x396;" horiz-adv-x="582" d="M38 107l355 430h-336v114h492v-108l-355 -428h356v-115h-512v107z" />
<glyph unicode="&#x397;" horiz-adv-x="656" d="M462 278h-269v-278h-133v651h133v-257h269v257h133v-651h-133v278z" />
<glyph unicode="&#x398;" horiz-adv-x="678" d="M220 379h237v-100h-237v100zM338 -11q-71 0 -125.5 25.5t-92 70t-57 106t-19.5 133.5t19.5 134t57.5 107t92.5 70.5t125.5 25.5q67 0 122 -24t93 -68.5t59 -106.5t21 -137q0 -76 -21 -138t-59.5 -106t-93 -68t-122.5 -24zM338 542q-38 0 -67.5 -16t-49.5 -45t-30.5 -68.5 t-10.5 -86.5t10.5 -86.5t31 -69t50 -46t67.5 -16.5t67.5 17.5t49.5 47t30.5 69t10.5 83.5q0 47 -10.5 87t-31 69t-50 45t-67.5 16z" />
<glyph unicode="&#x399;" horiz-adv-x="280" d="M73 651h134v-651h-134v651z" />
<glyph unicode="&#x39a;" horiz-adv-x="618" d="M462 0l-162 309l-108 -132v-177h-132v651h132v-295h3l64 84l168 211h152l-190 -233l224 -418h-151z" />
<glyph unicode="&#x39b;" horiz-adv-x="636" d="M365 351l-45 149h-5l-46 -154l-117 -346h-141l232 651h151l230 -651h-142z" />
<glyph unicode="&#x39c;" horiz-adv-x="754" d="M560 0v379h-3l-73 -155l-109 -224l-101 210l-79 169h-3v-379h-130v651h132l95 -200l85 -184h5l81 176l99 208h131v-651h-130z" />
<glyph unicode="&#x39d;" horiz-adv-x="653" d="M478 0l-187 280l-98 153h-3v-433h-131v651h124l168 -251l111 -174h3v425h131v-651h-118z" />
<glyph unicode="&#x39e;" horiz-adv-x="555" d="M516 537h-173v-139h112v-113h-112v-171h185v-114h-497v114h179v171h-109v113h109v139h-168v114h474v-114z" />
<glyph unicode="&#x39f;" horiz-adv-x="664" d="M331 -11q-71 0 -124.5 25.5t-89.5 70t-54.5 106t-18.5 133.5t18.5 134t55 107t90 70.5t124.5 25.5q67 0 120.5 -24t91 -68.5t57 -106.5t19.5 -137q0 -76 -19.5 -138t-57 -106t-91 -68t-121.5 -24zM331 542q-38 0 -66 -16t-47 -45t-28 -68.5t-9 -86.5t9.5 -86.5t28.5 -69 t47 -46t66 -16.5t66.5 17.5t47 47t28 69t9.5 83.5q0 47 -9.5 87t-28.5 69t-47.5 45t-66.5 16z" />
<glyph unicode="&#x3a0;" horiz-adv-x="656" d="M463 536h-269v-536h-133v651h534v-651h-132v536z" />
<glyph unicode="&#x3a1;" horiz-adv-x="578" d="M567 444q0 -54 -17 -94t-48 -66.5t-73.5 -39.5t-93.5 -13h-144v-231h-131v651h282q49 0 90.5 -12.5t71.5 -38.5t46.5 -65t16.5 -91zM191 537v-192h144q45 2 70.5 25t25.5 71q0 50 -29.5 73t-75.5 23h-135z" />
<glyph unicode="&#x3a3;" horiz-adv-x="582" d="M378 337l-183 -222h357v-115h-513v107l189 230l-174 206v108h495v-114h-339z" />
<glyph unicode="&#x3a4;" horiz-adv-x="541" d="M339 0h-132v537h-190v114h512v-114h-190v-537z" />
<glyph unicode="&#x3a5;" horiz-adv-x="625" d="M378 224v-224h-132v223l-242 428h147l81 -159l81 -159l82 161l80 157h146z" />
<glyph unicode="&#x3a6;" horiz-adv-x="752" d="M710 331q0 -59 -19 -108.5t-54 -86.5t-85 -59.5t-112 -28.5v-48h-131v49q-59 7 -107.5 30t-83.5 59.5t-54.5 85t-19.5 106.5q0 57 19.5 106t54.5 86t83.5 60.5t107.5 29.5v39h131v-39q62 -7 112 -29.5t85 -59t54 -85t19 -107.5zM579 330q0 31 -7 59.5t-23.5 52t-43 40.5 t-65.5 24v-355q37 7 63.5 24t43.5 41t24.5 53t7.5 61zM309 504q-35 -8 -60.5 -24.5t-42.5 -39.5t-25 -51.5t-8 -58.5q0 -65 32 -113.5t104 -63.5v351z" />
<glyph unicode="&#x3a7;" horiz-adv-x="601" d="M299 231l-132 -231h-148l211 334l-199 317h149l121 -212l122 212h146l-199 -315l210 -336h-148z" />
<glyph unicode="&#x3a8;" horiz-adv-x="749" d="M309 137q-125 11 -191 84.5t-66 207.5v222h128v-226q0 -77 32.5 -118.5t95.5 -52.5v397h130v-397q131 17 131 170v227h129v-222q0 -67 -18 -119t-52 -88.5t-82 -58t-108 -26.5v-137h-129v137z" />
<glyph unicode="&#x3a9;" horiz-adv-x="690" d="M344 661q66 0 120 -22.5t92.5 -64.5t59 -101.5t20.5 -132.5q0 -64 -20.5 -126t-70.5 -103h96v-111h-249v124q54 19 81 73.5t27 133.5q0 47 -10 86t-30 66.5t-49 43t-67 15.5q-37 0 -66 -15.5t-48.5 -43t-30 -65t-10.5 -82.5q0 -81 26 -136t82 -75v-125h-251v110h96 q-23 18 -40 43t-27.5 54.5t-15.5 62t-5 65.5q0 75 20.5 135t58.5 102.5t91.5 65.5t119.5 23z" />
<glyph unicode="&#x3aa;" horiz-adv-x="280" d="M73 651h134v-651h-134v651zM250 701q-28 0 -47.5 19.5t-19.5 45.5q0 27 19.5 46.5t47.5 19.5q26 0 45 -19.5t19 -46.5q0 -26 -19 -45.5t-45 -19.5zM38 701q-27 0 -47 19.5t-20 45.5q0 27 20 46.5t47 19.5q26 0 46 -19.5t20 -46.5q0 -26 -20 -45.5t-46 -19.5z" />
<glyph unicode="&#x3ab;" horiz-adv-x="625" d="M378 224v-224h-132v223l-242 428h147l81 -159l81 -159l82 161l80 157h146zM210 700q-27 0 -47 19.5t-20 45.5q0 27 20 46.5t47 19.5q26 0 46 -19.5t20 -46.5q0 -26 -20 -45.5t-46 -19.5zM422 700q-28 0 -47.5 19.5t-19.5 45.5q0 27 19.5 46.5t47.5 19.5q26 0 45 -19.5 t19 -46.5q0 -26 -19 -45.5t-45 -19.5z" />
<glyph unicode="&#x3ac;" horiz-adv-x="541" d="M300 543l-68 23l77 186l125 -23zM382 0l-13 44h-3q-32 -29 -65.5 -41.5t-68.5 -12.5q-37 0 -71 13t-60 42.5t-41.5 77.5t-15.5 119q0 65 15.5 113t42.5 80t62 47.5t74 15.5q34 0 67 -13t58 -39h3v42h122v-488h-106zM267 393q-42 0 -68 -40t-26 -111q0 -78 25 -112t71 -34 q28 0 52 15.5t41 34.5v194q-17 20 -41.5 36.5t-53.5 16.5z" />
<glyph unicode="&#x3ad;" horiz-adv-x="462" d="M451 71q-42 -45 -96 -63t-110 -18q-37 0 -73 8t-64.5 25t-46 45t-17.5 67q0 33 20.5 64.5t58.5 46.5v1q-38 14 -56 42.5t-18 57.5q0 37 17 65t45 47t63.5 29t72.5 10q53 0 101 -15t87 -55l-68 -79q-29 29 -55.5 39t-49.5 10q-24 0 -40.5 -6.5t-26.5 -15.5t-14.5 -18.5 t-4.5 -15.5q0 -16 5.5 -26t14 -15.5t19.5 -7.5t23 -2h67v-84h-68q-24 0 -46.5 -14t-22.5 -39q0 -11 4.5 -22t14.5 -21t27 -16t41 -6q21 0 52.5 10t73.5 49zM260 543l-68 23l77 186l125 -23z" />
<glyph unicode="&#x3ae;" horiz-adv-x="533" d="M486 0h-127v281q0 52 -20 80t-65 28q-34 0 -57.5 -19t-31.5 -51q-2 -9 -4 -20.5t-2 -23.5v-275h-126v488h126v-52h4q26 30 62.5 46t70.5 16q90 0 130 -52.5t40 -141.5v-304zM259 543l-68 23l77 186l125 -23z" />
<glyph unicode="&#x3af;" horiz-adv-x="271" d="M168 543l-68 23l77 186l125 -23zM73 488h126v-488h-126v488z" />
<glyph unicode="&#x3b0;" horiz-adv-x="542" d="M274 -11q-106 0 -165 56.5t-59 168.5v275h128v-273q0 -63 22 -94t72 -31q54 0 75 31.5t21 93.5v273h127v-275q0 -111 -57.5 -168t-163.5 -57zM432 558q-28 0 -47.5 19.5t-19.5 45.5q0 27 19.5 46.5t47.5 19.5q26 0 45.5 -19.5t19.5 -46.5q0 -26 -19.5 -45.5t-45.5 -19.5z M118 558q-26 0 -46 19.5t-20 45.5q0 27 20 46.5t46 19.5q27 0 46.5 -19.5t19.5 -46.5q0 -26 -19.5 -45.5t-46.5 -19.5zM260 543l-69 20l70 179l125 -19z" />
<glyph unicode="&#x3b1;" horiz-adv-x="541" d="M382 0l-13 44h-3q-32 -29 -65.5 -41.5t-68.5 -12.5q-37 0 -71 13t-60 42.5t-41.5 77.5t-15.5 119q0 65 15.5 113t42.5 80t62 47.5t74 15.5q34 0 67 -13t58 -39h3v42h122v-488h-106zM267 393q-42 0 -68 -40t-26 -111q0 -78 25 -112t71 -34q28 0 52 15.5t41 34.5v194 q-17 20 -41.5 36.5t-53.5 16.5z" />
<glyph unicode="&#x3b2;" horiz-adv-x="538" d="M180 36v-176q-31 -13 -62 -24.5t-63 -24.5v677q0 48 15 87.5t41.5 67.5t64 43t82.5 15q47 0 83 -15t61 -39t37.5 -55.5t12.5 -64.5q0 -20 -5.5 -41t-15.5 -39.5t-24 -33.5t-32 -24l1 -1q24 -8 46 -24t39 -39.5t27 -53t10 -63.5q0 -45 -14 -84.5t-39 -69t-60.5 -47 t-78.5 -17.5q-35 0 -66.5 12.5t-55.5 33.5h-4zM370 210q0 31 -9 54.5t-25 39.5t-36.5 24.5t-43.5 8.5h-26v84q22 1 41 8t33.5 20t22.5 30.5t8 38.5q0 32 -19 55.5t-57 23.5q-40 0 -59.5 -31.5t-19.5 -76.5v-346q14 -17 38.5 -32.5t56.5 -15.5q22 0 39.5 9t30 25t19 36.5 t6.5 44.5z" />
<glyph unicode="&#x3b3;" horiz-adv-x="499" d="M312 37v-191q-32 -13 -63 -25.5t-63 -24.5v245l-177 447h131l54 -157l18.5 -55.5t17 -52.5t13 -41.5t7.5 -22.5h2q14 44 28.5 91t28.5 89l51 149h129z" />
<glyph unicode="&#x3b4;" horiz-adv-x="541" d="M499 226q0 -53 -17 -96t-47 -74.5t-72 -48.5t-92 -17q-53 0 -95.5 16t-72.5 45.5t-46 71.5t-16 93q0 28 8 58t24.5 58t41 52.5t58.5 40.5v2q-34 24 -57.5 52.5t-23.5 72.5q0 33 13.5 60.5t38.5 47t59.5 30.5t75.5 11q98 0 179 -41q-10 -23 -20 -46.5t-20 -47.5 q-41 23 -72 30.5t-55 7.5q-33 0 -50.5 -15.5t-17.5 -35.5t24 -35.5t58 -34.5q33 -18 67.5 -40t62.5 -52t46 -70t18 -95zM370 216q0 49 -21 87t-77 69q-20 -8 -38 -23t-32.5 -36t-23 -45.5t-8.5 -49.5q0 -58 25.5 -91t73.5 -33q27 0 46.5 11.5t31.5 29.5t17.5 39.5t5.5 41.5z " />
<glyph unicode="&#x3b5;" horiz-adv-x="462" d="M451 71q-42 -45 -96 -63t-110 -18q-37 0 -73 8t-64.5 25t-46 45t-17.5 67q0 33 20.5 64.5t58.5 46.5v1q-38 14 -56 42.5t-18 57.5q0 37 17 65t45 47t63.5 29t72.5 10q53 0 101 -15t87 -55l-68 -79q-29 29 -55.5 39t-49.5 10q-24 0 -40.5 -6.5t-26.5 -15.5t-14.5 -18.5 t-4.5 -15.5q0 -16 5.5 -26t14 -15.5t19.5 -7.5t23 -2h67v-84h-68q-24 0 -46.5 -14t-22.5 -39q0 -11 4.5 -22t14.5 -21t27 -16t41 -6q21 0 52.5 10t73.5 49l70 -77v0z" />
<glyph unicode="&#x3b6;" horiz-adv-x="429" d="M285 584q-5 1 -11 1.5t-12 0.5h-191v97h378v-95q-65 -47 -117.5 -94.5t-89 -94.5t-56.5 -92.5t-20 -88.5q0 -18 3.5 -34.5t15 -31.5t33 -28.5t56.5 -25.5l70 -24.5t50 -21.5t30.5 -24.5t10.5 -34.5q0 -18 -8.5 -41.5t-23.5 -48.5t-35 -48.5t-42 -42.5l-73 54q21 31 35 57 t14 37q0 7 -32 15q-56 15 -99 34.5t-72.5 46.5t-45 63t-15.5 84q0 45 17 93.5t48.5 98t77.5 97.5t104 92z" />
<glyph unicode="&#x3b7;" horiz-adv-x="533" d="M486 0h-127v281q0 52 -20 80t-65 28q-34 0 -57.5 -19t-31.5 -51q-2 -9 -4 -20.5t-2 -23.5v-275h-126v488h126v-52h4q26 30 62.5 46t70.5 16q90 0 130 -52.5t40 -141.5v-304z" />
<glyph unicode="&#x3b8;" horiz-adv-x="558" d="M277 -12q-114 0 -173 93t-59 265q0 86 16.5 152t47.5 111t74 68t96 23t96.5 -24t74 -69.5t47.5 -111t17 -147.5q0 -175 -63 -267.5t-174 -92.5zM176 309q0 -219 104 -219q52 0 77 58.5t25 160.5h-206zM277 597q-45 0 -70.5 -46t-30.5 -143h205q-5 97 -31.5 143t-72.5 46z " />
<glyph unicode="&#x3b9;" horiz-adv-x="271" d="M73 488h126v-488h-126v488z" />
<glyph unicode="&#x3ba;" horiz-adv-x="510" d="M357 0q-26 57 -52 113.5t-52 113.5l-74 -90v-137h-126v487h126v-187h2l51 64l98 123h147l-135 -159l156 -328h-141z" />
<glyph unicode="&#x3bb;" horiz-adv-x="505" d="M257 318q-2 -6 -8.5 -24t-14.5 -38.5t-14.5 -38.5t-8.5 -24q-2 -4 -10 -25t-19 -49.5t-23 -60.5t-21 -58h-125l190 470l-23 86q-7 24 -18 36.5t-43 12.5h-10.5t-14.5 -2l-5 97q20 5 38 7.5t32 2.5q30 0 51.5 -7.5t36 -21.5t24.5 -34t18 -45l147 -475q8 -25 16 -32t35 -7 l2 -89q-17 -4 -32 -5t-26 -1q-48 0 -69 19t-33 61l-37 129l-32 116h-3z" />
<glyph unicode="&#x3bc;" horiz-adv-x="537" d="M359 0v49h-3q-46 -52 -100 -52q-43 0 -74 23h-2v-174q-32 -13 -63 -25.5t-63 -24.5v692h127v-276q0 -63 23 -88.5t63 -25.5q61 0 82 55q5 13 7.5 29t2.5 34v272h127v-488h-127z" />
<glyph unicode="&#x3bd;" horiz-adv-x="508" d="M189 0l-178 488h129l78 -237l38 -123h3l38 125l76 235h127l-177 -488h-134z" />
<glyph unicode="&#x3be;" horiz-adv-x="428" d="M157 198q0 -43 29.5 -67t84.5 -42q45 -15 74 -25.5t45 -21.5t22 -24t6 -32q0 -18 -8.5 -40t-23 -44.5t-33.5 -44.5t-40 -41l-73 53q20 29 34 53.5t14 35.5q0 8 -18.5 14.5t-34.5 11.5q-45 14 -82 29.5t-63.5 38t-41.5 55t-15 81.5q0 23 6.5 49t20 51t35 46.5t50.5 34.5v3 q-30 11 -49 28.5t-30 38t-15 41.5t-4 39q0 43 16.5 77t45 57.5t66 36t79.5 12.5q50 0 101 -13.5t88 -53.5q-15 -20 -30.5 -40.5t-31.5 -40.5q-23 21 -53 32.5t-63 11.5q-45 0 -70.5 -25.5t-25.5 -63.5q0 -23 9.5 -40t24.5 -28.5t32.5 -17.5t34.5 -6h106v-91h-98 q-28 0 -50.5 -10t-38 -27.5t-24 -41t-8.5 -49.5z" />
<glyph unicode="&#x3bf;" horiz-adv-x="553" d="M275 -11q-53 0 -95.5 18t-72.5 51t-46.5 80t-16.5 105q0 60 17 107.5t48 80t74 50t94 17.5t94 -17.5t73.5 -50.5t47.5 -80t17 -105q0 -60 -17.5 -107.5t-48.5 -80.5t-74 -50.5t-94 -17.5zM274 393q-50 0 -76 -42t-26 -106q0 -72 27 -111.5t78 -39.5q25 0 44.5 11.5 t32.5 32t20 47.5t7 58q0 67 -27 108.5t-80 41.5z" />
<glyph unicode="&#x3c0;" horiz-adv-x="544" d="M365 388h-186v-388h-126v489h438v-489h-126v388z" />
<glyph unicode="&#x3c1;" horiz-adv-x="551" d="M507 245q0 -53 -13 -99.5t-38 -81t-61.5 -54.5t-84.5 -20q-31 0 -66.5 10.5t-64.5 40.5l-1 -197l-127 -48v447q0 51 13.5 98t40.5 82t68.5 56t97.5 21q58 0 102 -18.5t74 -52.5t45 -80.5t15 -103.5zM378 238q0 22 -4 48.5t-15 49.5t-30.5 39t-49.5 16q-29 0 -48.5 -13 t-31.5 -34t-17 -47.5t-5 -53.5v-97q20 -22 46 -36t55 -14q43 0 71.5 35t28.5 107z" />
<glyph unicode="&#x3c2;" horiz-adv-x="463" d="M171 229q0 -30 7.5 -51t23 -36.5t40 -28t57.5 -24.5q34 -12 55.5 -23t33.5 -21.5t16.5 -22.5t4.5 -27q0 -19 -8.5 -41t-22.5 -45t-33 -46t-41 -43l-73 53q23 32 35.5 55.5t12.5 35.5q0 5 -4.5 8.5t-17.5 7.5q-51 15 -90.5 34.5t-67 48t-42 69t-14.5 97.5q0 61 15.5 111 t44 85t70 54t93.5 19q50 0 95 -16t82 -56l-68 -81q-27 27 -50.5 37t-49.5 10q-49 0 -76.5 -45t-27.5 -118z" />
<glyph unicode="&#x3c3;" horiz-adv-x="572" d="M455 385q14 -13 24 -30.5t16.5 -36.5t9.5 -38.5t3 -36.5q0 -61 -17 -108t-48 -79.5t-74 -49.5t-95 -17q-51 0 -93 17.5t-72.5 50.5t-47 79.5t-16.5 105.5q0 60 17 105.5t47.5 77t72.5 47.5t93 16h276v-100h-95zM274 383q-51 0 -76.5 -38.5t-25.5 -101.5q0 -70 27 -109.5 t78 -39.5q25 0 44 12t32 32t19.5 47t6.5 57q0 64 -27.5 102.5t-77.5 38.5z" />
<glyph unicode="&#x3c4;" horiz-adv-x="394" d="M364 488v-100h-127v-224q0 -35 11 -48t42 -13q12 0 27.5 1t35.5 4q2 -25 4.5 -49.5t5.5 -48.5q-26 -8 -57.5 -13.5t-60.5 -5.5q-37 0 -62 9.5t-40.5 30.5t-22.5 54.5t-7 80.5v222h-96v100h347z" />
<glyph unicode="&#x3c5;" horiz-adv-x="542" d="M274 -11q-106 0 -165 56.5t-59 168.5v275h128v-273q0 -63 22 -94t72 -31q54 0 75 31.5t21 93.5v273h127v-275q0 -111 -57.5 -168t-163.5 -57z" />
<glyph unicode="&#x3c6;" horiz-adv-x="694" d="M234 386q-26 -14 -47 -47.5t-21 -92.5q0 -45 12 -74t30 -46.5t38 -24.5t36 -9v405h128q51 0 95.5 -16.5t76.5 -48.5t50.5 -78.5t18.5 -105.5q0 -60 -17.5 -106.5t-50 -79.5t-77.5 -51.5t-99 -20.5v-147l-125 -48v195q-54 2 -98 20.5t-75.5 51.5t-48.5 80t-17 106 q0 58 17 100t41 70.5t50.5 45t46.5 22.5zM407 92q12 1 32 6.5t39 21.5t33 45.5t14 78.5q0 66 -29.5 107.5t-88.5 44.5v-304z" />
<glyph unicode="&#x3c7;" horiz-adv-x="476" d="M322 0l-90 162q-22 -40 -43.5 -81t-44.5 -81h-136l156 252q-35 59 -71.5 118t-72.5 118h140q20 -36 38.5 -73t37.5 -73l78 146h138l-145 -233l157 -255h-142z" />
<glyph unicode="&#x3c8;" horiz-adv-x="675" d="M400 94q44 6 72.5 35.5t28.5 88.5v246l123 46v-290q0 -51 -16 -92t-45 -70t-70.5 -46.5t-92.5 -21.5v-150l-125 -47v197q-47 4 -87.5 20t-70.5 44.5t-47.5 70t-17.5 95.5v270h123v-272q0 -60 28.5 -89t71.5 -35v442l125 48v-490z" />
<glyph unicode="&#x3c9;" horiz-adv-x="770" d="M384 65q-23 -35 -56.5 -54.5t-74.5 -19.5q-47 0 -85 16t-66 48t-43 79t-15 110q0 44 13.5 86t38.5 76.5t61 59t81 33.5l38 -96q-30 -8 -50 -26.5t-32 -41t-17 -47t-5 -45.5q0 -80 25.5 -114.5t61.5 -34.5q35 0 54 25.5t19 70.5v120h109v-121q0 -45 18.5 -70t51.5 -25 q38 0 63 33t25 114q0 21 -5 45.5t-17 47.5t-32 41t-49 27l37 96q46 -9 82 -34.5t61 -60.5t37.5 -77t12.5 -84q0 -61 -15 -108t-42.5 -78.5t-66 -48t-85.5 -16.5q-39 0 -74 19.5t-56 54.5h-3z" />
<glyph unicode="&#x3ca;" horiz-adv-x="271" d="M245 558q-28 0 -47.5 19.5t-19.5 45.5q0 27 19.5 46.5t47.5 19.5q26 0 45 -19.5t19 -46.5q0 -26 -19 -45.5t-45 -19.5zM33 558q-27 0 -47 19.5t-20 45.5q0 27 20 46.5t47 19.5q26 0 46 -19.5t20 -46.5q0 -26 -20 -45.5t-46 -19.5zM73 488h126v-488h-126v488z" />
<glyph unicode="&#x3cb;" horiz-adv-x="542" d="M384 558q-28 0 -47.5 19.5t-19.5 45.5q0 27 19.5 46.5t47.5 19.5q26 0 45 -19.5t19 -46.5q0 -26 -19 -45.5t-45 -19.5zM172 558q-27 0 -47 19.5t-20 45.5q0 27 20 46.5t47 19.5q26 0 46 -19.5t20 -46.5q0 -26 -20 -45.5t-46 -19.5zM274 -11q-106 0 -165 56.5t-59 168.5 v275h128v-273q0 -63 22 -94t72 -31q54 0 75 31.5t21 93.5v273h127v-275q0 -111 -57.5 -168t-163.5 -57z" />
<glyph unicode="&#x3cc;" horiz-adv-x="553" d="M290 543l-68 23l77 186l125 -23zM275 -11q-53 0 -95.5 18t-72.5 51t-46.5 80t-16.5 105q0 60 17 107.5t48 80t74 50t94 17.5t94 -17.5t73.5 -50.5t47.5 -80t17 -105q0 -60 -17.5 -107.5t-48.5 -80.5t-74 -50.5t-94 -17.5zM274 393q-50 0 -76 -42t-26 -106 q0 -72 27 -111.5t78 -39.5q25 0 44.5 11.5t32.5 32t20 47.5t7 58q0 67 -27 108.5t-80 41.5z" />
<glyph unicode="&#x3cd;" horiz-adv-x="542" d="M274 -11q-106 0 -165 56.5t-59 168.5v275h128v-273q0 -63 22 -94t72 -31q54 0 75 31.5t21 93.5v273h127v-275q0 -111 -57.5 -168t-163.5 -57zM286 543l-68 23l77 186l125 -23z" />
<glyph unicode="&#x3ce;" horiz-adv-x="770" d="M384 65q-23 -35 -56.5 -54.5t-74.5 -19.5q-47 0 -85 16t-66 48t-43 79t-15 110q0 44 13.5 86t38.5 76.5t61 59t81 33.5l38 -96q-30 -8 -50 -26.5t-32 -41t-17 -47t-5 -45.5q0 -80 25.5 -114.5t61.5 -34.5q35 0 54 25.5t19 70.5v120h109v-121q0 -45 18.5 -70t51.5 -25 q38 0 63 33t25 114q0 21 -5 45.5t-17 47.5t-32 41t-49 27l37 96q46 -9 82 -34.5t61 -60.5t37.5 -77t12.5 -84q0 -61 -15 -108t-42.5 -78.5t-66 -48t-85.5 -16.5q-39 0 -74 19.5t-56 54.5h-3zM403 543l-68 23l77 186l125 -23z" />
<glyph unicode="&#x401;" horiz-adv-x="549" d="M61 651h459v-114h-327v-138h229v-115h-229v-169h338v-115h-470v651zM402 697q-28 0 -47.5 19.5t-19.5 45.5q0 27 19.5 46.5t47.5 19.5q26 0 45 -19.5t19 -46.5q0 -26 -19 -45.5t-45 -19.5zM190 697q-27 0 -47 19.5t-20 45.5q0 27 20 46.5t47 19.5q26 0 46 -19.5t20 -46.5 q0 -26 -20 -45.5t-46 -19.5z" />
<glyph unicode="&#x402;" horiz-adv-x="758" d="M719 196q0 -53 -15.5 -98.5t-47 -78.5t-78 -51.5t-109.5 -18.5v94q32 4 53.5 18.5t35 35.5t19 47t5.5 53q0 61 -28 97t-87 36q-31 0 -67.5 -10t-74.5 -38v-282h-130v537h-181v114h563v-114h-252v-144q36 25 80.5 36.5t85.5 11.5q56 0 98.5 -18t71.5 -50t43.5 -77.5 t14.5 -99.5z" />
<glyph unicode="&#x403;" horiz-adv-x="527" d="M61 651h459v-115h-327v-536h-132v651zM248 684l-47 54l153 116l96 -83z" />
<glyph unicode="&#x404;" horiz-adv-x="580" d="M44 328q0 76 20.5 138t58 105.5t91 67t120.5 23.5q78 0 132.5 -28t92.5 -76l-95 -85q-31 37 -63 52.5t-68 15.5q-61 0 -98.5 -41.5t-48.5 -110.5h245v-106h-247q3 -38 14.5 -70t31 -55t46 -36t59.5 -13q36 0 70 17.5t66 55.5l94 -81q-38 -48 -93.5 -80t-139.5 -32 q-66 0 -119 23.5t-90.5 67.5t-58 106.5t-20.5 141.5z" />
<glyph unicode="&#x405;" horiz-adv-x="572" d="M297 662q69 0 127 -21t104 -60l-76 -96q-38 32 -79.5 46.5t-83.5 14.5q-49 0 -71.5 -20t-22.5 -48q0 -18 10 -30.5t26.5 -21.5t37.5 -16t44 -14q36 -10 77 -23.5t76 -36.5t58 -58.5t23 -90.5q0 -48 -18 -85t-51.5 -62t-80.5 -38t-105 -13q-74 0 -140 25t-112 69l80 94 q39 -35 85.5 -53t90.5 -18q114 0 114 76q0 33 -29.5 51.5t-102.5 38.5q-52 15 -92.5 31t-68 38.5t-42 53.5t-14.5 76t19 80.5t51 60t75 37.5t91 13z" />
<glyph unicode="&#x406;" horiz-adv-x="280" d="M73 651h134v-651h-134v651z" />
<glyph unicode="&#x407;" horiz-adv-x="280" d="M73 651h134v-651h-134v651zM249 700q-28 0 -47.5 19.5t-19.5 45.5q0 27 19.5 46.5t47.5 19.5q26 0 45 -19.5t19 -46.5q0 -26 -19 -45.5t-45 -19.5zM37 700q-27 0 -47 19.5t-20 45.5q0 27 20 46.5t47 19.5q26 0 46 -19.5t20 -46.5q0 -26 -20 -45.5t-46 -19.5z" />
<glyph unicode="&#x408;" horiz-adv-x="590" d="M520 260q0 -132 -61.5 -201.5t-188.5 -69.5q-53 0 -94 12.5t-71 36t-51 57.5t-34 77l125 42q20 -54 48.5 -80t76.5 -26q62 0 89.5 38t27.5 116v389h133v-391v0z" />
<glyph unicode="&#x409;" horiz-adv-x="928" d="M254 293q0 -59 -3.5 -113.5t-22 -96.5t-56.5 -67.5t-107 -25.5q-8 0 -17 0.5t-18 1.5l-4 111q35 4 54.5 13t29 30t11.5 57t2 94v353h400v-251h150q104 0 165 -51.5t61 -149.5q0 -50 -16 -87t-45 -62t-69.5 -37t-89.5 -12h-289v536h-136v-243zM523 287v-172h143 q21 0 39.5 4t32.5 14t22 26.5t8 42.5q0 22 -8.5 38t-22.5 26.5t-33 15.5t-41 5h-140z" />
<glyph unicode="&#x40a;" horiz-adv-x="923" d="M385 289h-192v-289h-133v651h133v-251h192v251h133v-251h148q52 0 94 -13.5t72 -39t46 -63t16 -86.5q0 -53 -17.5 -90.5t-48.5 -61.5t-72 -35t-88 -11h-283v289zM518 290v-176h143q20 0 38.5 4t32.5 14t22.5 26.5t8.5 42.5q0 45 -28.5 67t-75.5 22h-141z" />
<glyph unicode="&#x40b;" horiz-adv-x="754" d="M576 0v210q0 66 -30.5 94.5t-87.5 28.5q-28 0 -64 -11.5t-65 -36.5v-285h-131v537h-176v114h553v-114h-246v-138l1 -1q40 23 83.5 34.5t81.5 11.5q46 0 84.5 -13t66.5 -39.5t43.5 -66.5t15.5 -93v-232h-129z" />
<glyph unicode="&#x40c;" horiz-adv-x="597" d="M581 0h-160l-229 316l-3 -1v-315h-130v651h130v-301l3 -1l240 302h151l-256 -316zM261 684l-47 54l153 116l96 -83z" />
<glyph unicode="&#x40e;" horiz-adv-x="588" d="M358 132q-34 -79 -79.5 -112t-99.5 -33h-68v108h38q19 0 37.5 7.5t29.5 32.5l10 24l-217 492h141q15 -38 31 -75.5t31 -75.5l81 -204h6q21 51 41 103t40 103l59 149h140zM228 837q5 -28 21.5 -46.5t47.5 -18.5q33 0 48.5 21.5t15.5 43.5h89q0 -22 -7.5 -47.5t-25 -48 t-47 -37.5t-73.5 -15q-45 0 -75 15t-48 37.5t-25.5 48t-7.5 47.5h87z" />
<glyph unicode="&#x40f;" horiz-adv-x="654" d="M389 0v-179h-124v179h-206v651h132v-538h272v538h132v-651h-206z" />
<glyph unicode="&#x410;" horiz-adv-x="668" d="M470 138h-268l-48 -138h-138l247 651h150l248 -651h-142zM335 519q-3 -10 -9 -28t-12.5 -36.5t-12 -35.5t-8.5 -25l-54 -150h194l-59 168q-3 8 -7.5 22t-10 29.5t-10.5 30.5t-8 25h-3z" />
<glyph unicode="&#x411;" horiz-adv-x="610" d="M342 398q51 0 93 -12t71.5 -37t46 -63t16.5 -89q0 -46 -16 -82.5t-45.5 -62t-70.5 -39t-91 -13.5h-287v651h447v-114h-316v-139h152zM439 202q0 45 -29 66.5t-74 21.5h-146v-178h147q48 0 75 22t27 68z" />
<glyph unicode="&#x412;" horiz-adv-x="623" d="M465 352q22 -7 42.5 -21t36 -33.5t25 -44.5t9.5 -54q0 -94 -59.5 -146.5t-168.5 -52.5h-288v651h291q45 0 81.5 -10.5t62.5 -31.5t40.5 -51.5t14.5 -70.5q0 -47 -26 -82t-61 -50v-3zM194 537v-137h143q38 0 60 19t22 51t-20.5 49.5t-59.5 17.5h-145zM194 290v-175h145 q102 0 102 88q0 45 -29.5 66t-72.5 21h-145z" />
<glyph unicode="&#x413;" horiz-adv-x="527" d="M61 651h459v-115h-327v-536h-132v651z" />
<glyph unicode="&#x414;" horiz-adv-x="719" d="M692 -164h-122v164h-429v-164h-121v275h55q48 38 67 113.5t23 187.5l8 238h455v-539h64v-275zM497 538h-204l-5 -114q-2 -41 -4.5 -84.5t-8.5 -84.5t-18 -78t-31 -64h271v425z" />
<glyph unicode="&#x415;" horiz-adv-x="549" d="M61 651h459v-114h-327v-138h229v-115h-229v-169h338v-115h-470v651z" />
<glyph unicode="&#x416;" horiz-adv-x="896" d="M242 335l-231 316h150l217 -302l3 1v301h131v-301l3 -1l217 302h150l-231 -316l233 -335h-160l-209 316l-3 -1v-315h-131v315l-3 1l-210 -316h-159z" />
<glyph unicode="&#x417;" horiz-adv-x="568" d="M413 340q30 -9 51 -24.5t33.5 -35t18.5 -42t6 -44.5q0 -50 -20 -88.5t-56 -64t-85 -38.5t-107 -13q-72 0 -136 24.5t-109 72.5l79 84q38 -38 79 -53t86 -15q66 0 99.5 28.5t33.5 69.5q0 47 -30.5 67.5t-78.5 20.5h-97v98h93q48 0 78.5 23t30.5 58q0 30 -24.5 54.5 t-80.5 24.5q-40 0 -85 -13t-83 -42l-66 87q46 41 110.5 61.5t130.5 20.5q61 0 105.5 -13t74 -36t43.5 -53.5t14 -66.5q0 -48 -28.5 -88.5t-79.5 -59.5v-4z" />
<glyph unicode="&#x418;" horiz-adv-x="675" d="M194 207l96 148l195 296h131v-651h-131v437h-3l-99 -151l-193 -286h-131v651h131v-444h4z" />
<glyph unicode="&#x419;" horiz-adv-x="675" d="M262 843q5 -28 21.5 -46.5t47.5 -18.5q33 0 48.5 21.5t15.5 43.5h89q0 -22 -7.5 -47.5t-25 -48t-47 -37.5t-73.5 -15q-45 0 -75 15t-48 37.5t-25.5 48t-7.5 47.5h87zM194 207l96 148l195 296h131v-651h-131v437h-3l-99 -151l-193 -286h-131v651h131v-444h4z" />
<glyph unicode="&#x41a;" horiz-adv-x="597" d="M581 0h-160l-229 316l-3 -1v-315h-130v651h130v-301l3 -1l240 302h151l-256 -316z" />
<glyph unicode="&#x41b;" horiz-adv-x="623" d="M251 293q0 -59 -3.5 -113.5t-22 -96.5t-56.5 -67.5t-107 -25.5q-8 0 -17 0.5t-18 1.5l-4 111q35 4 54.5 13t29 30t11.5 57t2 94v353h443v-650h-132v538h-180v-245z" />
<glyph unicode="&#x41c;" horiz-adv-x="754" d="M560 0v379h-3l-73 -155l-109 -224l-101 210l-79 169h-3v-379h-130v651h132l95 -200l85 -184h5l81 176l99 208h131v-651h-130z" />
<glyph unicode="&#x41d;" horiz-adv-x="656" d="M462 278h-269v-278h-133v651h133v-257h269v257h133v-651h-133v278z" />
<glyph unicode="&#x41e;" horiz-adv-x="664" d="M331 -11q-71 0 -124.5 25.5t-89.5 70t-54.5 106t-18.5 133.5t18.5 134t55 107t90 70.5t124.5 25.5q67 0 120.5 -24t91 -68.5t57 -106.5t19.5 -137q0 -76 -19.5 -138t-57 -106t-91 -68t-121.5 -24zM331 542q-38 0 -66 -16t-47 -45t-28 -68.5t-9 -86.5t9.5 -86.5t28.5 -69 t47 -46t66 -16.5t66.5 17.5t47 47t28 69t9.5 83.5q0 47 -9.5 87t-28.5 69t-47.5 45t-66.5 16z" />
<glyph unicode="&#x41f;" horiz-adv-x="656" d="M463 536h-269v-536h-133v651h534v-651h-132v536z" />
<glyph unicode="&#x420;" horiz-adv-x="578" d="M567 444q0 -54 -17 -94t-48 -66.5t-73.5 -39.5t-93.5 -13h-144v-231h-131v651h282q49 0 90.5 -12.5t71.5 -38.5t46.5 -65t16.5 -91zM191 537v-192h144q45 2 70.5 25t25.5 71q0 50 -29.5 73t-75.5 23h-135z" />
<glyph unicode="&#x421;" horiz-adv-x="585" d="M44 328q0 76 20.5 138t58 105.5t91 67t120.5 23.5q78 0 132.5 -28t92.5 -76l-95 -85q-31 37 -63 52.5t-68 15.5q-37 0 -65 -16t-47.5 -44.5t-29.5 -67.5t-10 -86q0 -46 9.5 -85.5t29 -69t48.5 -46.5t67 -17q36 0 70 17.5t66 55.5l94 -81q-38 -48 -93.5 -80t-139.5 -32 q-66 0 -119 23.5t-90.5 67.5t-58 106.5t-20.5 141.5z" />
<glyph unicode="&#x422;" horiz-adv-x="541" d="M339 0h-132v537h-190v114h512v-114h-190v-537z" />
<glyph unicode="&#x423;" horiz-adv-x="588" d="M358 132q-34 -79 -79.5 -112t-99.5 -33h-68v108h38q19 0 37.5 7.5t29.5 32.5l10 24l-217 492h141q15 -38 31 -75.5t31 -75.5l81 -204h6q21 51 41 103t40 103l59 149h140z" />
<glyph unicode="&#x424;" horiz-adv-x="752" d="M710 331q0 -59 -19 -108.5t-54 -86.5t-85 -59.5t-112 -28.5v-48h-131v49q-59 7 -107.5 30t-83.5 59.5t-54.5 85t-19.5 106.5q0 57 19.5 106t54.5 86t83.5 60.5t107.5 29.5v39h131v-39q62 -7 112 -29.5t85 -59t54 -85t19 -107.5zM579 330q0 31 -7 59.5t-23.5 52t-43 40.5 t-65.5 24v-355q37 7 63.5 24t43.5 41t24.5 53t7.5 61zM309 504q-35 -8 -60.5 -24.5t-42.5 -39.5t-25 -51.5t-8 -58.5q0 -65 32 -113.5t104 -63.5v351z" />
<glyph unicode="&#x425;" horiz-adv-x="601" d="M299 231l-132 -231h-148l211 334l-199 317h149l121 -212l122 212h146l-199 -315l210 -336h-148z" />
<glyph unicode="&#x426;" horiz-adv-x="672" d="M657 -165h-122v165h-476v650h131v-537h271v537h133v-539h63v-276z" />
<glyph unicode="&#x427;" horiz-adv-x="623" d="M432 0v252q-39 -17 -86.5 -27.5t-87.5 -10.5q-101 0 -161 53t-60 154v230h130v-195q0 -72 32 -102t96 -30q13 0 30.5 3t36 8t37 13t33.5 19v284h132v-651h-132z" />
<glyph unicode="&#x428;" horiz-adv-x="862" d="M59 0v651h133v-538h173v538h133v-538h173v538h132v-651h-744z" />
<glyph unicode="&#x429;" horiz-adv-x="887" d="M59 651h133v-539h174v539h132v-539h173v539h133v-539h63v-277h-123v165h-685v651z" />
<glyph unicode="&#x42a;" horiz-adv-x="746" d="M12 651h324v-252h150q104 0 165 -51.5t61 -149.5q0 -50 -16 -87t-45 -62t-69.5 -37t-89.5 -12h-289v536h-191v115zM336 287v-172h142q21 0 39.5 4t33 14t22.5 26.5t8 42.5q0 22 -8.5 38t-22.5 26.5t-33 15.5t-41 5h-140z" />
<glyph unicode="&#x42b;" horiz-adv-x="821" d="M59 651h132v-252h150q104 0 165 -51.5t61 -149.5q0 -50 -16 -87t-45 -62t-69.5 -37t-89.5 -12h-289zM191 287v-172h142q21 0 39.5 4t32.5 14t22 26.5t8 42.5q0 44 -30.5 64.5t-73.5 20.5h-140zM627 651h134v-651h-134v651z" />
<glyph unicode="&#x42c;" horiz-adv-x="605" d="M59 651h132v-252h150q104 0 165 -51.5t61 -149.5q0 -50 -16 -87t-45 -62t-69.5 -37t-89.5 -12h-289zM191 287v-172h142q21 0 39.5 4t32.5 14t22 26.5t8 42.5q0 44 -30.5 64.5t-73.5 20.5h-140z" />
<glyph unicode="&#x42d;" horiz-adv-x="592" d="M548 328q0 -79 -21 -141.5t-59.5 -106.5t-92 -67.5t-119.5 -23.5q-84 0 -139 31t-92 79l92 83q32 -38 66 -55.5t70 -17.5q33 0 60.5 12.5t47 35.5t31.5 55t15 70h-243v107h241q-7 67 -46 109.5t-100 42.5q-31 0 -63.5 -13t-66.5 -49l-87 84q22 24 45.5 42.5t50.5 31 t59 19t72 6.5q66 0 118 -23.5t88 -67t54.5 -105.5t18.5 -138z" />
<glyph unicode="&#x42e;" horiz-adv-x="855" d="M811 326q0 -76 -19 -138t-54.5 -106.5t-87 -68.5t-116.5 -24q-66 0 -115.5 22.5t-84 62t-53.5 93.5t-24 118h-66v-285h-133v651h133v-255h70q8 57 28.5 105.5t54 84t81 55.5t109.5 20q65 0 116.5 -24t87 -68t54.5 -106t19 -137zM675 325q0 103 -34.5 161.5t-106.5 58.5 q-36 0 -62.5 -16t-44 -44.5t-26 -69t-8.5 -89.5q0 -48 8.5 -88.5t25.5 -70t44 -45.5t63 -16t62.5 16.5t44 45.5t26 69t8.5 88z" />
<glyph unicode="&#x42f;" horiz-adv-x="610" d="M38 441q0 52 17 91.5t47.5 65.5t71.5 39.5t89 13.5h287v-651h-132v239h-129l-108 -239h-141l123 255q-58 21 -91.5 66.5t-33.5 119.5zM279 539q-45 0 -74.5 -25.5t-29.5 -72.5t27.5 -69t76.5 -22h140v189h-140z" />
<glyph unicode="&#x430;" horiz-adv-x="514" d="M336 0v40l-2 1q-32 -30 -69.5 -41t-65.5 -11q-32 0 -62 9t-53 28t-37 49.5t-14 73.5q0 39 15 69t41 50t59.5 30.5t71.5 10.5q30 0 57.5 -4.5t58.5 -18.5v33q0 78 -90 78q-34 0 -66 -8t-65 -24l-35 93q40 20 86 30.5t97 10.5q97 0 147 -43t50 -129v-327h-124zM336 196 q-19 11 -41.5 18.5t-52.5 7.5q-35 0 -58.5 -17.5t-23.5 -50.5q0 -32 20.5 -49.5t57.5 -17.5q25 0 52 13t46 32v64z" />
<glyph unicode="&#x431;" horiz-adv-x="565" d="M178 423q10 13 25 24t32.5 18.5t36 11.5t36.5 4q46 0 85.5 -16t68 -46.5t44.5 -75.5t16 -102q0 -59 -17.5 -105.5t-49 -79t-75 -50t-96.5 -17.5q-67 0 -113 25t-74.5 66.5t-41 95.5t-12.5 113q0 71 10.5 131.5t36.5 108.5t69.5 82.5t109.5 55.5q26 8 48 13t43.5 9.5 t45 9.5t51.5 13l28 -92q-33 -12 -57.5 -18t-44.5 -10t-38 -8t-38 -11q-26 -9 -48.5 -22t-40 -30.5t-29 -41.5t-14.5 -55zM290 380q-48 0 -79 -37.5t-31 -111.5q0 -60 26.5 -100t80.5 -40q53 0 78.5 42t25.5 108q0 61 -26 100t-75 39z" />
<glyph unicode="&#x432;" horiz-adv-x="510" d="M297 488q33 0 62 -8t50.5 -23.5t34 -39.5t12.5 -56q0 -31 -16.5 -57t-42.5 -41q35 -14 55.5 -44t20.5 -68q0 -67 -46 -109t-131 -42h-245v488h246zM175 389v-87h105q25 0 39 12.5t14 32.5t-13 31t-39 11h-106zM175 210v-112h104q68 0 68 56q0 29 -19 42.5t-48 13.5h-105z " />
<glyph unicode="&#x433;" horiz-adv-x="444" d="M178 388v-388h-126v488h385v-100h-259z" />
<glyph unicode="&#x434;" horiz-adv-x="585" d="M18 97h50q19 21 31 51t19.5 75.5t12 110t9.5 153.5h371v-390h49v-244h-113v147h-318v-147h-111v244zM386 390h-139q-1 -32 -2.5 -69.5t-6 -76t-13.5 -76.5t-27 -71h188v293z" />
<glyph unicode="&#x435;" horiz-adv-x="523" d="M488 206h-316q5 -55 35 -84t78 -29q29 0 60 11t56 28l55 -81q-43 -34 -87.5 -47.5t-95.5 -13.5q-53 0 -95.5 17.5t-72 50.5t-45.5 80t-16 106q0 58 16.5 105t46.5 80t72 51t93 18q55 0 95.5 -18.5t67.5 -51.5t40 -79.5t13 -102.5v-40zM362 288q-1 46 -22.5 77.5 t-72.5 31.5q-36 0 -63.5 -29t-31.5 -80h190z" />
<glyph unicode="&#x436;" horiz-adv-x="749" d="M147 487l165 -216v216h125v-216l165 216h134l-175 -225l178 -262h-141l-161 249v-249h-125v249l-161 -249h-139l177 262l-176 225h134z" />
<glyph unicode="&#x437;" horiz-adv-x="471" d="M350 256q23 -9 38 -21.5t24 -27.5t12.5 -30t3.5 -28q0 -41 -16.5 -70.5t-45 -48.5t-67 -28.5t-82.5 -9.5q-58 0 -111 18.5t-88 53.5l63 81q33 -31 66 -41.5t65 -10.5q45 0 67 18.5t22 42.5q0 30 -22 41.5t-57 11.5h-68v81h68q37 0 54 17.5t17 35.5q0 23 -18.5 38.5 t-55.5 15.5q-28 0 -60.5 -11.5t-56.5 -32.5q-15 19 -29.5 39.5t-28.5 40.5q42 34 90.5 49.5t101.5 15.5q48 0 83 -10.5t57.5 -28t33.5 -41t11 -50.5q0 -29 -16 -58t-54 -47z" />
<glyph unicode="&#x438;" horiz-adv-x="550" d="M367 288q-13 -19 -25 -38.5t-26 -39.5q-35 -52 -69.5 -105.5t-70.5 -104.5h-126v489h126v-298h5q12 20 24 38t24 37l143 223h126v-489h-126v288h-5z" />
<glyph unicode="&#x439;" horiz-adv-x="547" d="M367 288q-13 -19 -25 -38.5t-26 -39.5q-35 -52 -69.5 -105.5t-70.5 -104.5h-126v489h126v-298h5q12 20 24 38t24 37l143 223h126v-489h-126v288h-5zM208 700q5 -28 21.5 -46.5t47.5 -18.5q33 0 48.5 21.5t15.5 43.5h89q0 -22 -7.5 -47.5t-25 -48t-47 -37.5t-73.5 -15 q-45 0 -75 15t-48 37.5t-25.5 48t-7.5 47.5h87z" />
<glyph unicode="&#x43a;" horiz-adv-x="499" d="M488 487l-191 -225l192 -262h-140l-176 249v-249h-122v487h122v-216l180 216h135z" />
<glyph unicode="&#x43b;" horiz-adv-x="523" d="M220 267q0 -53 -3.5 -103t-20 -88.5t-51.5 -62t-98 -23.5q-8 0 -16 0.5t-16 1.5l-4 101q32 4 50 12.5t26.5 27.5t10.5 52t2 86v217h371v-488h-126v390h-125v-123z" />
<glyph unicode="&#x43c;" horiz-adv-x="624" d="M315 217q33 68 66.5 135t66.5 136h124v-488h-125v254h-3l-37 -73l-97 -182l-94 179l-40 78h-2v-256h-125v488h124l70 -136t68 -135h4z" />
<glyph unicode="&#x43d;" horiz-adv-x="549" d="M369 0v203h-190v-203h-126v489h126v-186h190v186h126v-489h-126z" />
<glyph unicode="&#x43e;" horiz-adv-x="553" d="M275 -11q-53 0 -95.5 18t-72.5 51t-46.5 80t-16.5 105q0 60 17 107.5t48 80t74 50t94 17.5t94 -17.5t73.5 -50.5t47.5 -80t17 -105q0 -60 -17.5 -107.5t-48.5 -80.5t-74 -50.5t-94 -17.5zM274 393q-50 0 -76 -42t-26 -106q0 -72 27 -111.5t78 -39.5q25 0 44.5 11.5 t32.5 32t20 47.5t7 58q0 67 -27 108.5t-80 41.5z" />
<glyph unicode="&#x43f;" horiz-adv-x="544" d="M365 388h-186v-388h-126v489h438v-489h-126v388z" />
<glyph unicode="&#x440;" horiz-adv-x="543" d="M498 244q0 -67 -17.5 -115t-45.5 -78.5t-63.5 -45t-71.5 -14.5q-38 0 -66.5 11.5t-51.5 34.5h-3v-192q-32 -12 -63 -24.5t-63 -25.5v693h126v-42h3q28 26 61 39t67 13q38 0 72 -14.5t60 -45t41 -79t15 -115.5zM369 246q-1 75 -26 111t-69 36q-29 0 -53.5 -15.5 t-41.5 -36.5v-194q17 -21 41 -36t52 -15q47 0 72 36t25 114z" />
<glyph unicode="&#x441;" horiz-adv-x="471" d="M44 241q0 59 16 106.5t45 81t71 51.5t95 18q50 0 94 -17.5t81 -59.5l-76 -81q-26 28 -48 39t-50 11q-48 0 -74 -40t-26 -106t25 -106t77 -40q51 0 100 53l77 -77q-72 -84 -182 -84q-52 0 -93.5 17t-71 49.5t-45 79t-15.5 105.5z" />
<glyph unicode="&#x442;" horiz-adv-x="445" d="M287 388v-388h-127v388h-143v100h415v-100h-145z" />
<glyph unicode="&#x443;" horiz-adv-x="513" d="M133 -191l64 176l-188 503h131l73 -218l41 -138h4l44 138l74 218h126l-248 -679h-121z" />
<glyph unicode="&#x444;" horiz-adv-x="715" d="M422 -159l-127 -47v195q-57 3 -103.5 21.5t-80 52t-51.5 80t-18 105.5q0 54 19.5 98.5t53.5 77t80.5 52t99.5 22.5v161l126 47v-208q54 -3 100.5 -21.5t80 -51t52.5 -77.5t19 -100q0 -59 -19.5 -105t-53 -79t-79.5 -52t-99 -22v-149zM295 401q-63 -5 -97.5 -48.5 t-34.5 -107.5q0 -38 10.5 -66.5t28.5 -48.5t42 -31t51 -13v315zM421 85q26 2 49.5 13t41.5 31t29 49t11 67q0 64 -34 107.5t-97 48.5v-316z" />
<glyph unicode="&#x445;" horiz-adv-x="476" d="M322 0l-90 162q-22 -40 -43.5 -81t-44.5 -81h-136l156 252q-35 59 -71.5 118t-72.5 118h140q20 -36 38.5 -73t37.5 -73l78 146h138l-145 -233l157 -255h-142z" />
<glyph unicode="&#x446;" horiz-adv-x="567" d="M544 -147h-113v147h-380v489h125v-392h193v392h127v-392h48v-244z" />
<glyph unicode="&#x447;" horiz-adv-x="517" d="M340 -1v204h-4q-33 -31 -70 -41.5t-64 -10.5q-93 0 -131.5 46.5t-38.5 136.5v154h126v-138q0 -47 15.5 -70t64.5 -23q24 1 49.5 12t52.5 37v182h126v-489h-126z" />
<glyph unicode="&#x448;" horiz-adv-x="757" d="M51 0v489h124v-391h141v392h124v-392h142v391h124v-489h-655z" />
<glyph unicode="&#x449;" horiz-adv-x="774" d="M582 98v391h124v-391h49v-246h-114v148h-590v489h124v-391h141v391h124v-391h142z" />
<glyph unicode="&#x44a;" horiz-adv-x="598" d="M274 489v-173h108q85 0 136.5 -41.5t51.5 -116.5q0 -79 -49.5 -118.5t-131.5 -39.5h-240v388h-141v101h266zM443 159q0 29 -20.5 44.5t-48.5 15.5h-100v-121h100q29 0 49 14.5t20 46.5z" />
<glyph unicode="&#x44b;" horiz-adv-x="701" d="M525 0v489h125v-489h-125zM473 154q0 -40 -13 -69t-36.5 -48t-56 -28t-72.5 -9h-245v489h125v-177h115q82 0 132.5 -40t50.5 -118zM345 156q0 30 -19.5 45.5t-49.5 15.5h-101v-122h102q29 0 48.5 14.5t19.5 46.5z" />
<glyph unicode="&#x44c;" horiz-adv-x="510" d="M474 157q0 -82 -49 -119.5t-131 -37.5h-241v489h126v-174h109q85 0 135.5 -41.5t50.5 -116.5zM348 158q0 30 -19 45t-51 15h-99v-120h100q31 0 50 14t19 46z" />
<glyph unicode="&#x44d;" horiz-adv-x="468" d="M124 207v81h173q-3 48 -28.5 77t-70.5 29q-26 0 -50 -10t-49 -33l-64 81q39 36 81.5 51t89.5 15q109 0 164 -66.5t55 -180.5q0 -122 -60 -191t-166 -69q-51 0 -94 17.5t-79 56.5l67 78q23 -23 47 -35.5t53 -12.5q45 0 72 32.5t31 79.5h-172z" />
<glyph unicode="&#x44e;" horiz-adv-x="712" d="M669 246q0 -56 -14.5 -102.5t-43 -80.5t-70 -53t-95.5 -19q-56 0 -95 18.5t-65.5 48.5t-40.5 69t-18 80h-50v-207h-125v488h125v-187h53q6 36 20.5 71t40 63t63.5 45.5t92 17.5q55 0 97 -19t70 -52.5t42 -80t14 -100.5zM547 245q0 69 -25.5 110t-75.5 41t-74.5 -41.5 t-24.5 -108.5q0 -33 5.5 -61.5t17.5 -49.5t31 -33t45 -12t45 11.5t31.5 32.5t18.5 49.5t6 61.5z" />
<glyph unicode="&#x44f;" horiz-adv-x="521" d="M37 0l98 190q-43 16 -68.5 48.5t-25.5 88.5q0 39 13.5 69.5t37.5 50.5t56 30.5t69 10.5h253v-488h-126v175h-94l-84 -175h-129zM165 327q0 -32 20 -45.5t51 -13.5h107v124h-109q-27 0 -48 -17.5t-21 -47.5z" />
<glyph unicode="&#x451;" horiz-adv-x="523" d="M488 206h-316q5 -55 35 -84t78 -29q29 0 60 11t56 28l55 -81q-43 -34 -87.5 -47.5t-95.5 -13.5q-53 0 -95.5 17.5t-72 50.5t-45.5 80t-16 106q0 58 16.5 105t46.5 80t72 51t93 18q55 0 95.5 -18.5t67.5 -51.5t40 -79.5t13 -102.5v-40zM362 288q-1 46 -22.5 77.5 t-72.5 31.5q-36 0 -63.5 -29t-31.5 -80h190zM375 559q-28 0 -47.5 19.5t-19.5 45.5q0 27 19.5 46.5t47.5 19.5q26 0 45 -19.5t19 -46.5q0 -26 -19 -45.5t-45 -19.5zM163 559q-27 0 -47 19.5t-20 45.5q0 27 20 46.5t47 19.5q26 0 46 -19.5t20 -46.5q0 -26 -20 -45.5 t-46 -19.5z" />
<glyph unicode="&#x452;" horiz-adv-x="569" d="M204 0h-127v524h-54v76h54v60l127 49v-109h192v-76h-192v-107h3q30 29 64 42t69 13q82 0 133 -62t51 -175q0 -49 -11.5 -95t-38.5 -84.5t-72 -66t-113 -40.5l-21 102q39 10 64.5 27t40 39.5t20.5 50t6 58.5q0 72 -29 106.5t-74 34.5q-36 0 -64 -30t-28 -84v-253z" />
<glyph unicode="&#x453;" horiz-adv-x="444" d="M227 541l-68 22l77 186l125 -23zM178 388v-388h-126v488h385v-100h-259z" />
<glyph unicode="&#x454;" horiz-adv-x="472" d="M175 203q7 -48 32.5 -76.5t68.5 -28.5q29 0 52 13t46 38l70 -77q-35 -42 -77 -62t-97 -20q-51 0 -93 17.5t-71.5 50.5t-45.5 79.5t-16 105.5q0 58 15.5 105.5t45 80.5t71 51t94.5 18q50 0 93 -18t80 -58l-71 -81q-45 50 -98 50q-41 0 -67.5 -27.5t-31.5 -74.5h175v-86 h-175z" />
<glyph unicode="&#x455;" horiz-adv-x="475" d="M436 138q0 -36 -15 -64t-42 -46.5t-64 -28.5t-81 -10q-51 0 -102 14.5t-95 39.5l43 90q41 -23 80.5 -34t71.5 -11q30 0 53.5 10.5t23.5 35.5q0 28 -23.5 41t-65.5 26q-83 25 -125 58.5t-42 94.5q0 65 51 104.5t141 39.5q96 0 178 -43l-40 -92q-42 23 -77 29.5t-58 6.5 q-31 0 -50 -12.5t-19 -28.5q0 -18 16.5 -31t59.5 -25q42 -12 75.5 -25.5t57 -32.5t36 -45t12.5 -61z" />
<glyph unicode="&#x456;" horiz-adv-x="270" d="M73 488h126v-488h-126v488zM61 622q0 31 21.5 53t53.5 22q30 0 52 -22t22 -53q0 -30 -22 -52t-52 -22q-32 0 -53.5 22t-21.5 52z" />
<glyph unicode="&#x457;" horiz-adv-x="270" d="M246 558q-28 0 -47.5 19.5t-19.5 45.5q0 27 19.5 46.5t47.5 19.5q26 0 45 -19.5t19 -46.5q0 -26 -19 -45.5t-45 -19.5zM34 558q-27 0 -47 19.5t-20 45.5q0 27 20 46.5t47 19.5q26 0 46 -19.5t20 -46.5q0 -26 -20 -45.5t-46 -19.5zM74 488h126v-488h-126v488z" />
<glyph unicode="&#x458;" horiz-adv-x="271" d="M204 -14q0 -50 -11 -87.5t-37 -62.5t-68 -37t-104 -12l-8 102q34 6 54.5 13.5t31 19.5t13.5 29.5t3 43.5v493h126v-502zM66 622q0 31 22 53t53 22q30 0 52 -22t22 -53q0 -30 -22 -52t-52 -22q-31 0 -53 22t-22 52z" />
<glyph unicode="&#x459;" horiz-adv-x="753" d="M216 390v-123q0 -53 -3.5 -103t-20 -88.5t-51.5 -62t-98 -23.5q-8 0 -16 0.5t-16 1.5l-4 101q32 4 50 12.5t26.5 27.5t10.5 52t2 86v217h341v-173h109q85 0 136 -41.5t51 -116.5q0 -82 -49 -120t-131 -38h-241v391h-96zM606 158q0 29 -19 44.5t-50 15.5h-100v-121h100 q31 0 50 14.5t19 46.5z" />
<glyph unicode="&#x45a;" horiz-adv-x="760" d="M437 313h109q86 0 136 -40.5t50 -115.5q0 -82 -49.5 -120t-130.5 -38h-241l-1 216h-133v-215h-124v489h124v-176h133v175h127v-175zM606 157q0 30 -19 44.5t-50 14.5h-100v-119h100q31 0 50 14t19 46z" />
<glyph unicode="&#x45b;" horiz-adv-x="537" d="M490 0h-127v257q0 55 -22 81t-62 26q-45 0 -70 -31t-25 -82v-251h-127v524h-47v76h47v60l127 49v-109h192v-76h-192v-109h3q27 29 63 43.5t71 14.5q89 0 129 -52.5t40 -141.5v-279z" />
<glyph unicode="&#x45c;" horiz-adv-x="499" d="M254 541l-68 22l77 186l125 -23zM488 487l-191 -225l192 -262h-140l-176 249v-249h-122v487h122v-216l180 216h135z" />
<glyph unicode="&#x45e;" horiz-adv-x="513" d="M133 -191l64 176l-188 503h131l73 -218l41 -138h4l44 138l74 218h126l-248 -679h-121zM199 700q5 -28 21.5 -46.5t47.5 -18.5q33 0 48.5 21.5t15.5 43.5h89q0 -22 -7.5 -47.5t-25 -48t-47 -37.5t-73.5 -15q-45 0 -75 15t-48 37.5t-25.5 48t-7.5 47.5h87z" />
<glyph unicode="&#x45f;" horiz-adv-x="546" d="M332 0v-161h-114v161h-166v489h126v-391h189v391h128v-489h-163z" />
<glyph unicode="&#x490;" horiz-adv-x="526" d="M519 538h-328v-538h-132v651h341v133h119v-246z" />
<glyph unicode="&#x491;" horiz-adv-x="453" d="M440 390h-266v-390h-124v488h280v107h110v-205z" />
<glyph unicode="&#x4d9;" horiz-adv-x="520" d="M253 -10q-55 0 -95.5 19t-67 53t-39.5 79.5t-13 99.5v20.5t1 19.5h315q-7 61 -36.5 87t-77.5 26q-29 0 -56 -10t-52 -27l-53 79q45 35 83.5 48.5t88.5 13.5q53 0 95.5 -17.5t72.5 -50.5t46 -80t16 -106t-16.5 -106t-46.5 -80t-72 -50.5t-93 -17.5zM162 200q2 -23 8 -43 t17 -35t28.5 -24t43.5 -9q36 0 62.5 28t31.5 83h-191z" />
<glyph unicode="&#x1e80;" horiz-adv-x="829" d="M416 452l-19 -86q-23 -94 -44.5 -187.5t-42.5 -178.5h-142q-36 164 -73 325.5t-74 325.5h140q5 -28 10.5 -58t13.5 -71t18.5 -98t26.5 -138l17 -99h4q5 25 10 49.5t10 49.5q21 91 41.5 182t40.5 183h129l84 -369q5 -24 9.5 -47.5t9.5 -47.5h3l17 95q16 85 34 181t36 188 h137l-147 -651h-143q-22 91 -43 181.5t-42 181.5l-19 89h-2zM213 771l95 83l154 -116l-47 -54z" />
<glyph unicode="&#x1e81;" horiz-adv-x="703" d="M346 324l-21 -88l-61 -236h-123l-134 488h128l47 -207l24 -123h4l29 123l52 207h118l55 -217l25 -115h3l24 119l49 213h128l-138 -488h-125l-60 233l-22 91h-2zM203 724l125 23l77 -184l-69 -22z" />
<glyph unicode="&#x1e82;" horiz-adv-x="829" d="M416 452l-19 -86q-23 -94 -44.5 -187.5t-42.5 -178.5h-142q-36 164 -73 325.5t-74 325.5h140q5 -28 10.5 -58t13.5 -71t18.5 -98t26.5 -138l17 -99h4q5 25 10 49.5t10 49.5q21 91 41.5 182t40.5 183h129l84 -369q5 -24 9.5 -47.5t9.5 -47.5h3l17 95q16 85 34 181t36 188 h137l-147 -651h-143q-22 91 -43 181.5t-42 181.5l-19 89h-2zM404 684l-47 54l153 116l96 -83z" />
<glyph unicode="&#x1e83;" horiz-adv-x="703" d="M346 324l-21 -88l-61 -236h-123l-134 488h128l47 -207l24 -123h4l29 123l52 207h118l55 -217l25 -115h3l24 119l49 213h128l-138 -488h-125l-60 233l-22 91h-2zM373 541l-68 22l77 186l125 -23z" />
<glyph unicode="&#x1e84;" horiz-adv-x="829" d="M416 452l-19 -86q-23 -94 -44.5 -187.5t-42.5 -178.5h-142q-36 164 -73 325.5t-74 325.5h140q5 -28 10.5 -58t13.5 -71t18.5 -98t26.5 -138l17 -99h4q5 25 10 49.5t10 49.5q21 91 41.5 182t40.5 183h129l84 -369q5 -24 9.5 -47.5t9.5 -47.5h3l17 95q16 85 34 181t36 188 h137l-147 -651h-143q-22 91 -43 181.5t-42 181.5l-19 89h-2zM312 708q-27 0 -47 19.5t-20 45.5q0 27 20 46.5t47 19.5q26 0 46 -19.5t20 -46.5q0 -26 -20 -45.5t-46 -19.5zM524 708q-28 0 -47.5 19.5t-19.5 45.5q0 27 19.5 46.5t47.5 19.5q26 0 45 -19.5t19 -46.5 q0 -26 -19 -45.5t-45 -19.5z" />
<glyph unicode="&#x1e85;" horiz-adv-x="703" d="M346 324l-21 -88l-61 -236h-123l-134 488h128l47 -207l24 -123h4l29 123l52 207h118l55 -217l25 -115h3l24 119l49 213h128l-138 -488h-125l-60 233l-22 91h-2zM242 558q-27 0 -47 19.5t-20 45.5q0 27 20 46.5t47 19.5q26 0 46 -19.5t20 -46.5q0 -26 -20 -45.5t-46 -19.5 zM454 558q-28 0 -47.5 19.5t-19.5 45.5q0 27 19.5 46.5t47.5 19.5q26 0 45 -19.5t19 -46.5q0 -26 -19 -45.5t-45 -19.5z" />
<glyph unicode="&#x1ef2;" horiz-adv-x="625" d="M378 224v-224h-132v223l-242 428h147l81 -159l81 -159l82 161l80 157h146zM140 771l95 83l154 -116l-47 -54z" />
<glyph unicode="&#x1ef3;" horiz-adv-x="513" d="M133 -191l64 176l-188 503h131l73 -218l41 -138h4l44 138l74 218h126l-248 -679h-121zM111 724l125 23l77 -184l-69 -22z" />
<glyph unicode="&#x1f00;" horiz-adv-x="541" d="M382 0l-13 44h-3q-32 -29 -65.5 -41.5t-68.5 -12.5q-37 0 -71 13t-60 42.5t-41.5 77.5t-15.5 119q0 65 15.5 113t42.5 80t62 47.5t74 15.5q34 0 67 -13t58 -39h3v42h122v-488h-106zM267 393q-42 0 -68 -40t-26 -111q0 -78 25 -112t71 -34q28 0 52 15.5t41 34.5v194 q-17 20 -41.5 36.5t-53.5 16.5zM228 560q13 19 20.5 38.5t7.5 35.5q0 19 -12.5 35.5t-53.5 23.5l38 94q60 -11 92.5 -41t32.5 -78q0 -23 -14.5 -59t-52.5 -70z" />
<glyph unicode="&#x1f01;" horiz-adv-x="541" d="M382 0l-13 44h-3q-32 -29 -65.5 -41.5t-68.5 -12.5q-37 0 -71 13t-60 42.5t-41.5 77.5t-15.5 119q0 65 15.5 113t42.5 80t62 47.5t74 15.5q34 0 67 -13t58 -39h3v42h122v-488h-106zM267 393q-42 0 -68 -40t-26 -111q0 -78 25 -112t71 -34q28 0 52 15.5t41 34.5v194 q-17 20 -41.5 36.5t-53.5 16.5zM264 538q-37 34 -51.5 70.5t-14.5 59.5q0 48 33.5 79t94.5 39l33 -94q-20 -3 -32.5 -9t-19.5 -14t-9.5 -17t-2.5 -18q0 -16 7.5 -35.5t19.5 -38.5z" />
<glyph unicode="&#x1f02;" horiz-adv-x="541" d="M382 0l-13 44h-3q-32 -29 -65.5 -41.5t-68.5 -12.5q-37 0 -71 13t-60 42.5t-41.5 77.5t-15.5 119q0 65 15.5 113t42.5 80t62 47.5t74 15.5q34 0 67 -13t58 -39h3v42h122v-488h-106zM267 393q-42 0 -68 -40t-26 -111q0 -78 25 -112t71 -34q28 0 52 15.5t41 34.5v194 q-17 20 -41.5 36.5t-53.5 16.5zM132 561q12 18 19.5 37.5t7.5 35.5q0 19 -12.5 36t-53.5 24l39 94q59 -11 91.5 -41.5t32.5 -78.5q0 -23 -14.5 -59t-51.5 -70zM261 757l131 25l77 -214l-69 -19z" />
<glyph unicode="&#x1f03;" horiz-adv-x="541" d="M382 0l-13 44h-3q-32 -29 -65.5 -41.5t-68.5 -12.5q-37 0 -71 13t-60 42.5t-41.5 77.5t-15.5 119q0 65 15.5 113t42.5 80t62 47.5t74 15.5q34 0 67 -13t58 -39h3v42h122v-488h-106zM267 393q-42 0 -68 -40t-26 -111q0 -78 25 -112t71 -34q28 0 52 15.5t41 34.5v194 q-17 20 -41.5 36.5t-53.5 16.5zM156 538q-38 34 -52.5 70.5t-14.5 59.5q0 48 33.5 79t95.5 39l32 -94q-20 -3 -32.5 -9t-19.5 -14t-9.5 -17t-2.5 -18q0 -16 7.5 -35.5t20.5 -38.5zM254 759l131 25l77 -213l-69 -19z" />
<glyph unicode="&#x1f04;" horiz-adv-x="541" d="M382 0l-13 44h-3q-32 -29 -65.5 -41.5t-68.5 -12.5q-37 0 -71 13t-60 42.5t-41.5 77.5t-15.5 119q0 65 15.5 113t42.5 80t62 47.5t74 15.5q34 0 67 -13t58 -39h3v42h122v-488h-106zM267 393q-42 0 -68 -40t-26 -111q0 -78 25 -112t71 -34q28 0 52 15.5t41 34.5v194 q-17 20 -41.5 36.5t-53.5 16.5zM166 565q13 18 20.5 38t7.5 35q0 20 -12.5 36.5t-53.5 23.5l38 94q60 -11 92.5 -41.5t32.5 -78.5q0 -23 -14.5 -59t-52.5 -70zM372 544l-69 19l77 213l130 -25z" />
<glyph unicode="&#x1f05;" horiz-adv-x="541" d="M382 0l-13 44h-3q-32 -29 -65.5 -41.5t-68.5 -12.5q-37 0 -71 13t-60 42.5t-41.5 77.5t-15.5 119q0 65 15.5 113t42.5 80t62 47.5t74 15.5q34 0 67 -13t58 -39h3v42h122v-488h-106zM267 393q-42 0 -68 -40t-26 -111q0 -78 25 -112t71 -34q28 0 52 15.5t41 34.5v194 q-17 20 -41.5 36.5t-53.5 16.5zM193 542q-37 34 -51.5 70t-14.5 59q0 48 33.5 79.5t94.5 39.5l32 -94q-40 -7 -51.5 -23t-11.5 -36q0 -15 7 -35t20 -38zM364 543l-69 20l77 213l131 -25z" />
<glyph unicode="&#x1f06;" horiz-adv-x="541" d="M382 0l-13 44h-3q-32 -29 -65.5 -41.5t-68.5 -12.5q-37 0 -71 13t-60 42.5t-41.5 77.5t-15.5 119q0 65 15.5 113t42.5 80t62 47.5t74 15.5q34 0 67 -13t58 -39h3v42h122v-488h-106zM267 393q-42 0 -68 -40t-26 -111q0 -78 25 -112t71 -34q28 0 52 15.5t41 34.5v194 q-17 20 -41.5 36.5t-53.5 16.5zM347 712q-16 0 -35 7t-38 15.5t-37.5 15.5t-33.5 7t-30 -8t-38 -37l-48 24q10 32 24 53.5t29.5 35t31.5 19.5t31 6q18 0 38.5 -7.5t40 -16t37 -16t31.5 -7.5q9 0 16.5 1.5t15 6t15.5 12.5t19 21l48 -26q-20 -59 -51 -82.5t-66 -23.5zM231 708 q57 -5 88.5 -27t31.5 -55q0 -24 -21.5 -51.5t-71.5 -49.5l-26 32q15 13 24 24t9 20q0 15 -12.5 23.5t-47.5 15.5z" />
<glyph unicode="&#x1f07;" horiz-adv-x="541" d="M382 0l-13 44h-3q-32 -29 -65.5 -41.5t-68.5 -12.5q-37 0 -71 13t-60 42.5t-41.5 77.5t-15.5 119q0 65 15.5 113t42.5 80t62 47.5t74 15.5q34 0 67 -13t58 -39h3v42h122v-488h-106zM267 393q-42 0 -68 -40t-26 -111q0 -78 25 -112t71 -34q28 0 52 15.5t41 34.5v194 q-17 20 -41.5 36.5t-53.5 16.5zM345 712q-16 0 -35 7t-38 15.5t-37.5 15.5t-33.5 7q-16 0 -30.5 -7.5t-37.5 -37.5l-48 24q10 32 24 53.5t29.5 35t31.5 19.5t31 6q18 0 38 -7.5t40 -16t37.5 -16t31.5 -7.5q9 0 16.5 1.5t15 6t15.5 12.5t19 21l47 -26q-20 -59 -50.5 -82.5 t-65.5 -23.5zM339 640q-29 -8 -41.5 -16.5t-12.5 -22.5q0 -10 9 -20t23 -20l-21 -34q-56 16 -77 41t-20 50q2 33 31.5 58.5t89.5 28.5z" />
<glyph unicode="&#x1f08;" horiz-adv-x="668" d="M470 138h-268l-48 -138h-138l247 651h150l248 -651h-142zM335 519q-3 -10 -9 -28t-12.5 -36.5t-12 -35.5t-8.5 -25l-54 -150h194l-59 168q-3 8 -7.5 22t-10 29.5t-10.5 30.5t-8 25h-3zM-1 453q13 19 20.5 38.5t7.5 35.5q0 19 -12.5 35.5t-53.5 23.5l38 94 q60 -11 92.5 -41t32.5 -78q0 -23 -14.5 -59t-52.5 -70z" />
<glyph unicode="&#x1f09;" horiz-adv-x="668" d="M470 138h-268l-48 -138h-138l247 651h150l248 -651h-142zM335 519q-3 -10 -9 -28t-12.5 -36.5t-12 -35.5t-8.5 -25l-54 -150h194l-59 168q-3 8 -7.5 22t-10 29.5t-10.5 30.5t-8 25h-3zM30 439q-37 34 -51.5 70.5t-14.5 59.5q0 48 33.5 79t94.5 39l33 -94q-20 -3 -32.5 -9 t-19.5 -14t-9.5 -17t-2.5 -18q0 -16 7.5 -35.5t19.5 -38.5z" />
<glyph unicode="&#x1f0a;" horiz-adv-x="668" d="M470 138h-268l-48 -138h-138l247 651h150l248 -651h-142zM335 519q-3 -10 -9 -28t-12.5 -36.5t-12 -35.5t-8.5 -25l-54 -150h194l-59 168q-3 8 -7.5 22t-10 29.5t-10.5 30.5t-8 25h-3zM-180 470q12 18 19.5 37.5t7.5 35.5q0 19 -12.5 36t-53.5 24l39 94 q59 -11 91.5 -41.5t32.5 -78.5q0 -23 -14.5 -59t-51.5 -70zM-51 666l131 25l77 -214l-69 -19z" />
<glyph unicode="&#x1f0b;" horiz-adv-x="668" d="M470 138h-268l-48 -138h-138l247 651h150l248 -651h-142zM335 519q-3 -10 -9 -28t-12.5 -36.5t-12 -35.5t-8.5 -25l-54 -150h194l-59 168q-3 8 -7.5 22t-10 29.5t-10.5 30.5t-8 25h-3zM-151 442q-38 34 -52.5 70.5t-14.5 59.5q0 48 33.5 79t95.5 39l32 -94 q-20 -3 -32.5 -9t-19.5 -14t-9.5 -17t-2.5 -18q0 -16 7.5 -35.5t20.5 -38.5zM-53 663l131 25l77 -213l-69 -19z" />
<glyph unicode="&#x1f0c;" horiz-adv-x="668" d="M470 138h-268l-48 -138h-138l247 651h150l248 -651h-142zM335 519q-3 -10 -9 -28t-12.5 -36.5t-12 -35.5t-8.5 -25l-54 -150h194l-59 168q-3 8 -7.5 22t-10 29.5t-10.5 30.5t-8 25h-3zM-155 469q13 18 20.5 38t7.5 35q0 20 -12.5 36.5t-53.5 23.5l38 94 q60 -11 92.5 -41.5t32.5 -78.5q0 -23 -14.5 -59t-52.5 -70zM51 448l-69 19l77 213l130 -25z" />
<glyph unicode="&#x1f0d;" horiz-adv-x="668" d="M470 138h-268l-48 -138h-138l247 651h150l248 -651h-142zM335 519q-3 -10 -9 -28t-12.5 -36.5t-12 -35.5t-8.5 -25l-54 -150h194l-59 168q-3 8 -7.5 22t-10 29.5t-10.5 30.5t-8 25h-3zM-121 451q-37 34 -51.5 70t-14.5 59q0 48 33.5 79.5t94.5 39.5l32 -94 q-40 -7 -51.5 -23t-11.5 -36q0 -15 7 -35t20 -38zM50 452l-69 20l77 213l131 -25z" />
<glyph unicode="&#x1f0e;" horiz-adv-x="668" d="M470 138h-268l-48 -138h-138l247 651h150l248 -651h-142zM335 519q-3 -10 -9 -28t-12.5 -36.5t-12 -35.5t-8.5 -25l-54 -150h194l-59 168q-3 8 -7.5 22t-10 29.5t-10.5 30.5t-8 25h-3zM85 580q-16 0 -35 7t-38 15.5t-37.5 15.5t-33.5 7t-30 -8t-38 -37l-48 24 q10 32 24 53.5t29.5 35t31.5 19.5t31 6q18 0 38.5 -7.5t40 -16t37 -16t31.5 -7.5q9 0 16.5 1.5t15 6t15.5 12.5t19 21l48 -26q-20 -59 -51 -82.5t-66 -23.5zM-31 576q57 -5 88.5 -27t31.5 -55q0 -24 -21.5 -51.5t-71.5 -49.5l-26 32q15 13 24 24t9 20q0 15 -12.5 23.5 t-47.5 15.5z" />
<glyph unicode="&#x1f0f;" horiz-adv-x="668" d="M470 138h-268l-48 -138h-138l247 651h150l248 -651h-142zM335 519q-3 -10 -9 -28t-12.5 -36.5t-12 -35.5t-8.5 -25l-54 -150h194l-59 168q-3 8 -7.5 22t-10 29.5t-10.5 30.5t-8 25h-3zM89 580q-16 0 -35 7t-38 15.5t-37.5 15.5t-33.5 7q-16 0 -30.5 -7.5t-37.5 -37.5 l-48 24q10 32 24 53.5t29.5 35t31.5 19.5t31 6q18 0 38 -7.5t40 -16t37.5 -16t31.5 -7.5q9 0 16.5 1.5t15 6t15.5 12.5t19 21l47 -26q-20 -59 -50.5 -82.5t-65.5 -23.5zM83 508q-29 -8 -41.5 -16.5t-12.5 -22.5q0 -10 9 -20t23 -20l-21 -34q-56 16 -77 41t-20 50 q2 33 31.5 58.5t89.5 28.5z" />
<glyph unicode="&#x1f10;" horiz-adv-x="462" d="M451 71q-42 -45 -96 -63t-110 -18q-37 0 -73 8t-64.5 25t-46 45t-17.5 67q0 33 20.5 64.5t58.5 46.5v1q-38 14 -56 42.5t-18 57.5q0 37 17 65t45 47t63.5 29t72.5 10q53 0 101 -15t87 -55l-68 -79q-29 29 -55.5 39t-49.5 10q-24 0 -40.5 -6.5t-26.5 -15.5t-14.5 -18.5 t-4.5 -15.5q0 -16 5.5 -26t14 -15.5t19.5 -7.5t23 -2h67v-84h-68q-24 0 -46.5 -14t-22.5 -39q0 -11 4.5 -22t14.5 -21t27 -16t41 -6q21 0 52.5 10t73.5 49zM205 560q13 19 20.5 38.5t7.5 35.5q0 19 -12.5 35.5t-53.5 23.5l38 94q60 -11 92.5 -41t32.5 -78q0 -23 -14.5 -59 t-52.5 -70z" />
<glyph unicode="&#x1f11;" horiz-adv-x="462" d="M451 71q-42 -45 -96 -63t-110 -18q-37 0 -73 8t-64.5 25t-46 45t-17.5 67q0 33 20.5 64.5t58.5 46.5v1q-38 14 -56 42.5t-18 57.5q0 37 17 65t45 47t63.5 29t72.5 10q53 0 101 -15t87 -55l-68 -79q-29 29 -55.5 39t-49.5 10q-24 0 -40.5 -6.5t-26.5 -15.5t-14.5 -18.5 t-4.5 -15.5q0 -16 5.5 -26t14 -15.5t19.5 -7.5t23 -2h67v-84h-68q-24 0 -46.5 -14t-22.5 -39q0 -11 4.5 -22t14.5 -21t27 -16t41 -6q21 0 52.5 10t73.5 49zM234 538q-37 34 -51.5 70.5t-14.5 59.5q0 48 33.5 79t94.5 39l33 -94q-20 -3 -32.5 -9t-19.5 -14t-9.5 -17t-2.5 -18 q0 -16 7.5 -35.5t19.5 -38.5z" />
<glyph unicode="&#x1f12;" horiz-adv-x="462" d="M451 71q-42 -45 -96 -63t-110 -18q-37 0 -73 8t-64.5 25t-46 45t-17.5 67q0 33 20.5 64.5t58.5 46.5v1q-38 14 -56 42.5t-18 57.5q0 37 17 65t45 47t63.5 29t72.5 10q53 0 101 -15t87 -55l-68 -79q-29 29 -55.5 39t-49.5 10q-24 0 -40.5 -6.5t-26.5 -15.5t-14.5 -18.5 t-4.5 -15.5q0 -16 5.5 -26t14 -15.5t19.5 -7.5t23 -2h67v-84h-68q-24 0 -46.5 -14t-22.5 -39q0 -11 4.5 -22t14.5 -21t27 -16t41 -6q21 0 52.5 10t73.5 49zM92 563q12 18 19.5 37.5t7.5 35.5q0 19 -12.5 36t-53.5 24l39 94q59 -11 91.5 -41.5t32.5 -78.5q0 -23 -14.5 -59 t-51.5 -70zM221 759l131 25l77 -214l-69 -19z" />
<glyph unicode="&#x1f13;" horiz-adv-x="462" d="M451 71q-42 -45 -96 -63t-110 -18q-37 0 -73 8t-64.5 25t-46 45t-17.5 67q0 33 20.5 64.5t58.5 46.5v1q-38 14 -56 42.5t-18 57.5q0 37 17 65t45 47t63.5 29t72.5 10q53 0 101 -15t87 -55l-68 -79q-29 29 -55.5 39t-49.5 10q-24 0 -40.5 -6.5t-26.5 -15.5t-14.5 -18.5 t-4.5 -15.5q0 -16 5.5 -26t14 -15.5t19.5 -7.5t23 -2h67v-84h-68q-24 0 -46.5 -14t-22.5 -39q0 -11 4.5 -22t14.5 -21t27 -16t41 -6q21 0 52.5 10t73.5 49zM116 536q-38 34 -52.5 70.5t-14.5 59.5q0 48 33.5 79t95.5 39l32 -94q-20 -3 -32.5 -9t-19.5 -14t-9.5 -17t-2.5 -18 q0 -16 7.5 -35.5t20.5 -38.5zM214 757l131 25l77 -213l-69 -19z" />
<glyph unicode="&#x1f14;" horiz-adv-x="462" d="M451 71q-42 -45 -96 -63t-110 -18q-37 0 -73 8t-64.5 25t-46 45t-17.5 67q0 33 20.5 64.5t58.5 46.5v1q-38 14 -56 42.5t-18 57.5q0 37 17 65t45 47t63.5 29t72.5 10q53 0 101 -15t87 -55l-68 -79q-29 29 -55.5 39t-49.5 10q-24 0 -40.5 -6.5t-26.5 -15.5t-14.5 -18.5 t-4.5 -15.5q0 -16 5.5 -26t14 -15.5t19.5 -7.5t23 -2h67v-84h-68q-24 0 -46.5 -14t-22.5 -39q0 -11 4.5 -22t14.5 -21t27 -16t41 -6q21 0 52.5 10t73.5 49zM132 566q13 18 20.5 38t7.5 35q0 20 -12.5 36.5t-53.5 23.5l38 94q60 -11 92.5 -41.5t32.5 -78.5q0 -23 -14.5 -59 t-52.5 -70zM338 545l-69 19l77 213l130 -25z" />
<glyph unicode="&#x1f15;" horiz-adv-x="462" d="M451 71q-42 -45 -96 -63t-110 -18q-37 0 -73 8t-64.5 25t-46 45t-17.5 67q0 33 20.5 64.5t58.5 46.5v1q-38 14 -56 42.5t-18 57.5q0 37 17 65t45 47t63.5 29t72.5 10q53 0 101 -15t87 -55l-68 -79q-29 29 -55.5 39t-49.5 10q-24 0 -40.5 -6.5t-26.5 -15.5t-14.5 -18.5 t-4.5 -15.5q0 -16 5.5 -26t14 -15.5t19.5 -7.5t23 -2h67v-84h-68q-24 0 -46.5 -14t-22.5 -39q0 -11 4.5 -22t14.5 -21t27 -16t41 -6q21 0 52.5 10t73.5 49zM159 543q-37 34 -51.5 70t-14.5 59q0 48 33.5 79.5t94.5 39.5l32 -94q-40 -7 -51.5 -23t-11.5 -36q0 -15 7 -35 t20 -38zM330 544l-69 20l77 213l131 -25z" />
<glyph unicode="&#x1f18;" horiz-adv-x="549" d="M61 651h459v-114h-327v-138h229v-115h-229v-169h338v-115h-470v651zM-117 460q13 19 20.5 38.5t7.5 35.5q0 19 -12.5 35.5t-53.5 23.5l38 94q60 -11 92.5 -41t32.5 -78q0 -23 -14.5 -59t-52.5 -70z" />
<glyph unicode="&#x1f19;" horiz-adv-x="549" d="M61 651h459v-114h-327v-138h229v-115h-229v-169h338v-115h-470v651zM-90 437q-37 34 -51.5 70.5t-14.5 59.5q0 48 33.5 79t94.5 39l33 -94q-20 -3 -32.5 -9t-19.5 -14t-9.5 -17t-2.5 -18q0 -16 7.5 -35.5t19.5 -38.5z" />
<glyph unicode="&#x1f1a;" horiz-adv-x="549" d="M61 651h459v-114h-327v-138h229v-115h-229v-169h338v-115h-470v651zM-318 464q12 18 19.5 37.5t7.5 35.5q0 19 -12.5 36t-53.5 24l39 94q59 -11 91.5 -41.5t32.5 -78.5q0 -23 -14.5 -59t-51.5 -70zM-189 660l131 25l77 -214l-69 -19z" />
<glyph unicode="&#x1f1b;" horiz-adv-x="549" d="M61 651h459v-114h-327v-138h229v-115h-229v-169h338v-115h-470v651zM-294 439q-38 34 -52.5 70.5t-14.5 59.5q0 48 33.5 79t95.5 39l32 -94q-20 -3 -32.5 -9t-19.5 -14t-9.5 -17t-2.5 -18q0 -16 7.5 -35.5t20.5 -38.5zM-196 660l131 25l77 -213l-69 -19z" />
<glyph unicode="&#x1f1c;" horiz-adv-x="549" d="M61 651h459v-114h-327v-138h229v-115h-229v-169h338v-115h-470v651zM-325 464q13 18 20.5 38t7.5 35q0 20 -12.5 36.5t-53.5 23.5l38 94q60 -11 92.5 -41.5t32.5 -78.5q0 -23 -14.5 -59t-52.5 -70zM-119 443l-69 19l77 213l130 -25z" />
<glyph unicode="&#x1f1d;" horiz-adv-x="549" d="M61 651h459v-114h-327v-138h229v-115h-229v-169h338v-115h-470v651zM-291 442q-37 34 -51.5 70t-14.5 59q0 48 33.5 79.5t94.5 39.5l32 -94q-40 -7 -51.5 -23t-11.5 -36q0 -15 7 -35t20 -38zM-120 443l-69 20l77 213l131 -25z" />
<glyph unicode="&#x1f20;" horiz-adv-x="533" d="M486 0h-127v281q0 52 -20 80t-65 28q-34 0 -57.5 -19t-31.5 -51q-2 -9 -4 -20.5t-2 -23.5v-275h-126v488h126v-52h4q26 30 62.5 46t70.5 16q90 0 130 -52.5t40 -141.5v-304zM192 560q13 19 20.5 38.5t7.5 35.5q0 19 -12.5 35.5t-53.5 23.5l38 94q60 -11 92.5 -41 t32.5 -78q0 -23 -14.5 -59t-52.5 -70z" />
<glyph unicode="&#x1f21;" horiz-adv-x="533" d="M486 0h-127v281q0 52 -20 80t-65 28q-34 0 -57.5 -19t-31.5 -51q-2 -9 -4 -20.5t-2 -23.5v-275h-126v488h126v-52h4q26 30 62.5 46t70.5 16q90 0 130 -52.5t40 -141.5v-304zM237 538q-37 34 -51.5 70.5t-14.5 59.5q0 48 33.5 79t94.5 39l33 -94q-20 -3 -32.5 -9 t-19.5 -14t-9.5 -17t-2.5 -18q0 -16 7.5 -35.5t19.5 -38.5z" />
<glyph unicode="&#x1f22;" horiz-adv-x="533" d="M486 0h-127v281q0 52 -20 80t-65 28q-34 0 -57.5 -19t-31.5 -51q-2 -9 -4 -20.5t-2 -23.5v-275h-126v488h126v-52h4q26 30 62.5 46t70.5 16q90 0 130 -52.5t40 -141.5v-304zM103 567q12 18 19.5 37.5t7.5 35.5q0 19 -12.5 36t-53.5 24l39 94q59 -11 91.5 -41.5 t32.5 -78.5q0 -23 -14.5 -59t-51.5 -70zM232 763l131 25l77 -214l-69 -19z" />
<glyph unicode="&#x1f23;" horiz-adv-x="533" d="M486 0h-127v281q0 52 -20 80t-65 28q-34 0 -57.5 -19t-31.5 -51q-2 -9 -4 -20.5t-2 -23.5v-275h-126v488h126v-52h4q26 30 62.5 46t70.5 16q90 0 130 -52.5t40 -141.5v-304zM133 537q-38 34 -52.5 70.5t-14.5 59.5q0 48 33.5 79t95.5 39l32 -94q-20 -3 -32.5 -9 t-19.5 -14t-9.5 -17t-2.5 -18q0 -16 7.5 -35.5t20.5 -38.5zM231 758l131 25l77 -213l-69 -19z" />
<glyph unicode="&#x1f24;" horiz-adv-x="533" d="M486 0h-127v281q0 52 -20 80t-65 28q-34 0 -57.5 -19t-31.5 -51q-2 -9 -4 -20.5t-2 -23.5v-275h-126v488h126v-52h4q26 30 62.5 46t70.5 16q90 0 130 -52.5t40 -141.5v-304zM124 565q13 18 20.5 38t7.5 35q0 20 -12.5 36.5t-53.5 23.5l38 94q60 -11 92.5 -41.5 t32.5 -78.5q0 -23 -14.5 -59t-52.5 -70zM330 544l-69 19l77 213l130 -25z" />
<glyph unicode="&#x1f25;" horiz-adv-x="533" d="M486 0h-127v281q0 52 -20 80t-65 28q-34 0 -57.5 -19t-31.5 -51q-2 -9 -4 -20.5t-2 -23.5v-275h-126v488h126v-52h4q26 30 62.5 46t70.5 16q90 0 130 -52.5t40 -141.5v-304zM158 543q-37 34 -51.5 70t-14.5 59q0 48 33.5 79.5t94.5 39.5l32 -94q-40 -7 -51.5 -23 t-11.5 -36q0 -15 7 -35t20 -38zM329 544l-69 20l77 213l131 -25z" />
<glyph unicode="&#x1f26;" horiz-adv-x="533" d="M486 0h-127v281q0 52 -20 80t-65 28q-34 0 -57.5 -19t-31.5 -51q-2 -9 -4 -20.5t-2 -23.5v-275h-126v488h126v-52h4q26 30 62.5 46t70.5 16q90 0 130 -52.5t40 -141.5v-304zM322 710q-16 0 -35 7t-38 15.5t-37.5 15.5t-33.5 7t-30 -8t-38 -37l-48 24q10 32 24 53.5 t29.5 35t31.5 19.5t31 6q18 0 38.5 -7.5t40 -16t37 -16t31.5 -7.5q9 0 16.5 1.5t15 6t15.5 12.5t19 21l48 -26q-20 -59 -51 -82.5t-66 -23.5zM206 706q57 -5 88.5 -27t31.5 -55q0 -24 -21.5 -51.5t-71.5 -49.5l-26 32q15 13 24 24t9 20q0 15 -12.5 23.5t-47.5 15.5z" />
<glyph unicode="&#x1f27;" horiz-adv-x="533" d="M486 0h-127v281q0 52 -20 80t-65 28q-34 0 -57.5 -19t-31.5 -51q-2 -9 -4 -20.5t-2 -23.5v-275h-126v488h126v-52h4q26 30 62.5 46t70.5 16q90 0 130 -52.5t40 -141.5v-304zM326 711q-16 0 -35 7t-38 15.5t-37.5 15.5t-33.5 7q-16 0 -30.5 -7.5t-37.5 -37.5l-48 24 q10 32 24 53.5t29.5 35t31.5 19.5t31 6q18 0 38 -7.5t40 -16t37.5 -16t31.5 -7.5q9 0 16.5 1.5t15 6t15.5 12.5t19 21l47 -26q-20 -59 -50.5 -82.5t-65.5 -23.5zM320 639q-29 -8 -41.5 -16.5t-12.5 -22.5q0 -10 9 -20t23 -20l-21 -34q-56 16 -77 41t-20 50q2 33 31.5 58.5 t89.5 28.5z" />
<glyph unicode="&#x1f28;" horiz-adv-x="656" d="M462 278h-269v-278h-133v651h133v-257h269v257h133v-651h-133v278zM-134 456q13 19 20.5 38.5t7.5 35.5q0 19 -12.5 35.5t-53.5 23.5l38 94q60 -11 92.5 -41t32.5 -78q0 -23 -14.5 -59t-52.5 -70z" />
<glyph unicode="&#x1f29;" horiz-adv-x="656" d="M462 278h-269v-278h-133v651h133v-257h269v257h133v-651h-133v278zM-90 436q-37 34 -51.5 70.5t-14.5 59.5q0 48 33.5 79t94.5 39l33 -94q-20 -3 -32.5 -9t-19.5 -14t-9.5 -17t-2.5 -18q0 -16 7.5 -35.5t19.5 -38.5z" />
<glyph unicode="&#x1f2a;" horiz-adv-x="656" d="M462 278h-269v-278h-133v651h133v-257h269v257h133v-651h-133v278zM-312 463q12 18 19.5 37.5t7.5 35.5q0 19 -12.5 36t-53.5 24l39 94q59 -11 91.5 -41.5t32.5 -78.5q0 -23 -14.5 -59t-51.5 -70zM-183 659l131 25l77 -214l-69 -19z" />
<glyph unicode="&#x1f2b;" horiz-adv-x="656" d="M462 278h-269v-278h-133v651h133v-257h269v257h133v-651h-133v278zM-279 436q-38 34 -52.5 70.5t-14.5 59.5q0 48 33.5 79t95.5 39l32 -94q-20 -3 -32.5 -9t-19.5 -14t-9.5 -17t-2.5 -18q0 -16 7.5 -35.5t20.5 -38.5zM-181 657l131 25l77 -213l-69 -19z" />
<glyph unicode="&#x1f2c;" horiz-adv-x="656" d="M462 278h-269v-278h-133v651h133v-257h269v257h133v-651h-133v278zM-308 467q13 18 20.5 38t7.5 35q0 20 -12.5 36.5t-53.5 23.5l38 94q60 -11 92.5 -41.5t32.5 -78.5q0 -23 -14.5 -59t-52.5 -70zM-102 446l-69 19l77 213l130 -25z" />
<glyph unicode="&#x1f2d;" horiz-adv-x="656" d="M462 278h-269v-278h-133v651h133v-257h269v257h133v-651h-133v278zM-272 442q-37 34 -51.5 70t-14.5 59q0 48 33.5 79.5t94.5 39.5l32 -94q-40 -7 -51.5 -23t-11.5 -36q0 -15 7 -35t20 -38zM-101 443l-69 20l77 213l131 -25z" />
<glyph unicode="&#x1f2e;" horiz-adv-x="656" d="M462 278h-269v-278h-133v651h133v-257h269v257h133v-651h-133v278zM-87 580q-16 0 -35 7t-38 15.5t-37.5 15.5t-33.5 7t-30 -8t-38 -37l-48 24q10 32 24 53.5t29.5 35t31.5 19.5t31 6q18 0 38.5 -7.5t40 -16t37 -16t31.5 -7.5q9 0 16.5 1.5t15 6t15.5 12.5t19 21l48 -26 q-20 -59 -51 -82.5t-66 -23.5zM-203 576q57 -5 88.5 -27t31.5 -55q0 -24 -21.5 -51.5t-71.5 -49.5l-26 32q15 13 24 24t9 20q0 15 -12.5 23.5t-47.5 15.5z" />
<glyph unicode="&#x1f2f;" horiz-adv-x="656" d="M462 278h-269v-278h-133v651h133v-257h269v257h133v-651h-133v278zM-83 578q-16 0 -35 7t-38 15.5t-37.5 15.5t-33.5 7q-16 0 -30.5 -7.5t-37.5 -37.5l-48 24q10 32 24 53.5t29.5 35t31.5 19.5t31 6q18 0 38 -7.5t40 -16t37.5 -16t31.5 -7.5q9 0 16.5 1.5t15 6t15.5 12.5 t19 21l47 -26q-20 -59 -50.5 -82.5t-65.5 -23.5zM-89 506q-29 -8 -41.5 -16.5t-12.5 -22.5q0 -10 9 -20t23 -20l-21 -34q-56 16 -77 41t-20 50q2 33 31.5 58.5t89.5 28.5z" />
<glyph unicode="&#x1f30;" horiz-adv-x="271" d="M73 488h126v-488h-126v488zM93 560q13 19 20.5 38.5t7.5 35.5q0 19 -12.5 35.5t-53.5 23.5l38 94q60 -11 92.5 -41t32.5 -78q0 -23 -14.5 -59t-52.5 -70z" />
<glyph unicode="&#x1f31;" horiz-adv-x="271" d="M73 488h126v-488h-126v488zM129 538q-37 34 -51.5 70.5t-14.5 59.5q0 48 33.5 79t94.5 39l33 -94q-20 -3 -32.5 -9t-19.5 -14t-9.5 -17t-2.5 -18q0 -16 7.5 -35.5t19.5 -38.5z" />
<glyph unicode="&#x1f32;" horiz-adv-x="271" d="M73 488h126v-488h-126v488zM-21 567q12 18 19.5 37.5t7.5 35.5q0 19 -12.5 36t-53.5 24l39 94q59 -11 91.5 -41.5t32.5 -78.5q0 -23 -14.5 -59t-51.5 -70zM108 763l131 25l77 -214l-69 -19z" />
<glyph unicode="&#x1f33;" horiz-adv-x="271" d="M73 488h126v-488h-126v488zM10 538q-38 34 -52.5 70.5t-14.5 59.5q0 48 33.5 79t95.5 39l32 -94q-20 -3 -32.5 -9t-19.5 -14t-9.5 -17t-2.5 -18q0 -16 7.5 -35.5t20.5 -38.5zM108 759l131 25l77 -213l-69 -19z" />
<glyph unicode="&#x1f34;" horiz-adv-x="271" d="M73 488h126v-488h-126v488zM16 564q13 18 20.5 38t7.5 35q0 20 -12.5 36.5t-53.5 23.5l38 94q60 -11 92.5 -41.5t32.5 -78.5q0 -23 -14.5 -59t-52.5 -70zM222 543l-69 19l77 213l130 -25z" />
<glyph unicode="&#x1f35;" horiz-adv-x="271" d="M73 488h126v-488h-126v488zM47 541q-37 34 -51.5 70t-14.5 59q0 48 33.5 79.5t94.5 39.5l32 -94q-40 -7 -51.5 -23t-11.5 -36q0 -15 7 -35t20 -38zM218 542l-69 20l77 213l131 -25z" />
<glyph unicode="&#x1f36;" horiz-adv-x="271" d="M73 488h126v-488h-126v488zM206 715q-16 0 -35 7t-38 15.5t-37.5 15.5t-33.5 7t-30 -8t-38 -37l-48 24q10 32 24 53.5t29.5 35t31.5 19.5t31 6q18 0 38.5 -7.5t40 -16t37 -16t31.5 -7.5q9 0 16.5 1.5t15 6t15.5 12.5t19 21l48 -26q-20 -59 -51 -82.5t-66 -23.5zM90 711 q57 -5 88.5 -27t31.5 -55q0 -24 -21.5 -51.5t-71.5 -49.5l-26 32q15 13 24 24t9 20q0 15 -12.5 23.5t-47.5 15.5z" />
<glyph unicode="&#x1f37;" horiz-adv-x="271" d="M73 488h126v-488h-126v488zM207 715q-16 0 -35 7t-38 15.5t-37.5 15.5t-33.5 7q-16 0 -30.5 -7.5t-37.5 -37.5l-48 24q10 32 24 53.5t29.5 35t31.5 19.5t31 6q18 0 38 -7.5t40 -16t37.5 -16t31.5 -7.5q9 0 16.5 1.5t15 6t15.5 12.5t19 21l47 -26q-20 -59 -50.5 -82.5 t-65.5 -23.5zM201 643q-29 -8 -41.5 -16.5t-12.5 -22.5q0 -10 9 -20t23 -20l-21 -34q-56 16 -77 41t-20 50q2 33 31.5 58.5t89.5 28.5z" />
<glyph unicode="&#x1f38;" horiz-adv-x="280" d="M73 651h134v-651h-134v651zM-120 461q13 19 20.5 38.5t7.5 35.5q0 19 -12.5 35.5t-53.5 23.5l38 94q60 -11 92.5 -41t32.5 -78q0 -23 -14.5 -59t-52.5 -70z" />
<glyph unicode="&#x1f39;" horiz-adv-x="280" d="M73 651h134v-651h-134v651zM-72 432q-37 34 -51.5 70.5t-14.5 59.5q0 48 33.5 79t94.5 39l33 -94q-20 -3 -32.5 -9t-19.5 -14t-9.5 -17t-2.5 -18q0 -16 7.5 -35.5t19.5 -38.5z" />
<glyph unicode="&#x1f3a;" horiz-adv-x="280" d="M73 651h134v-651h-134v651zM-303 463q12 18 19.5 37.5t7.5 35.5q0 19 -12.5 36t-53.5 24l39 94q59 -11 91.5 -41.5t32.5 -78.5q0 -23 -14.5 -59t-51.5 -70zM-174 659l131 25l77 -214l-69 -19z" />
<glyph unicode="&#x1f3b;" horiz-adv-x="280" d="M73 651h134v-651h-134v651zM-270 437q-38 34 -52.5 70.5t-14.5 59.5q0 48 33.5 79t95.5 39l32 -94q-20 -3 -32.5 -9t-19.5 -14t-9.5 -17t-2.5 -18q0 -16 7.5 -35.5t20.5 -38.5zM-172 658l131 25l77 -213l-69 -19z" />
<glyph unicode="&#x1f3c;" horiz-adv-x="280" d="M73 651h134v-651h-134v651zM-306 465q13 18 20.5 38t7.5 35q0 20 -12.5 36.5t-53.5 23.5l38 94q60 -11 92.5 -41.5t32.5 -78.5q0 -23 -14.5 -59t-52.5 -70zM-100 444l-69 19l77 213l130 -25z" />
<glyph unicode="&#x1f3d;" horiz-adv-x="280" d="M73 651h134v-651h-134v651zM-269 439q-37 34 -51.5 70t-14.5 59q0 48 33.5 79.5t94.5 39.5l32 -94q-40 -7 -51.5 -23t-11.5 -36q0 -15 7 -35t20 -38zM-98 440l-69 20l77 213l131 -25z" />
<glyph unicode="&#x1f3e;" horiz-adv-x="280" d="M73 651h134v-651h-134v651zM-60 579q-16 0 -35 7t-38 15.5t-37.5 15.5t-33.5 7t-30 -8t-38 -37l-48 24q10 32 24 53.5t29.5 35t31.5 19.5t31 6q18 0 38.5 -7.5t40 -16t37 -16t31.5 -7.5q9 0 16.5 1.5t15 6t15.5 12.5t19 21l48 -26q-20 -59 -51 -82.5t-66 -23.5zM-176 575 q57 -5 88.5 -27t31.5 -55q0 -24 -21.5 -51.5t-71.5 -49.5l-26 32q15 13 24 24t9 20q0 15 -12.5 23.5t-47.5 15.5z" />
<glyph unicode="&#x1f3f;" horiz-adv-x="280" d="M73 651h134v-651h-134v651zM-58 580q-16 0 -35 7t-38 15.5t-37.5 15.5t-33.5 7q-16 0 -30.5 -7.5t-37.5 -37.5l-48 24q10 32 24 53.5t29.5 35t31.5 19.5t31 6q18 0 38 -7.5t40 -16t37.5 -16t31.5 -7.5q9 0 16.5 1.5t15 6t15.5 12.5t19 21l47 -26q-20 -59 -50.5 -82.5 t-65.5 -23.5zM-64 508q-29 -8 -41.5 -16.5t-12.5 -22.5q0 -10 9 -20t23 -20l-21 -34q-56 16 -77 41t-20 50q2 33 31.5 58.5t89.5 28.5z" />
<glyph unicode="&#x1f40;" horiz-adv-x="553" d="M232 560q13 19 20.5 38.5t7.5 35.5q0 19 -12.5 35.5t-53.5 23.5l38 94q60 -11 92.5 -41t32.5 -78q0 -23 -14.5 -59t-52.5 -70zM275 -11q-53 0 -95.5 18t-72.5 51t-46.5 80t-16.5 105q0 60 17 107.5t48 80t74 50t94 17.5t94 -17.5t73.5 -50.5t47.5 -80t17 -105 q0 -60 -17.5 -107.5t-48.5 -80.5t-74 -50.5t-94 -17.5zM274 393q-50 0 -76 -42t-26 -106q0 -72 27 -111.5t78 -39.5q25 0 44.5 11.5t32.5 32t20 47.5t7 58q0 67 -27 108.5t-80 41.5z" />
<glyph unicode="&#x1f41;" horiz-adv-x="553" d="M265 538q-37 34 -51.5 70.5t-14.5 59.5q0 48 33.5 79t94.5 39l33 -94q-20 -3 -32.5 -9t-19.5 -14t-9.5 -17t-2.5 -18q0 -16 7.5 -35.5t19.5 -38.5zM275 -11q-53 0 -95.5 18t-72.5 51t-46.5 80t-16.5 105q0 60 17 107.5t48 80t74 50t94 17.5t94 -17.5t73.5 -50.5t47.5 -80 t17 -105q0 -60 -17.5 -107.5t-48.5 -80.5t-74 -50.5t-94 -17.5zM274 393q-50 0 -76 -42t-26 -106q0 -72 27 -111.5t78 -39.5q25 0 44.5 11.5t32.5 32t20 47.5t7 58q0 67 -27 108.5t-80 41.5z" />
<glyph unicode="&#x1f42;" horiz-adv-x="553" d="M102 561q12 18 19.5 37.5t7.5 35.5q0 19 -12.5 36t-53.5 24l39 94q59 -11 91.5 -41.5t32.5 -78.5q0 -23 -14.5 -59t-51.5 -70zM231 757l131 25l77 -214l-69 -19zM275 -11q-53 0 -95.5 18t-72.5 51t-46.5 80t-16.5 105q0 60 17 107.5t48 80t74 50t94 17.5t94 -17.5 t73.5 -50.5t47.5 -80t17 -105q0 -60 -17.5 -107.5t-48.5 -80.5t-74 -50.5t-94 -17.5zM274 393q-50 0 -76 -42t-26 -106q0 -72 27 -111.5t78 -39.5q25 0 44.5 11.5t32.5 32t20 47.5t7 58q0 67 -27 108.5t-80 41.5z" />
<glyph unicode="&#x1f43;" horiz-adv-x="553" d="M146 536q-38 34 -52.5 70.5t-14.5 59.5q0 48 33.5 79t95.5 39l32 -94q-20 -3 -32.5 -9t-19.5 -14t-9.5 -17t-2.5 -18q0 -16 7.5 -35.5t20.5 -38.5zM244 757l131 25l77 -213l-69 -19zM275 -11q-53 0 -95.5 18t-72.5 51t-46.5 80t-16.5 105q0 60 17 107.5t48 80t74 50 t94 17.5t94 -17.5t73.5 -50.5t47.5 -80t17 -105q0 -60 -17.5 -107.5t-48.5 -80.5t-74 -50.5t-94 -17.5zM274 393q-50 0 -76 -42t-26 -106q0 -72 27 -111.5t78 -39.5q25 0 44.5 11.5t32.5 32t20 47.5t7 58q0 67 -27 108.5t-80 41.5z" />
<glyph unicode="&#x1f44;" horiz-adv-x="553" d="M138 565q13 18 20.5 38t7.5 35q0 20 -12.5 36.5t-53.5 23.5l38 94q60 -11 92.5 -41.5t32.5 -78.5q0 -23 -14.5 -59t-52.5 -70zM344 544l-69 19l77 213l130 -25zM275 -11q-53 0 -95.5 18t-72.5 51t-46.5 80t-16.5 105q0 60 17 107.5t48 80t74 50t94 17.5t94 -17.5 t73.5 -50.5t47.5 -80t17 -105q0 -60 -17.5 -107.5t-48.5 -80.5t-74 -50.5t-94 -17.5zM274 393q-50 0 -76 -42t-26 -106q0 -72 27 -111.5t78 -39.5q25 0 44.5 11.5t32.5 32t20 47.5t7 58q0 67 -27 108.5t-80 41.5z" />
<glyph unicode="&#x1f45;" horiz-adv-x="553" d="M167 543q-37 34 -51.5 70t-14.5 59q0 48 33.5 79.5t94.5 39.5l32 -94q-40 -7 -51.5 -23t-11.5 -36q0 -15 7 -35t20 -38zM338 544l-69 20l77 213l131 -25zM275 -11q-53 0 -95.5 18t-72.5 51t-46.5 80t-16.5 105q0 60 17 107.5t48 80t74 50t94 17.5t94 -17.5t73.5 -50.5 t47.5 -80t17 -105q0 -60 -17.5 -107.5t-48.5 -80.5t-74 -50.5t-94 -17.5zM274 393q-50 0 -76 -42t-26 -106q0 -72 27 -111.5t78 -39.5q25 0 44.5 11.5t32.5 32t20 47.5t7 58q0 67 -27 108.5t-80 41.5z" />
<glyph unicode="&#x1f48;" horiz-adv-x="664" d="M331 -11q-71 0 -124.5 25.5t-89.5 70t-54.5 106t-18.5 133.5t18.5 134t55 107t90 70.5t124.5 25.5q67 0 120.5 -24t91 -68.5t57 -106.5t19.5 -137q0 -76 -19.5 -138t-57 -106t-91 -68t-121.5 -24zM331 542q-38 0 -66 -16t-47 -45t-28 -68.5t-9 -86.5t9.5 -86.5t28.5 -69 t47 -46t66 -16.5t66.5 17.5t47 47t28 69t9.5 83.5q0 47 -9.5 87t-28.5 69t-47.5 45t-66.5 16zM-102 461q13 19 20.5 38.5t7.5 35.5q0 19 -12.5 35.5t-53.5 23.5l38 94q60 -11 92.5 -41t32.5 -78q0 -23 -14.5 -59t-52.5 -70z" />
<glyph unicode="&#x1f49;" horiz-adv-x="664" d="M331 -11q-71 0 -124.5 25.5t-89.5 70t-54.5 106t-18.5 133.5t18.5 134t55 107t90 70.5t124.5 25.5q67 0 120.5 -24t91 -68.5t57 -106.5t19.5 -137q0 -76 -19.5 -138t-57 -106t-91 -68t-121.5 -24zM331 542q-38 0 -66 -16t-47 -45t-28 -68.5t-9 -86.5t9.5 -86.5t28.5 -69 t47 -46t66 -16.5t66.5 17.5t47 47t28 69t9.5 83.5q0 47 -9.5 87t-28.5 69t-47.5 45t-66.5 16zM-72 441q-37 34 -51.5 70.5t-14.5 59.5q0 48 33.5 79t94.5 39l33 -94q-20 -3 -32.5 -9t-19.5 -14t-9.5 -17t-2.5 -18q0 -16 7.5 -35.5t19.5 -38.5z" />
<glyph unicode="&#x1f4a;" horiz-adv-x="664" d="M331 -11q-71 0 -124.5 25.5t-89.5 70t-54.5 106t-18.5 133.5t18.5 134t55 107t90 70.5t124.5 25.5q67 0 120.5 -24t91 -68.5t57 -106.5t19.5 -137q0 -76 -19.5 -138t-57 -106t-91 -68t-121.5 -24zM331 542q-38 0 -66 -16t-47 -45t-28 -68.5t-9 -86.5t9.5 -86.5t28.5 -69 t47 -46t66 -16.5t66.5 17.5t47 47t28 69t9.5 83.5q0 47 -9.5 87t-28.5 69t-47.5 45t-66.5 16zM-302 464q12 18 19.5 37.5t7.5 35.5q0 19 -12.5 36t-53.5 24l39 94q59 -11 91.5 -41.5t32.5 -78.5q0 -23 -14.5 -59t-51.5 -70zM-173 660l131 25l77 -214l-69 -19z" />
<glyph unicode="&#x1f4b;" horiz-adv-x="664" d="M331 -11q-71 0 -124.5 25.5t-89.5 70t-54.5 106t-18.5 133.5t18.5 134t55 107t90 70.5t124.5 25.5q67 0 120.5 -24t91 -68.5t57 -106.5t19.5 -137q0 -76 -19.5 -138t-57 -106t-91 -68t-121.5 -24zM331 542q-38 0 -66 -16t-47 -45t-28 -68.5t-9 -86.5t9.5 -86.5t28.5 -69 t47 -46t66 -16.5t66.5 17.5t47 47t28 69t9.5 83.5q0 47 -9.5 87t-28.5 69t-47.5 45t-66.5 16zM-276 437q-38 34 -52.5 70.5t-14.5 59.5q0 48 33.5 79t95.5 39l32 -94q-20 -3 -32.5 -9t-19.5 -14t-9.5 -17t-2.5 -18q0 -16 7.5 -35.5t20.5 -38.5zM-178 658l131 25l77 -213 l-69 -19z" />
<glyph unicode="&#x1f4c;" horiz-adv-x="664" d="M331 -11q-71 0 -124.5 25.5t-89.5 70t-54.5 106t-18.5 133.5t18.5 134t55 107t90 70.5t124.5 25.5q67 0 120.5 -24t91 -68.5t57 -106.5t19.5 -137q0 -76 -19.5 -138t-57 -106t-91 -68t-121.5 -24zM331 542q-38 0 -66 -16t-47 -45t-28 -68.5t-9 -86.5t9.5 -86.5t28.5 -69 t47 -46t66 -16.5t66.5 17.5t47 47t28 69t9.5 83.5q0 47 -9.5 87t-28.5 69t-47.5 45t-66.5 16zM-255 471q13 18 20.5 38t7.5 35q0 20 -12.5 36.5t-53.5 23.5l38 94q60 -11 92.5 -41.5t32.5 -78.5q0 -23 -14.5 -59t-52.5 -70zM-49 450l-69 19l77 213l130 -25z" />
<glyph unicode="&#x1f4d;" horiz-adv-x="664" d="M331 -11q-71 0 -124.5 25.5t-89.5 70t-54.5 106t-18.5 133.5t18.5 134t55 107t90 70.5t124.5 25.5q67 0 120.5 -24t91 -68.5t57 -106.5t19.5 -137q0 -76 -19.5 -138t-57 -106t-91 -68t-121.5 -24zM331 542q-38 0 -66 -16t-47 -45t-28 -68.5t-9 -86.5t9.5 -86.5t28.5 -69 t47 -46t66 -16.5t66.5 17.5t47 47t28 69t9.5 83.5q0 47 -9.5 87t-28.5 69t-47.5 45t-66.5 16zM-233 447q-37 34 -51.5 70t-14.5 59q0 48 33.5 79.5t94.5 39.5l32 -94q-40 -7 -51.5 -23t-11.5 -36q0 -15 7 -35t20 -38zM-62 448l-69 20l77 213l131 -25z" />
<glyph unicode="&#x1f50;" horiz-adv-x="542" d="M274 -11q-106 0 -165 56.5t-59 168.5v275h128v-273q0 -63 22 -94t72 -31q54 0 75 31.5t21 93.5v273h127v-275q0 -111 -57.5 -168t-163.5 -57zM224 560q13 19 20.5 38.5t7.5 35.5q0 19 -12.5 35.5t-53.5 23.5l38 94q60 -11 92.5 -41t32.5 -78q0 -23 -14.5 -59t-52.5 -70z " />
<glyph unicode="&#x1f51;" horiz-adv-x="542" d="M274 -11q-106 0 -165 56.5t-59 168.5v275h128v-273q0 -63 22 -94t72 -31q54 0 75 31.5t21 93.5v273h127v-275q0 -111 -57.5 -168t-163.5 -57zM266 538q-37 34 -51.5 70.5t-14.5 59.5q0 48 33.5 79t94.5 39l33 -94q-20 -3 -32.5 -9t-19.5 -14t-9.5 -17t-2.5 -18 q0 -16 7.5 -35.5t19.5 -38.5z" />
<glyph unicode="&#x1f52;" horiz-adv-x="542" d="M274 -11q-106 0 -165 56.5t-59 168.5v275h128v-273q0 -63 22 -94t72 -31q54 0 75 31.5t21 93.5v273h127v-275q0 -111 -57.5 -168t-163.5 -57zM108 567q12 18 19.5 37.5t7.5 35.5q0 19 -12.5 36t-53.5 24l39 94q59 -11 91.5 -41.5t32.5 -78.5q0 -23 -14.5 -59t-51.5 -70z M237 763l131 25l77 -214l-69 -19z" />
<glyph unicode="&#x1f53;" horiz-adv-x="542" d="M274 -11q-106 0 -165 56.5t-59 168.5v275h128v-273q0 -63 22 -94t72 -31q54 0 75 31.5t21 93.5v273h127v-275q0 -111 -57.5 -168t-163.5 -57zM139 537q-38 34 -52.5 70.5t-14.5 59.5q0 48 33.5 79t95.5 39l32 -94q-20 -3 -32.5 -9t-19.5 -14t-9.5 -17t-2.5 -18 q0 -16 7.5 -35.5t20.5 -38.5zM237 758l131 25l77 -213l-69 -19z" />
<glyph unicode="&#x1f54;" horiz-adv-x="542" d="M274 -11q-106 0 -165 56.5t-59 168.5v275h128v-273q0 -63 22 -94t72 -31q54 0 75 31.5t21 93.5v273h127v-275q0 -111 -57.5 -168t-163.5 -57zM144 564q13 18 20.5 38t7.5 35q0 20 -12.5 36.5t-53.5 23.5l38 94q60 -11 92.5 -41.5t32.5 -78.5q0 -23 -14.5 -59t-52.5 -70z M350 543l-69 19l77 213l130 -25z" />
<glyph unicode="&#x1f55;" horiz-adv-x="542" d="M274 -11q-106 0 -165 56.5t-59 168.5v275h128v-273q0 -63 22 -94t72 -31q54 0 75 31.5t21 93.5v273h127v-275q0 -111 -57.5 -168t-163.5 -57zM186 541q-37 34 -51.5 70t-14.5 59q0 48 33.5 79.5t94.5 39.5l32 -94q-40 -7 -51.5 -23t-11.5 -36q0 -15 7 -35t20 -38z M357 542l-69 20l77 213l131 -25z" />
<glyph unicode="&#x1f56;" horiz-adv-x="542" d="M274 -11q-106 0 -165 56.5t-59 168.5v275h128v-273q0 -63 22 -94t72 -31q54 0 75 31.5t21 93.5v273h127v-275q0 -111 -57.5 -168t-163.5 -57zM341 702q-16 0 -35 7t-38 15.5t-37.5 15.5t-33.5 7t-30 -8t-38 -37l-48 24q10 32 24 53.5t29.5 35t31.5 19.5t31 6 q18 0 38.5 -7.5t40 -16t37 -16t31.5 -7.5q9 0 16.5 1.5t15 6t15.5 12.5t19 21l48 -26q-20 -59 -51 -82.5t-66 -23.5zM225 698q57 -5 88.5 -27t31.5 -55q0 -24 -21.5 -51.5t-71.5 -49.5l-26 32q15 13 24 24t9 20q0 15 -12.5 23.5t-47.5 15.5z" />
<glyph unicode="&#x1f57;" horiz-adv-x="542" d="M274 -11q-106 0 -165 56.5t-59 168.5v275h128v-273q0 -63 22 -94t72 -31q54 0 75 31.5t21 93.5v273h127v-275q0 -111 -57.5 -168t-163.5 -57zM335 702q-16 0 -35 7t-38 15.5t-37.5 15.5t-33.5 7q-16 0 -30.5 -7.5t-37.5 -37.5l-48 24q10 32 24 53.5t29.5 35t31.5 19.5 t31 6q18 0 38 -7.5t40 -16t37.5 -16t31.5 -7.5q9 0 16.5 1.5t15 6t15.5 12.5t19 21l47 -26q-20 -59 -50.5 -82.5t-65.5 -23.5zM329 630q-29 -8 -41.5 -16.5t-12.5 -22.5q0 -10 9 -20t23 -20l-21 -34q-56 16 -77 41t-20 50q2 33 31.5 58.5t89.5 28.5z" />
<glyph unicode="&#x1f59;" horiz-adv-x="625" d="M378 224v-224h-132v223l-242 428h147l81 -159l81 -159l82 161l80 157h146zM-107 438q-37 34 -51.5 70.5t-14.5 59.5q0 48 33.5 79t94.5 39l33 -94q-20 -3 -32.5 -9t-19.5 -14t-9.5 -17t-2.5 -18q0 -16 7.5 -35.5t19.5 -38.5z" />
<glyph unicode="&#x1f5b;" horiz-adv-x="625" d="M378 224v-224h-132v223l-242 428h147l81 -159l81 -159l82 161l80 157h146zM-300 442q-38 34 -52.5 70.5t-14.5 59.5q0 48 33.5 79t95.5 39l32 -94q-20 -3 -32.5 -9t-19.5 -14t-9.5 -17t-2.5 -18q0 -16 7.5 -35.5t20.5 -38.5zM-202 663l131 25l77 -213l-69 -19z" />
<glyph unicode="&#x1f5d;" horiz-adv-x="625" d="M378 224v-224h-132v223l-242 428h147l81 -159l81 -159l82 161l80 157h146zM-324 442q-37 34 -51.5 70t-14.5 59q0 48 33.5 79.5t94.5 39.5l32 -94q-40 -7 -51.5 -23t-11.5 -36q0 -15 7 -35t20 -38zM-153 443l-69 20l77 213l131 -25z" />
<glyph unicode="&#x1f5f;" horiz-adv-x="625" d="M378 224v-224h-132v223l-242 428h147l81 -159l81 -159l82 161l80 157h146zM-123 579q-16 0 -35 7t-38 15.5t-37.5 15.5t-33.5 7q-16 0 -30.5 -7.5t-37.5 -37.5l-48 24q10 32 24 53.5t29.5 35t31.5 19.5t31 6q18 0 38 -7.5t40 -16t37.5 -16t31.5 -7.5q9 0 16.5 1.5t15 6 t15.5 12.5t19 21l47 -26q-20 -59 -50.5 -82.5t-65.5 -23.5zM-129 507q-29 -8 -41.5 -16.5t-12.5 -22.5q0 -10 9 -20t23 -20l-21 -34q-56 16 -77 41t-20 50q2 33 31.5 58.5t89.5 28.5z" />
<glyph unicode="&#x1f60;" horiz-adv-x="770" d="M384 65q-23 -35 -56.5 -54.5t-74.5 -19.5q-47 0 -85 16t-66 48t-43 79t-15 110q0 44 13.5 86t38.5 76.5t61 59t81 33.5l38 -96q-30 -8 -50 -26.5t-32 -41t-17 -47t-5 -45.5q0 -80 25.5 -114.5t61.5 -34.5q35 0 54 25.5t19 70.5v120h109v-121q0 -45 18.5 -70t51.5 -25 q38 0 63 33t25 114q0 21 -5 45.5t-17 47.5t-32 41t-49 27l37 96q46 -9 82 -34.5t61 -60.5t37.5 -77t12.5 -84q0 -61 -15 -108t-42.5 -78.5t-66 -48t-85.5 -16.5q-39 0 -74 19.5t-56 54.5h-3zM337 560q13 19 20.5 38.5t7.5 35.5q0 19 -12.5 35.5t-53.5 23.5l38 94 q60 -11 92.5 -41t32.5 -78q0 -23 -14.5 -59t-52.5 -70z" />
<glyph unicode="&#x1f61;" horiz-adv-x="770" d="M384 65q-23 -35 -56.5 -54.5t-74.5 -19.5q-47 0 -85 16t-66 48t-43 79t-15 110q0 44 13.5 86t38.5 76.5t61 59t81 33.5l38 -96q-30 -8 -50 -26.5t-32 -41t-17 -47t-5 -45.5q0 -80 25.5 -114.5t61.5 -34.5q35 0 54 25.5t19 70.5v120h109v-121q0 -45 18.5 -70t51.5 -25 q38 0 63 33t25 114q0 21 -5 45.5t-17 47.5t-32 41t-49 27l37 96q46 -9 82 -34.5t61 -60.5t37.5 -77t12.5 -84q0 -61 -15 -108t-42.5 -78.5t-66 -48t-85.5 -16.5q-39 0 -74 19.5t-56 54.5h-3zM372 538q-37 34 -51.5 70.5t-14.5 59.5q0 48 33.5 79t94.5 39l33 -94 q-20 -3 -32.5 -9t-19.5 -14t-9.5 -17t-2.5 -18q0 -16 7.5 -35.5t19.5 -38.5z" />
<glyph unicode="&#x1f62;" horiz-adv-x="770" d="M384 65q-23 -35 -56.5 -54.5t-74.5 -19.5q-47 0 -85 16t-66 48t-43 79t-15 110q0 44 13.5 86t38.5 76.5t61 59t81 33.5l38 -96q-30 -8 -50 -26.5t-32 -41t-17 -47t-5 -45.5q0 -80 25.5 -114.5t61.5 -34.5q35 0 54 25.5t19 70.5v120h109v-121q0 -45 18.5 -70t51.5 -25 q38 0 63 33t25 114q0 21 -5 45.5t-17 47.5t-32 41t-49 27l37 96q46 -9 82 -34.5t61 -60.5t37.5 -77t12.5 -84q0 -61 -15 -108t-42.5 -78.5t-66 -48t-85.5 -16.5q-39 0 -74 19.5t-56 54.5h-3zM227 563q12 18 19.5 37.5t7.5 35.5q0 19 -12.5 36t-53.5 24l39 94 q59 -11 91.5 -41.5t32.5 -78.5q0 -23 -14.5 -59t-51.5 -70zM356 759l131 25l77 -214l-69 -19z" />
<glyph unicode="&#x1f63;" horiz-adv-x="770" d="M384 65q-23 -35 -56.5 -54.5t-74.5 -19.5q-47 0 -85 16t-66 48t-43 79t-15 110q0 44 13.5 86t38.5 76.5t61 59t81 33.5l38 -96q-30 -8 -50 -26.5t-32 -41t-17 -47t-5 -45.5q0 -80 25.5 -114.5t61.5 -34.5q35 0 54 25.5t19 70.5v120h109v-121q0 -45 18.5 -70t51.5 -25 q38 0 63 33t25 114q0 21 -5 45.5t-17 47.5t-32 41t-49 27l37 96q46 -9 82 -34.5t61 -60.5t37.5 -77t12.5 -84q0 -61 -15 -108t-42.5 -78.5t-66 -48t-85.5 -16.5q-39 0 -74 19.5t-56 54.5h-3zM246 537q-38 34 -52.5 70.5t-14.5 59.5q0 48 33.5 79t95.5 39l32 -94 q-20 -3 -32.5 -9t-19.5 -14t-9.5 -17t-2.5 -18q0 -16 7.5 -35.5t20.5 -38.5zM344 758l131 25l77 -213l-69 -19z" />
<glyph unicode="&#x1f64;" horiz-adv-x="770" d="M384 65q-23 -35 -56.5 -54.5t-74.5 -19.5q-47 0 -85 16t-66 48t-43 79t-15 110q0 44 13.5 86t38.5 76.5t61 59t81 33.5l38 -96q-30 -8 -50 -26.5t-32 -41t-17 -47t-5 -45.5q0 -80 25.5 -114.5t61.5 -34.5q35 0 54 25.5t19 70.5v120h109v-121q0 -45 18.5 -70t51.5 -25 q38 0 63 33t25 114q0 21 -5 45.5t-17 47.5t-32 41t-49 27l37 96q46 -9 82 -34.5t61 -60.5t37.5 -77t12.5 -84q0 -61 -15 -108t-42.5 -78.5t-66 -48t-85.5 -16.5q-39 0 -74 19.5t-56 54.5h-3zM272 563q13 18 20.5 38t7.5 35q0 20 -12.5 36.5t-53.5 23.5l38 94 q60 -11 92.5 -41.5t32.5 -78.5q0 -23 -14.5 -59t-52.5 -70zM478 542l-69 19l77 213l130 -25z" />
<glyph unicode="&#x1f65;" horiz-adv-x="770" d="M384 65q-23 -35 -56.5 -54.5t-74.5 -19.5q-47 0 -85 16t-66 48t-43 79t-15 110q0 44 13.5 86t38.5 76.5t61 59t81 33.5l38 -96q-30 -8 -50 -26.5t-32 -41t-17 -47t-5 -45.5q0 -80 25.5 -114.5t61.5 -34.5q35 0 54 25.5t19 70.5v120h109v-121q0 -45 18.5 -70t51.5 -25 q38 0 63 33t25 114q0 21 -5 45.5t-17 47.5t-32 41t-49 27l37 96q46 -9 82 -34.5t61 -60.5t37.5 -77t12.5 -84q0 -61 -15 -108t-42.5 -78.5t-66 -48t-85.5 -16.5q-39 0 -74 19.5t-56 54.5h-3zM301 541q-37 34 -51.5 70t-14.5 59q0 48 33.5 79.5t94.5 39.5l32 -94 q-40 -7 -51.5 -23t-11.5 -36q0 -15 7 -35t20 -38zM472 542l-69 20l77 213l131 -25z" />
<glyph unicode="&#x1f66;" horiz-adv-x="770" d="M384 65q-23 -35 -56.5 -54.5t-74.5 -19.5q-47 0 -85 16t-66 48t-43 79t-15 110q0 44 13.5 86t38.5 76.5t61 59t81 33.5l38 -96q-30 -8 -50 -26.5t-32 -41t-17 -47t-5 -45.5q0 -80 25.5 -114.5t61.5 -34.5q35 0 54 25.5t19 70.5v120h109v-121q0 -45 18.5 -70t51.5 -25 q38 0 63 33t25 114q0 21 -5 45.5t-17 47.5t-32 41t-49 27l37 96q46 -9 82 -34.5t61 -60.5t37.5 -77t12.5 -84q0 -61 -15 -108t-42.5 -78.5t-66 -48t-85.5 -16.5q-39 0 -74 19.5t-56 54.5h-3zM453 690q-16 0 -35 7t-38 15.5t-37.5 15.5t-33.5 7t-30 -8t-38 -37l-48 24 q10 32 24 53.5t29.5 35t31.5 19.5t31 6q18 0 38.5 -7.5t40 -16t37 -16t31.5 -7.5q9 0 16.5 1.5t15 6t15.5 12.5t19 21l48 -26q-20 -59 -51 -82.5t-66 -23.5zM337 686q57 -5 88.5 -27t31.5 -55q0 -24 -21.5 -51.5t-71.5 -49.5l-26 32q15 13 24 24t9 20q0 15 -12.5 23.5 t-47.5 15.5z" />
<glyph unicode="&#x1f67;" horiz-adv-x="770" d="M384 65q-23 -35 -56.5 -54.5t-74.5 -19.5q-47 0 -85 16t-66 48t-43 79t-15 110q0 44 13.5 86t38.5 76.5t61 59t81 33.5l38 -96q-30 -8 -50 -26.5t-32 -41t-17 -47t-5 -45.5q0 -80 25.5 -114.5t61.5 -34.5q35 0 54 25.5t19 70.5v120h109v-121q0 -45 18.5 -70t51.5 -25 q38 0 63 33t25 114q0 21 -5 45.5t-17 47.5t-32 41t-49 27l37 96q46 -9 82 -34.5t61 -60.5t37.5 -77t12.5 -84q0 -61 -15 -108t-42.5 -78.5t-66 -48t-85.5 -16.5q-39 0 -74 19.5t-56 54.5h-3zM453 688q-16 0 -35 7t-38 15.5t-37.5 15.5t-33.5 7q-16 0 -30.5 -7.5t-37.5 -37.5 l-48 24q10 32 24 53.5t29.5 35t31.5 19.5t31 6q18 0 38 -7.5t40 -16t37.5 -16t31.5 -7.5q9 0 16.5 1.5t15 6t15.5 12.5t19 21l47 -26q-20 -59 -50.5 -82.5t-65.5 -23.5zM447 616q-29 -8 -41.5 -16.5t-12.5 -22.5q0 -10 9 -20t23 -20l-21 -34q-56 16 -77 41t-20 50 q2 33 31.5 58.5t89.5 28.5z" />
<glyph unicode="&#x1f68;" horiz-adv-x="690" d="M344 661q66 0 120 -22.5t92.5 -64.5t59 -101.5t20.5 -132.5q0 -64 -20.5 -126t-70.5 -103h96v-111h-249v124q54 19 81 73.5t27 133.5q0 47 -10 86t-30 66.5t-49 43t-67 15.5q-37 0 -66 -15.5t-48.5 -43t-30 -65t-10.5 -82.5q0 -81 26 -136t82 -75v-125h-251v110h96 q-23 18 -40 43t-27.5 54.5t-15.5 62t-5 65.5q0 75 20.5 135t58.5 102.5t91.5 65.5t119.5 23zM-98 458q13 19 20.5 38.5t7.5 35.5q0 19 -12.5 35.5t-53.5 23.5l38 94q60 -11 92.5 -41t32.5 -78q0 -23 -14.5 -59t-52.5 -70z" />
<glyph unicode="&#x1f69;" horiz-adv-x="690" d="M344 661q66 0 120 -22.5t92.5 -64.5t59 -101.5t20.5 -132.5q0 -64 -20.5 -126t-70.5 -103h96v-111h-249v124q54 19 81 73.5t27 133.5q0 47 -10 86t-30 66.5t-49 43t-67 15.5q-37 0 -66 -15.5t-48.5 -43t-30 -65t-10.5 -82.5q0 -81 26 -136t82 -75v-125h-251v110h96 q-23 18 -40 43t-27.5 54.5t-15.5 62t-5 65.5q0 75 20.5 135t58.5 102.5t91.5 65.5t119.5 23zM-70 439q-37 34 -51.5 70.5t-14.5 59.5q0 48 33.5 79t94.5 39l33 -94q-20 -3 -32.5 -9t-19.5 -14t-9.5 -17t-2.5 -18q0 -16 7.5 -35.5t19.5 -38.5z" />
<glyph unicode="&#x1f6a;" horiz-adv-x="690" d="M344 661q66 0 120 -22.5t92.5 -64.5t59 -101.5t20.5 -132.5q0 -64 -20.5 -126t-70.5 -103h96v-111h-249v124q54 19 81 73.5t27 133.5q0 47 -10 86t-30 66.5t-49 43t-67 15.5q-37 0 -66 -15.5t-48.5 -43t-30 -65t-10.5 -82.5q0 -81 26 -136t82 -75v-125h-251v110h96 q-23 18 -40 43t-27.5 54.5t-15.5 62t-5 65.5q0 75 20.5 135t58.5 102.5t91.5 65.5t119.5 23zM-293 469q12 18 19.5 37.5t7.5 35.5q0 19 -12.5 36t-53.5 24l39 94q59 -11 91.5 -41.5t32.5 -78.5q0 -23 -14.5 -59t-51.5 -70zM-164 665l131 25l77 -214l-69 -19z" />
<glyph unicode="&#x1f6b;" horiz-adv-x="690" d="M344 661q66 0 120 -22.5t92.5 -64.5t59 -101.5t20.5 -132.5q0 -64 -20.5 -126t-70.5 -103h96v-111h-249v124q54 19 81 73.5t27 133.5q0 47 -10 86t-30 66.5t-49 43t-67 15.5q-37 0 -66 -15.5t-48.5 -43t-30 -65t-10.5 -82.5q0 -81 26 -136t82 -75v-125h-251v110h96 q-23 18 -40 43t-27.5 54.5t-15.5 62t-5 65.5q0 75 20.5 135t58.5 102.5t91.5 65.5t119.5 23zM-270 442q-38 34 -52.5 70.5t-14.5 59.5q0 48 33.5 79t95.5 39l32 -94q-20 -3 -32.5 -9t-19.5 -14t-9.5 -17t-2.5 -18q0 -16 7.5 -35.5t20.5 -38.5zM-172 663l131 25l77 -213 l-69 -19z" />
<glyph unicode="&#x1f6c;" horiz-adv-x="690" d="M344 661q66 0 120 -22.5t92.5 -64.5t59 -101.5t20.5 -132.5q0 -64 -20.5 -126t-70.5 -103h96v-111h-249v124q54 19 81 73.5t27 133.5q0 47 -10 86t-30 66.5t-49 43t-67 15.5q-37 0 -66 -15.5t-48.5 -43t-30 -65t-10.5 -82.5q0 -81 26 -136t82 -75v-125h-251v110h96 q-23 18 -40 43t-27.5 54.5t-15.5 62t-5 65.5q0 75 20.5 135t58.5 102.5t91.5 65.5t119.5 23zM-245 471q13 18 20.5 38t7.5 35q0 20 -12.5 36.5t-53.5 23.5l38 94q60 -11 92.5 -41.5t32.5 -78.5q0 -23 -14.5 -59t-52.5 -70zM-39 450l-69 19l77 213l130 -25z" />
<glyph unicode="&#x1f6d;" horiz-adv-x="690" d="M344 661q66 0 120 -22.5t92.5 -64.5t59 -101.5t20.5 -132.5q0 -64 -20.5 -126t-70.5 -103h96v-111h-249v124q54 19 81 73.5t27 133.5q0 47 -10 86t-30 66.5t-49 43t-67 15.5q-37 0 -66 -15.5t-48.5 -43t-30 -65t-10.5 -82.5q0 -81 26 -136t82 -75v-125h-251v110h96 q-23 18 -40 43t-27.5 54.5t-15.5 62t-5 65.5q0 75 20.5 135t58.5 102.5t91.5 65.5t119.5 23zM-208 450q-37 34 -51.5 70t-14.5 59q0 48 33.5 79.5t94.5 39.5l32 -94q-40 -7 -51.5 -23t-11.5 -36q0 -15 7 -35t20 -38zM-37 451l-69 20l77 213l131 -25z" />
<glyph unicode="&#x1f6e;" horiz-adv-x="690" d="M344 661q66 0 120 -22.5t92.5 -64.5t59 -101.5t20.5 -132.5q0 -64 -20.5 -126t-70.5 -103h96v-111h-249v124q54 19 81 73.5t27 133.5q0 47 -10 86t-30 66.5t-49 43t-67 15.5q-37 0 -66 -15.5t-48.5 -43t-30 -65t-10.5 -82.5q0 -81 26 -136t82 -75v-125h-251v110h96 q-23 18 -40 43t-27.5 54.5t-15.5 62t-5 65.5q0 75 20.5 135t58.5 102.5t91.5 65.5t119.5 23zM-17 579q-16 0 -35 7t-38 15.5t-37.5 15.5t-33.5 7t-30 -8t-38 -37l-48 24q10 32 24 53.5t29.5 35t31.5 19.5t31 6q18 0 38.5 -7.5t40 -16t37 -16t31.5 -7.5q9 0 16.5 1.5t15 6 t15.5 12.5t19 21l48 -26q-20 -59 -51 -82.5t-66 -23.5zM-133 575q57 -5 88.5 -27t31.5 -55q0 -24 -21.5 -51.5t-71.5 -49.5l-26 32q15 13 24 24t9 20q0 15 -12.5 23.5t-47.5 15.5z" />
<glyph unicode="&#x1f6f;" horiz-adv-x="690" d="M344 661q66 0 120 -22.5t92.5 -64.5t59 -101.5t20.5 -132.5q0 -64 -20.5 -126t-70.5 -103h96v-111h-249v124q54 19 81 73.5t27 133.5q0 47 -10 86t-30 66.5t-49 43t-67 15.5q-37 0 -66 -15.5t-48.5 -43t-30 -65t-10.5 -82.5q0 -81 26 -136t82 -75v-125h-251v110h96 q-23 18 -40 43t-27.5 54.5t-15.5 62t-5 65.5q0 75 20.5 135t58.5 102.5t91.5 65.5t119.5 23zM-8 579q-16 0 -35 7t-38 15.5t-37.5 15.5t-33.5 7q-16 0 -30.5 -7.5t-37.5 -37.5l-48 24q10 32 24 53.5t29.5 35t31.5 19.5t31 6q18 0 38 -7.5t40 -16t37.5 -16t31.5 -7.5 q9 0 16.5 1.5t15 6t15.5 12.5t19 21l47 -26q-20 -59 -50.5 -82.5t-65.5 -23.5zM-14 507q-29 -8 -41.5 -16.5t-12.5 -22.5q0 -10 9 -20t23 -20l-21 -34q-56 16 -77 41t-20 50q2 33 31.5 58.5t89.5 28.5z" />
<glyph unicode="&#x1f70;" horiz-adv-x="541" d="M382 0l-13 44h-3q-32 -29 -65.5 -41.5t-68.5 -12.5q-37 0 -71 13t-60 42.5t-41.5 77.5t-15.5 119q0 65 15.5 113t42.5 80t62 47.5t74 15.5q34 0 67 -13t58 -39h3v42h122v-488h-106zM267 393q-42 0 -68 -40t-26 -111q0 -78 25 -112t71 -34q28 0 52 15.5t41 34.5v194 q-17 20 -41.5 36.5t-53.5 16.5zM127 755l133 25l77 -214l-71 -19z" />
<glyph unicode="&#x1f71;" horiz-adv-x="541" d="M382 0l-13 44h-3q-32 -29 -65.5 -41.5t-68.5 -12.5q-37 0 -71 13t-60 42.5t-41.5 77.5t-15.5 119q0 65 15.5 113t42.5 80t62 47.5t74 15.5q34 0 67 -13t58 -39h3v42h122v-488h-106zM267 393q-42 0 -68 -40t-26 -111q0 -78 25 -112t71 -34q28 0 52 15.5t41 34.5v194 q-17 20 -41.5 36.5t-53.5 16.5zM303 548l-71 19l77 214l133 -25z" />
<glyph unicode="&#x1f72;" horiz-adv-x="462" d="M451 71q-42 -45 -96 -63t-110 -18q-37 0 -73 8t-64.5 25t-46 45t-17.5 67q0 33 20.5 64.5t58.5 46.5v1q-38 14 -56 42.5t-18 57.5q0 37 17 65t45 47t63.5 29t72.5 10q53 0 101 -15t87 -55l-68 -79q-29 29 -55.5 39t-49.5 10q-24 0 -40.5 -6.5t-26.5 -15.5t-14.5 -18.5 t-4.5 -15.5q0 -16 5.5 -26t14 -15.5t19.5 -7.5t23 -2h67v-84h-68q-24 0 -46.5 -14t-22.5 -39q0 -11 4.5 -22t14.5 -21t27 -16t41 -6q21 0 52.5 10t73.5 49zM95 756l133 25l77 -214l-71 -19z" />
<glyph unicode="&#x1f73;" horiz-adv-x="462" d="M451 71q-42 -45 -96 -63t-110 -18q-37 0 -73 8t-64.5 25t-46 45t-17.5 67q0 33 20.5 64.5t58.5 46.5v1q-38 14 -56 42.5t-18 57.5q0 37 17 65t45 47t63.5 29t72.5 10q53 0 101 -15t87 -55l-68 -79q-29 29 -55.5 39t-49.5 10q-24 0 -40.5 -6.5t-26.5 -15.5t-14.5 -18.5 t-4.5 -15.5q0 -16 5.5 -26t14 -15.5t19.5 -7.5t23 -2h67v-84h-68q-24 0 -46.5 -14t-22.5 -39q0 -11 4.5 -22t14.5 -21t27 -16t41 -6q21 0 52.5 10t73.5 49zM264 548l-71 19l77 214l133 -25z" />
<glyph unicode="&#x1f74;" horiz-adv-x="533" d="M486 0h-127v281q0 52 -20 80t-65 28q-34 0 -57.5 -19t-31.5 -51q-2 -9 -4 -20.5t-2 -23.5v-275h-126v488h126v-52h4q26 30 62.5 46t70.5 16q90 0 130 -52.5t40 -141.5v-304zM99 755l133 25l77 -214l-71 -19z" />
<glyph unicode="&#x1f75;" horiz-adv-x="533" d="M486 0h-127v281q0 52 -20 80t-65 28q-34 0 -57.5 -19t-31.5 -51q-2 -9 -4 -20.5t-2 -23.5v-275h-126v488h126v-52h4q26 30 62.5 46t70.5 16q90 0 130 -52.5t40 -141.5v-304zM275 548l-71 19l77 214l133 -25z" />
<glyph unicode="&#x1f76;" horiz-adv-x="271" d="M73 488h126v-488h-126v488zM-29 756l133 25l77 -214l-71 -19z" />
<glyph unicode="&#x1f77;" horiz-adv-x="271" d="M73 488h126v-488h-126v488zM161 548l-71 19l77 214l133 -25z" />
<glyph unicode="&#x1f78;" horiz-adv-x="553" d="M110 756l133 25l77 -214l-71 -19zM275 -11q-53 0 -95.5 18t-72.5 51t-46.5 80t-16.5 105q0 60 17 107.5t48 80t74 50t94 17.5t94 -17.5t73.5 -50.5t47.5 -80t17 -105q0 -60 -17.5 -107.5t-48.5 -80.5t-74 -50.5t-94 -17.5zM274 393q-50 0 -76 -42t-26 -106 q0 -72 27 -111.5t78 -39.5q25 0 44.5 11.5t32.5 32t20 47.5t7 58q0 67 -27 108.5t-80 41.5z" />
<glyph unicode="&#x1f79;" horiz-adv-x="553" d="M287 548l-71 19l77 214l133 -25zM275 -11q-53 0 -95.5 18t-72.5 51t-46.5 80t-16.5 105q0 60 17 107.5t48 80t74 50t94 17.5t94 -17.5t73.5 -50.5t47.5 -80t17 -105q0 -60 -17.5 -107.5t-48.5 -80.5t-74 -50.5t-94 -17.5zM274 393q-50 0 -76 -42t-26 -106 q0 -72 27 -111.5t78 -39.5q25 0 44.5 11.5t32.5 32t20 47.5t7 58q0 67 -27 108.5t-80 41.5z" />
<glyph unicode="&#x1f7a;" horiz-adv-x="542" d="M274 -11q-106 0 -165 56.5t-59 168.5v275h128v-273q0 -63 22 -94t72 -31q54 0 75 31.5t21 93.5v273h127v-275q0 -111 -57.5 -168t-163.5 -57zM118 756l133 25l77 -214l-71 -19z" />
<glyph unicode="&#x1f7b;" horiz-adv-x="542" d="M274 -11q-106 0 -165 56.5t-59 168.5v275h128v-273q0 -63 22 -94t72 -31q54 0 75 31.5t21 93.5v273h127v-275q0 -111 -57.5 -168t-163.5 -57zM298 548l-71 19l77 214l133 -25z" />
<glyph unicode="&#x1f7c;" horiz-adv-x="770" d="M384 65q-23 -35 -56.5 -54.5t-74.5 -19.5q-47 0 -85 16t-66 48t-43 79t-15 110q0 44 13.5 86t38.5 76.5t61 59t81 33.5l38 -96q-30 -8 -50 -26.5t-32 -41t-17 -47t-5 -45.5q0 -80 25.5 -114.5t61.5 -34.5q35 0 54 25.5t19 70.5v120h109v-121q0 -45 18.5 -70t51.5 -25 q38 0 63 33t25 114q0 21 -5 45.5t-17 47.5t-32 41t-49 27l37 96q46 -9 82 -34.5t61 -60.5t37.5 -77t12.5 -84q0 -61 -15 -108t-42.5 -78.5t-66 -48t-85.5 -16.5q-39 0 -74 19.5t-56 54.5h-3zM220 756l133 25l77 -214l-71 -19z" />
<glyph unicode="&#x1f7d;" horiz-adv-x="770" d="M384 65q-23 -35 -56.5 -54.5t-74.5 -19.5q-47 0 -85 16t-66 48t-43 79t-15 110q0 44 13.5 86t38.5 76.5t61 59t81 33.5l38 -96q-30 -8 -50 -26.5t-32 -41t-17 -47t-5 -45.5q0 -80 25.5 -114.5t61.5 -34.5q35 0 54 25.5t19 70.5v120h109v-121q0 -45 18.5 -70t51.5 -25 q38 0 63 33t25 114q0 21 -5 45.5t-17 47.5t-32 41t-49 27l37 96q46 -9 82 -34.5t61 -60.5t37.5 -77t12.5 -84q0 -61 -15 -108t-42.5 -78.5t-66 -48t-85.5 -16.5q-39 0 -74 19.5t-56 54.5h-3zM394 548l-71 19l77 214l133 -25z" />
<glyph unicode="&#x1f80;" horiz-adv-x="541" d="M382 0l-13 44h-3q-32 -29 -65.5 -41.5t-68.5 -12.5q-37 0 -71 13t-60 42.5t-41.5 77.5t-15.5 119q0 65 15.5 113t42.5 80t62 47.5t74 15.5q34 0 67 -13t58 -39h3v42h122v-488h-106zM267 393q-42 0 -68 -40t-26 -111q0 -78 25 -112t71 -34q28 0 52 15.5t41 34.5v194 q-17 20 -41.5 36.5t-53.5 16.5zM224 560q13 19 20.5 38.5t7.5 35.5q0 19 -12.5 35.5t-53.5 23.5l38 94q60 -11 92.5 -41t32.5 -78q0 -23 -14.5 -59t-52.5 -70zM313 -54v-91q0 -27 15.5 -33t45.5 -5v-72q-12 -5 -30.5 -7.5t-31.5 -2.5q-20 0 -37 4.5t-29 15.5t-19 31t-7 50 v110h93z" />
<glyph unicode="&#x1f81;" horiz-adv-x="541" d="M382 0l-13 44h-3q-32 -29 -65.5 -41.5t-68.5 -12.5q-37 0 -71 13t-60 42.5t-41.5 77.5t-15.5 119q0 65 15.5 113t42.5 80t62 47.5t74 15.5q34 0 67 -13t58 -39h3v42h122v-488h-106zM267 393q-42 0 -68 -40t-26 -111q0 -78 25 -112t71 -34q28 0 52 15.5t41 34.5v194 q-17 20 -41.5 36.5t-53.5 16.5zM264 538q-37 34 -51.5 70.5t-14.5 59.5q0 48 33.5 79t94.5 39l33 -94q-20 -3 -32.5 -9t-19.5 -14t-9.5 -17t-2.5 -18q0 -16 7.5 -35.5t19.5 -38.5zM313 -54v-91q0 -27 15.5 -33t45.5 -5v-72q-12 -5 -30.5 -7.5t-31.5 -2.5q-20 0 -37 4.5 t-29 15.5t-19 31t-7 50v110h93z" />
<glyph unicode="&#x1f82;" horiz-adv-x="541" d="M382 0l-13 44h-3q-32 -29 -65.5 -41.5t-68.5 -12.5q-37 0 -71 13t-60 42.5t-41.5 77.5t-15.5 119q0 65 15.5 113t42.5 80t62 47.5t74 15.5q34 0 67 -13t58 -39h3v42h122v-488h-106zM267 393q-42 0 -68 -40t-26 -111q0 -78 25 -112t71 -34q28 0 52 15.5t41 34.5v194 q-17 20 -41.5 36.5t-53.5 16.5zM126 563q12 18 19.5 37.5t7.5 35.5q0 19 -12.5 36t-53.5 24l39 94q59 -11 91.5 -41.5t32.5 -78.5q0 -23 -14.5 -59t-51.5 -70zM255 759l131 25l77 -214l-69 -19zM313 -54v-91q0 -27 15.5 -33t45.5 -5v-72q-12 -5 -30.5 -7.5t-31.5 -2.5 q-20 0 -37 4.5t-29 15.5t-19 31t-7 50v110h93z" />
<glyph unicode="&#x1f83;" horiz-adv-x="541" d="M382 0l-13 44h-3q-32 -29 -65.5 -41.5t-68.5 -12.5q-37 0 -71 13t-60 42.5t-41.5 77.5t-15.5 119q0 65 15.5 113t42.5 80t62 47.5t74 15.5q34 0 67 -13t58 -39h3v42h122v-488h-106zM267 393q-42 0 -68 -40t-26 -111q0 -78 25 -112t71 -34q28 0 52 15.5t41 34.5v194 q-17 20 -41.5 36.5t-53.5 16.5zM155 537q-38 34 -52.5 70.5t-14.5 59.5q0 48 33.5 79t95.5 39l32 -94q-20 -3 -32.5 -9t-19.5 -14t-9.5 -17t-2.5 -18q0 -16 7.5 -35.5t20.5 -38.5zM253 758l131 25l77 -213l-69 -19zM313 -54v-91q0 -27 15.5 -33t45.5 -5v-72 q-12 -5 -30.5 -7.5t-31.5 -2.5q-20 0 -37 4.5t-29 15.5t-19 31t-7 50v110h93z" />
<glyph unicode="&#x1f84;" horiz-adv-x="541" d="M382 0l-13 44h-3q-32 -29 -65.5 -41.5t-68.5 -12.5q-37 0 -71 13t-60 42.5t-41.5 77.5t-15.5 119q0 65 15.5 113t42.5 80t62 47.5t74 15.5q34 0 67 -13t58 -39h3v42h122v-488h-106zM267 393q-42 0 -68 -40t-26 -111q0 -78 25 -112t71 -34q28 0 52 15.5t41 34.5v194 q-17 20 -41.5 36.5t-53.5 16.5zM164 565q13 18 20.5 38t7.5 35q0 20 -12.5 36.5t-53.5 23.5l38 94q60 -11 92.5 -41.5t32.5 -78.5q0 -23 -14.5 -59t-52.5 -70zM370 544l-69 19l77 213l130 -25zM313 -54v-91q0 -27 15.5 -33t45.5 -5v-72q-12 -5 -30.5 -7.5t-31.5 -2.5 q-20 0 -37 4.5t-29 15.5t-19 31t-7 50v110h93z" />
<glyph unicode="&#x1f85;" horiz-adv-x="541" d="M382 0l-13 44h-3q-32 -29 -65.5 -41.5t-68.5 -12.5q-37 0 -71 13t-60 42.5t-41.5 77.5t-15.5 119q0 65 15.5 113t42.5 80t62 47.5t74 15.5q34 0 67 -13t58 -39h3v42h122v-488h-106zM267 393q-42 0 -68 -40t-26 -111q0 -78 25 -112t71 -34q28 0 52 15.5t41 34.5v194 q-17 20 -41.5 36.5t-53.5 16.5zM195 542q-37 34 -51.5 70t-14.5 59q0 48 33.5 79.5t94.5 39.5l32 -94q-40 -7 -51.5 -23t-11.5 -36q0 -15 7 -35t20 -38zM366 543l-69 20l77 213l131 -25zM313 -54v-91q0 -27 15.5 -33t45.5 -5v-72q-12 -5 -30.5 -7.5t-31.5 -2.5 q-20 0 -37 4.5t-29 15.5t-19 31t-7 50v110h93z" />
</font>
</defs>
</svg>
